<svg width="37" height="37" viewBox="0 0 37 37" fill="none" xmlns="http://www.w3.org/2000/svg">
<path d="M18.5 3.7C10.3262 3.7 3.7 10.3262 3.7 18.5C3.7 26.6738 10.3262 33.3 18.5 33.3C26.6738 33.3 33.3 26.6738 33.3 18.5C33.3 10.3262 26.6738 3.7 18.5 3.7ZM0 18.5C0 8.28273 8.28273 0 18.5 0C28.7173 0 37 8.28273 37 18.5C37 28.7173 28.7173 37 18.5 37C8.28273 37 0 28.7173 0 18.5Z" fill="#192F7C"/>
<path d="M18.5 22.2C17.4783 22.2 16.65 21.3717 16.65 20.35L16.65 9.25C16.65 8.22827 17.4783 7.4 18.5 7.4C19.5217 7.4 20.35 8.22827 20.35 9.25L20.35 20.35C20.35 21.3717 19.5217 22.2 18.5 22.2Z" fill="#192F7C"/>
<path d="M15.725 26.825C15.725 25.2924 16.9674 24.05 18.5 24.05C20.0326 24.05 21.275 25.2924 21.275 26.825C21.275 28.3576 20.0326 29.6 18.5 29.6C16.9674 29.6 15.725 28.3576 15.725 26.825Z" fill="#192F7C"/>
</svg>
