<svg width="17" height="17" viewBox="0 0 17 17" fill="none" xmlns="http://www.w3.org/2000/svg">
<path d="M4.25 1.7C4.25 0.761116 5.01112 0 5.95 0H11.05C11.9889 0 12.75 0.761116 12.75 1.7V3.4H14.4412C14.4465 3.39995 14.4517 3.39995 14.457 3.4H16.15C16.6194 3.4 17 3.78056 17 4.25C17 4.71944 16.6194 5.1 16.15 5.1H15.2415L14.5042 15.4211C14.4407 16.3107 13.7004 17 12.8085 17H4.19145C3.29957 17 2.55932 16.3107 2.49577 15.4211L1.75855 5.1H0.85C0.380558 5.1 0 4.71944 0 4.25C0 3.78056 0.380558 3.4 0.85 3.4H2.54298C2.54826 3.39995 2.55352 3.39995 2.55877 3.4H4.25V1.7ZM5.95 3.4H11.05V1.7H5.95V3.4ZM3.46288 5.1L4.19145 15.3H12.8085L13.5371 5.1H3.46288Z" fill="#9F9F9F"/>
</svg>
