<svg width="16" height="12" viewBox="0 0 16 12" fill="none" xmlns="http://www.w3.org/2000/svg">
<path d="M1.77778 1.71429L8.17778 6L14.2222 1.71429M15 3.28568V8.71425C15 9.51433 15.0002 9.91443 14.8306 10.22C14.6815 10.4888 14.4432 10.7073 14.1505 10.8443C13.8177 11 13.3825 11 12.5113 11H3.48904C2.61785 11 2.18193 11 1.84918 10.8443C1.55648 10.7073 1.31868 10.4888 1.16955 10.22C1 9.91443 1 9.51433 1 8.71425V3.28568C1 2.4856 1 2.08562 1.16955 1.78003C1.31868 1.51123 1.55648 1.29267 1.84918 1.1557C2.18193 1 2.61785 1 3.48904 1H12.5113C13.3825 1 13.8177 1 14.1505 1.1557C14.4432 1.29267 14.6815 1.51123 14.8306 1.78003C15.0002 2.08562 15 2.4856 15 3.28568Z" stroke="white" stroke-width="1.5" stroke-linecap="round" stroke-linejoin="round"/>
</svg>
