<svg width="19" height="19" viewBox="0 0 19 19" fill="none" xmlns="http://www.w3.org/2000/svg">
<path d="M1.0108 5.2345C1.80121 3.66058 3.01375 2.33749 4.51291 1.4131C6.01207 0.488705 7.73876 -0.00055439 9.5 4.7142e-07C12.0603 4.7142e-07 14.211 0.9405 15.8555 2.47475L13.1319 5.19935C12.1467 4.2579 10.8946 3.77815 9.5 3.77815C7.02525 3.77815 4.9305 5.45015 4.18475 7.695C3.99475 8.265 3.88645 8.873 3.88645 9.5C3.88645 10.127 3.99475 10.735 4.18475 11.305C4.93145 13.5508 7.02525 15.2218 9.5 15.2218C10.7778 15.2218 11.8655 14.8846 12.7167 14.3146C13.2102 13.9897 13.6326 13.5681 13.9585 13.0753C14.2845 12.5825 14.5071 12.0288 14.6129 11.4475H9.5V7.7729H18.4471C18.5592 8.3942 18.62 9.0421 18.62 9.71565C18.62 12.6094 17.5845 15.0451 15.7871 16.6981C14.2158 18.1497 12.065 19 9.5 19C8.2523 19.0005 7.01674 18.7551 5.86392 18.2779C4.7111 17.8006 3.66363 17.1009 2.78137 16.2186C1.89912 15.3364 1.19937 14.2889 0.722128 13.1361C0.244885 11.9833 -0.000498618 10.7477 7.60679e-07 9.5C7.60679e-07 7.9667 0.366701 6.517 1.0108 5.2345Z" fill="#CDD1E1"/>
</svg>
