<svg width="14" height="13" viewBox="0 0 14 13" fill="none" xmlns="http://www.w3.org/2000/svg">
<path d="M7.25628 0.271972C7.59799 -0.0906574 8.15201 -0.0906574 8.49372 0.271972L13.7437 5.8434C13.9078 6.01754 14 6.25373 14 6.5C14 6.74627 13.9078 6.98246 13.7437 7.1566L8.49372 12.728C8.15201 13.0907 7.59799 13.0907 7.25628 12.728C6.91457 12.3654 6.91457 11.7775 7.25628 11.4148L11.0126 7.42857L0.875 7.42857C0.391751 7.42857 0 7.01284 0 6.5C0 5.98717 0.391751 5.57143 0.875 5.57143L11.0126 5.57143L7.25628 1.58517C6.91457 1.22254 6.91457 0.634602 7.25628 0.271972Z" fill="black"/>
</svg>
