<svg width="24" height="24" viewBox="0 0 24 24" fill="none" xmlns="http://www.w3.org/2000/svg">
<path fill-rule="evenodd" clip-rule="evenodd" d="M12 0C5.38316 0 0 5.38316 0 11.9999C0 18.6168 5.38316 24 12 24C14.4327 24 16.7777 23.2672 18.7594 21.9128L17.1865 20.0843C15.6488 21.0735 13.8566 21.6074 12 21.6074C6.7024 21.6074 2.39258 17.2976 2.39258 11.9999C2.39258 6.70232 6.7024 2.3925 12 2.3925C17.2977 2.3925 21.6075 6.70232 21.6075 11.9999C21.6075 12.6976 21.5292 13.3913 21.3812 14.066C21.0732 15.329 20.1926 15.7196 19.516 15.6667C18.8489 15.613 18.0564 15.1373 18.0512 13.9627V11.9999C18.0512 8.6634 15.3366 5.94881 12 5.94881C8.66355 5.94881 5.94881 8.6634 5.94881 11.9999C5.94881 15.3367 8.66355 18.0512 12 18.0512C13.691 18.0512 15.2212 17.3531 16.3203 16.2312C16.9675 17.2648 18.0392 17.9484 19.3243 18.0516C19.4315 18.0602 19.5385 18.0644 19.6451 18.0644C20.5159 18.0644 21.365 17.78 22.0656 17.2481C22.7887 16.6992 23.3151 15.919 23.6102 14.9751C23.6573 14.8244 23.7438 14.475 23.7448 14.4704H23.7444C23.9411 13.6185 24.0001 12.8324 24.0001 11.9999C24.0001 5.38316 18.6168 0 12 0ZM8.34138 11.9999C8.34138 9.98263 9.98271 8.34138 12 8.34138C14.0174 8.34138 15.6586 9.98263 15.6586 11.9999C15.6586 14.0174 14.0174 15.6586 12 15.6586C9.98271 15.6586 8.34138 14.0174 8.34138 11.9999Z" fill="#CDD1E1"/>
</svg>
