<svg width="16" height="16" viewBox="0 0 16 16" fill="none" xmlns="http://www.w3.org/2000/svg">
<path d="M6.05785 1.97784C5.82162 1.38726 5.24963 1 4.61355 1H2.47368C1.65979 1 1 1.65982 1 2.47371C1 9.39181 6.60838 15 13.5265 15C14.3404 15 15 14.3403 15 13.5264L14.9999 11.3865C14.9999 10.7504 14.6126 10.1784 14.022 9.94222L11.9722 9.12224C11.4417 8.91004 10.8377 9.00568 10.3988 9.37146L9.86906 9.81279C9.251 10.3278 8.34221 10.2867 7.77331 9.71776L6.28217 8.22673C5.71328 7.65783 5.67228 6.74897 6.18734 6.13091L6.62863 5.60131C6.99441 5.16238 7.09002 4.55828 6.87782 4.02778L6.05785 1.97784Z" stroke="#1F2972" stroke-width="1.5" stroke-linecap="round" stroke-linejoin="round"/>
</svg>
