<svg width="14" height="14" viewBox="0 0 14 14" fill="none" xmlns="http://www.w3.org/2000/svg">
<path d="M5.3353 1.83815C5.13282 1.33193 4.64254 1 4.09733 1H2.26316C1.56554 1 1 1.56556 1 2.26318C1 8.19298 5.80719 13 11.737 13C12.4346 13 13 12.4345 13 11.7369L12.9999 9.90268C12.9999 9.35748 12.6679 8.86724 12.1617 8.66476L10.4048 7.96192C9.95004 7.78003 9.43235 7.86201 9.05613 8.17554L8.60205 8.55382C8.07228 8.99529 7.29332 8.95999 6.8057 8.47236L5.52758 7.19434C5.03995 6.70671 5.00482 5.92769 5.44629 5.39792L5.82454 4.94398C6.13807 4.56775 6.22001 4.04995 6.03813 3.59524L5.3353 1.83815Z" stroke="white" stroke-width="1.5" stroke-linecap="round" stroke-linejoin="round"/>
</svg>
