<svg width="12" height="12" viewBox="0 0 12 12" fill="none" xmlns="http://www.w3.org/2000/svg">
<path d="M6 0.000244141C6.41421 0.000244141 6.75 0.336031 6.75 0.750244V5.25025H11.25C11.6642 5.25025 12 5.58603 12 6.00025C12 6.41446 11.6642 6.75025 11.25 6.75025H6.75V11.2502C6.75 11.6645 6.41421 12.0002 6 12.0002C5.58579 12.0002 5.25 11.6645 5.25 11.2502V6.75025H0.75C0.335786 6.75025 0 6.41446 0 6.00025C0 5.58603 0.335786 5.25025 0.75 5.25025H5.25V0.750244C5.25 0.336031 5.58579 0.000244141 6 0.000244141Z" fill="white"/>
</svg>
