<svg width="13" height="13" viewBox="0 0 13 13" fill="none" xmlns="http://www.w3.org/2000/svg">
<path d="M5.96375 11.396C6.29102 11.188 6.70898 11.188 7.03625 11.396L9.10104 12.7078C9.85248 13.1852 10.8062 12.5165 10.6136 11.6473L10.0303 9.0152C9.95278 8.66558 10.0682 8.30122 10.3328 8.05992L12.3226 6.24539C12.9652 5.65944 12.6053 4.58919 11.7392 4.51058L9.21602 4.28155C8.84245 4.24764 8.51927 4.00752 8.37899 3.65963L7.42743 1.29991C7.09085 0.465227 5.90915 0.465227 5.57257 1.29991L4.62101 3.65963C4.48073 4.00752 4.15755 4.24764 3.78398 4.28155L1.258 4.51083C0.392375 4.5894 0.0322068 5.65878 0.673921 6.24503L2.66118 8.06052C2.92498 8.30153 3.04015 8.66498 2.96328 9.01393L2.38243 11.6509C2.19105 12.5198 3.14435 13.1872 3.89527 12.7101L5.96375 11.396Z" fill="#FF9900"/>
</svg>
