<svg width="21" height="19" viewBox="0 0 21 19" fill="none" xmlns="http://www.w3.org/2000/svg">
<path d="M10.8844 0.397528C11.397 -0.132469 12.228 -0.132469 12.7406 0.397529L20.6156 8.54039C20.8617 8.7949 21 9.1401 21 9.50003C21 9.85997 20.8617 10.2052 20.6156 10.4597L12.7406 18.6025C12.228 19.1325 11.397 19.1325 10.8844 18.6025C10.3719 18.0725 10.3719 17.2132 10.8844 16.6832L16.5188 10.8572L1.3125 10.8572C0.587626 10.8572 0 10.2496 0 9.50003C0 8.7505 0.587626 8.14289 1.3125 8.14289L16.5188 8.14289L10.8844 2.31682C10.3719 1.78682 10.3719 0.927526 10.8844 0.397528Z" fill="#9C9C9C"/>
</svg>
