<svg width="90" height="90" viewBox="0 0 90 90" fill="none" xmlns="http://www.w3.org/2000/svg">
<circle cx="45" cy="45" r="45" fill="#F2F6FD"/>
<circle cx="45" cy="45" r="30" fill="#19317D"/>
<path d="M41.7863 53C41.6041 52.9994 41.424 52.9614 41.2572 52.8882C41.0904 52.8151 40.9404 52.7084 40.8165 52.5749L34.3601 45.7067C34.1188 45.4495 33.9895 45.1069 34.0007 44.7544C34.0119 44.4018 34.1627 44.0682 34.4199 43.8269C34.6771 43.5855 35.0196 43.4562 35.3722 43.4674C35.7247 43.4786 36.0583 43.6294 36.2997 43.8866L41.773 49.7187L52.9455 37.4967C53.0589 37.3555 53.1999 37.239 53.36 37.1543C53.52 37.0696 53.6957 37.0185 53.8762 37.0042C54.0567 36.9898 54.2383 37.0126 54.4097 37.0709C54.5811 37.1293 54.7387 37.2221 54.873 37.3437C55.0072 37.4652 55.1152 37.6129 55.1903 37.7777C55.2653 37.9425 55.3059 38.1209 55.3095 38.3019C55.3132 38.4829 55.2797 38.6628 55.2113 38.8305C55.1429 38.9981 55.0409 39.15 54.9117 39.2768L42.7694 52.5616C42.6467 52.6976 42.4972 52.8067 42.3303 52.8822C42.1634 52.9576 41.9827 52.9977 41.7996 53H41.7863Z" fill="white"/>
</svg>
