<svg width="27" height="32" fill="none" xmlns="http://www.w3.org/2000/svg"><path d="M3.059 5.062a1.43 1.43 0 1 0 0 2.86 1.43 1.43 0 0 0 0-2.86Zm0 1.988a.558.558 0 1 1 0-1.116.558.558 0 0 1 0 1.116Z" fill="#63727A"/><path d="M26.977 9.02a9.984 9.984 0 0 0-1.552-5.467 3.976 3.976 0 0 0-2.093-1.666h-.104A1.892 1.892 0 0 0 21.414.492H5.518a1.892 1.892 0 0 0-1.849 1.474 4.098 4.098 0 0 0-2.075 1.657 10.002 10.002 0 0 0-1.57 5.45 21.669 21.669 0 0 0 .288 4.69c.175 1.195.375 2.11.567 2.922a44.549 44.549 0 0 0 1.169 3.906 1.298 1.298 0 0 0 0 .183 1.831 1.831 0 1 0 2.45-1.744 21.158 21.158 0 0 1-.54-2.45 22.942 22.942 0 0 1-.123-5.938 1.901 1.901 0 0 0 1.683 1.046h2.354v.14h-.54v3.122h.54v.558H5.771v2.058h2.206v1.142H8.5V31.09h9.94V18.708h.515v-1.142h2.198v-2.058h-2.084v-.558h.54v-3.122h-.54v-.14h2.345a1.918 1.918 0 0 0 1.744-1.194 22.914 22.914 0 0 1-.122 6.034 21.111 21.111 0 0 1-.532 2.45 1.832 1.832 0 1 0 2.45 1.744v-.183c.445-1.282.872-2.616 1.169-3.907.13-.592.366-1.595.558-2.903a21.78 21.78 0 0 0 .296-4.709ZM3.887 19.815a.96.96 0 1 1 0 1.919.96.96 0 0 1 0-1.919Zm-.226-10.22-.532-.235-.079.576a24.084 24.084 0 0 0 .053 6.81 28.2 28.2 0 0 0 .47 2.232 1.744 1.744 0 0 0-.959.488 43.57 43.57 0 0 1-.872-2.99 33.63 33.63 0 0 1-.549-2.852 20.221 20.221 0 0 1-.297-4.543 9.077 9.077 0 0 1 1.44-4.988A3.218 3.218 0 0 1 3.93 2.794c.236-.062.48-.094.724-.096.113-.008.227-.008.34 0v6.706a1.43 1.43 0 0 1-.576.261 1.325 1.325 0 0 1-.758-.07Zm14.344 17.998h-.436v2.616H9.372v-2.616h-.366v-.654h.366v-.706h-.41v-.654h.41v-.671h-.384v-.654h.384v-.698h-.436v-.654h.436v-.645h-.436v-.654h.436v-2.738h8.197v2.712h.366v.654h-.366v.645h.366v.654h-.366v.697h.41v.68h-.41v.698h.383v.654h-.383v.706h.436v.628Zm.296-9.591h-9.67v-.428h9.705l-.035.427Zm2.198-1.814v.75H6.425v-.75h14.074Zm-1.544-3.68v1.814H7.985v-1.84l10.97.026Zm-10.21-.68v-.148h9.452v.148H8.744Zm9.452 3.122v.444H8.744v-.444h9.453Zm3.217-4.134H5.518a1.02 1.02 0 0 1-.75-.33c.364-.1.697-.289.968-.55l.13-.122V2.018l-.33-.087a4.028 4.028 0 0 0-.873-.096 1.02 1.02 0 0 1 .855-.47h15.896a1.003 1.003 0 0 1 .785.392c-.241.006-.48.038-.715.095l-.323.079v7.787l.122.122c.26.26.581.452.933.558a1.004 1.004 0 0 1-.802.418Zm1.744 10.84a.96.96 0 1 1 .355-.069.96.96 0 0 1-.372.068h.017Zm2.66-8.084a29.116 29.116 0 0 1-.55 2.843 33.175 33.175 0 0 1-.872 2.982 1.804 1.804 0 0 0-.968-.489c.196-.735.353-1.48.471-2.232.35-2.255.367-4.55.053-6.81l-.079-.576-.532.236a1.217 1.217 0 0 1-.724.096 1.395 1.395 0 0 1-.601-.27V2.628a2.546 2.546 0 0 1 1.029.087 3.104 3.104 0 0 1 1.64 1.264 9.112 9.112 0 0 1 1.42 5.014 20.87 20.87 0 0 1-.287 4.578Z" fill="#63727A"/><path d="M23.569 4.652a1.43 1.43 0 1 0 0 2.86 1.43 1.43 0 0 0 0-2.86Zm0 1.988a.558.558 0 1 1 0-1.116.558.558 0 0 1 0 1.116Zm-5.635 15.59v-.653H8.936v.654h8.998Zm0 1.291v-.654H8.936v.654h8.998Zm.044 1.352v-.654h-8.99v.654h8.991Zm-.025 1.36v-.654h-8.99v.654h8.99Zm-8.581.697h-.366v.655h8.999v-.654H9.372Z" fill="#63727A"/></svg>