<svg width="32" height="35" fill="none" xmlns="http://www.w3.org/2000/svg"><g clip-path="url(#a)"><path d="M31.95 17.085c-.527-7.006-5.673-11.22-7.282-12.401a17.562 17.562 0 0 0-9.17-3.303 3.52 3.52 0 0 0-.467-.8L14.9.47h-4.15a1.445 1.445 0 0 0-.816-.32C7.75-.07 7.431-.07 7.113.26a1.869 1.869 0 0 0-.427 1.001 5.856 5.856 0 0 0-.22 2.342c.11.32.22.75.319 1.08 0 .111.11.111.11.211l.218.22.427.43h.993a10.36 10.36 0 0 0 1.819-.22.67.67 0 0 0 .427-.1l.149-.22 3.884.08.09-.08c.099-.13.188-.26.278-.4a15.228 15.228 0 0 1 7.67 2.772 13.568 13.568 0 0 1 4.083 4.293 13.68 13.68 0 0 1 1.877 5.636 13.939 13.939 0 0 1-2.277 8.26 13.777 13.777 0 0 1-6.664 5.331c-5.375 2.132-13.293.861-15.975-4.313a10.073 10.073 0 0 1 .755-9.819c3.209-4.744 9.319-4.313 9.527-4.313.646 0 5.892.54 7.71 4.423.427.751 1.61 3.664.109 5.395a4.301 4.301 0 0 1-4.302 1.201 2.934 2.934 0 0 0-.407-.88l-.11-.11-4.172-.461a1.544 1.544 0 0 0-.745-.32c-2.146-.32-2.355-.43-2.782-.11-.292.276-.513.62-.646 1a8.526 8.526 0 0 0-.317 2.272c.021.365.091.725.208 1.071.06.06.098.137.11.22 0 .11 0 .11.109.21.163.135.343.246.536.33.636.126 1.28.196 1.928.211h.745c.15.016.3-.02.427-.1l.199-.2 3.874.41c.151-.124.29-.261.417-.41a7.527 7.527 0 0 0 4.012-.118 7.575 7.575 0 0 0 3.39-2.164c2.782-3.353 1.073-7.667.427-9.008-2.474-5.305-9-6.105-10.292-6.205-.696-.1-8.246-.54-12.419 5.715a13.446 13.446 0 0 0-.854 13.201c2.454 4.744 7.947 7.006 13.382 7.006 2.117.013 4.22-.353 6.21-1.081 6.894-2.732 11.563-9.738 11.027-16.864ZM14.494 4.464h-3.169c.21-.46.324-.956.338-1.462h.894a.538.538 0 0 0 .229.22c.197.117.418.188.645.21a.75.75 0 0 0 .636-.32.814.814 0 0 0 .219-.54c0-.22 0-.43-.219-.54a1.976 1.976 0 0 0-.745-.22.88.88 0 0 0-.705.44h-.994a3.552 3.552 0 0 0-.338-1.191.589.589 0 0 0-.06-.06h3.488c.079.107.149.221.209.34l-.08 2.662a2.121 2.121 0 0 1-.348.46Zm-4.172.33c0 .1-.11.1-.219.1a9.38 9.38 0 0 1-2.454.11c.467 0 .845-1 .835-2.272A3.13 3.13 0 0 0 7.878.58h.07A6.245 6.245 0 0 1 9.675.8c.194.02.38.092.536.21a1.6 1.6 0 0 1 .328.431c.117.28.2.572.249.87h-.785c-.219 0-.328.101-.328.321v.11c0 .11.218.21.328.21h.854a3.805 3.805 0 0 1-.318 1.472.341.341 0 0 1-.11.22.11.11 0 0 1-.108.15Zm-.219-2.162h2.384v.11h-2.483l.1-.11Zm2.812.54a.763.763 0 0 1-.209-.42v-.11c.06-.29.328-.55.517-.55.2.003.39.082.536.22.11 0 .219.21.219.32 0 .11 0 .32-.11.43a.826.826 0 0 1-.536.22c-.209 0-.338 0-.417-.11Zm-.994 23.19a9.419 9.419 0 0 1-2.464-.1l-.208-.24a.538.538 0 0 0 .337.25c.467 0 .944-.93 1.063-2.171a3.425 3.425 0 0 0-.317-2.122 7.4 7.4 0 0 1 1.808.32c.197.006.387.08.536.21a.57.57 0 0 1 .219.43c.092.303.145.616.159.931l-.805-.06c-.11-.11-.11 0-.219 0s-.099.1-.099.21v.22c0 .21.1.321.209.321l.884.08a3.368 3.368 0 0 1-.457 1.321c-.1 0-.1.11-.209.22-.109.11-.109.11-.218.11-.11 0-.11.07-.219.07Zm3.537-2.341a.611.611 0 0 1 .605.396.61.61 0 0 1 .04.254.603.603 0 0 1-.646.54.61.61 0 0 1-.459-.184.623.623 0 0 1-.176-.466c.015-.156.09-.3.209-.4a.593.593 0 0 1 .427-.14Zm-.934.42-2.384-.2v-.11l2.414.2-.03.11Zm-.944.24.994.08a1 1 0 0 0 .914.66c.536 0 .993-.32.864-.75a.866.866 0 0 0-.534-.798.85.85 0 0 0-.33-.063.77.77 0 0 0-.706.21l-1.122-.1a3.447 3.447 0 0 0-.199-1.19l3.646.34c.201.423.32.882.348 1.35l-.248 1.192a3.212 3.212 0 0 1-.636.91l-3.418-.34c.22-.485.363-1.002.427-1.531v.03Z" fill="#63727A"/></g><defs><clipPath id="a"><path fill="#fff" d="M0 0h32v35H0z"/></clipPath></defs></svg>