<svg width="41" height="28" fill="none" xmlns="http://www.w3.org/2000/svg"><g clip-path="url(#a)" fill="#63727A"><path d="M20.895 11.075a4.98 4.98 0 0 0-1.29-.93 5.878 5.878 0 0 0-.998-.356 2.988 2.988 0 0 0-1.644.068c-.312.08-.609.21-.879.385-.07.133-.17.164-.341.329a2.12 2.12 0 0 0-1.253.612c-.07.133-.272.196-.341.328a4.376 4.376 0 0 0-2.1 1.098l-.405.127a2.616 2.616 0 0 0-.784.688 2.744 2.744 0 0 0-.362 1.333L6.33 17.055a.106.106 0 0 0-.07.133l-2.2 1.13-.102.03-.95 2.295.032.101a9.01 9.01 0 0 0 .403 1.65A6.55 6.55 0 0 0 4.8 24.97c.48.529 1.065.951 1.718 1.24.502.203 1.03.338 1.568.4l.031.1a.106.106 0 0 0 .133.07l2.504-1.224.101-.031 4.34-2.462c.197.113.41.196.631.247l1.005.02.304-.095c.202-.063.474-.258.677-.321l.506-.158a4.64 4.64 0 0 0 1.701-1.307l.506-.158c.307-.116.593-.28.848-.486l.303-.094c.346-.09.676-.23.98-.417.465-.37.85-.83 1.133-1.352a4.016 4.016 0 0 0-.048-2.648 10.261 10.261 0 0 0-1.148-2.973 11.276 11.276 0 0 0-1.698-2.245ZM6.76 17.365l.53.279c.163.16.354.288.563.38.31.218.66.373 1.03.456L7.32 19.52l-2.56-1.09 1.999-1.066Zm4.389 5.181L9.353 23.55l-1.578-3.282 1.796-1.004c.214.604.47 1.192.77 1.758.29.576.55 1.05.808 1.524Zm-.92-2.599c.39.476.646 1.048.737 1.657-.094-.303-.258-.474-.353-.778-.095-.303-.29-.575-.385-.879Zm1.046 3.004.031.101-1.796 1.004-.031-.101 1.796-1.004Zm-3.594-2.987-.032-.101 1.53-1.143a.392.392 0 0 1 .197.272l-1.695.972Zm-4.306.787.912-2.06 3.058 1.267.064.202 1.672 3.586-.247.632-.248.632a5.066 5.066 0 0 0-.667-3.566c-.776-1.424-2.627-2.734-3.576-2.216a1.06 1.06 0 0 0-.519.828 4.79 4.79 0 0 0 .046 2.072 2.861 2.861 0 0 1-.495-1.377Zm1.186 2.738a5.797 5.797 0 0 1-.604-3.364 1.41 1.41 0 0 1 .45-.695l.1-.031c.911-.284 2.396.918 3.14 2.24a5.468 5.468 0 0 1 .636 3.465c-.007.335-.146.6-.348.664a.7.7 0 0 1-.772.018 5.298 5.298 0 0 1-2.602-2.297Zm2.166 2.322-.229-.129c.19.098.39.177.596.237.25.09.525.084.771-.019l.202-.063a.805.805 0 0 0 .342-.328l-.247.632a5.01 5.01 0 0 1-1.435-.33Zm3.8-.629-2.03.966.633-1.53 1.797-1.003a6.01 6.01 0 0 0-.4 1.567Zm.746-.454a4.42 4.42 0 0 0 .242-2.074 6.21 6.21 0 0 0-1.735-3.788 6.358 6.358 0 0 0-2.647-1.728L12.927 14c.337.013.667.1.966.254.536.168 1.017.48 1.39.899a4.97 4.97 0 0 1 1.27 1.935c.25.51.453 1.04.605 1.587.149.49.195 1.004.138 1.512-.003.367-.078.73-.222 1.068a1.06 1.06 0 0 1-.38.562l-5.42 2.91Zm6.628-2.953c-.14.265-.247.632-.418.796a1.97 1.97 0 0 1-.81.252 2.489 2.489 0 0 1-.871.05c-.133-.07-.234-.038-.367-.108l1.423-.776c.454-.53.715-1.199.741-1.896a3.74 3.74 0 0 0-.137-1.511 10.281 10.281 0 0 0-.637-1.689 6.018 6.018 0 0 0-1.402-2.005 3.688 3.688 0 0 0-1.523-.968 3.318 3.318 0 0 0-1.17-.191l-.1.032-1.898 1.035c.023-.308.121-.605.285-.866.158-.271.414-.47.715-.556a1.833 1.833 0 0 1 1.043-.214c.492.039.976.15 1.435.33a3.47 3.47 0 0 1 1.586 1.17 7.598 7.598 0 0 1 1.496 2.31c.4.99.651 2.034.743 3.098.054.572.009 1.15-.134 1.707Zm1.588-.606a3.18 3.18 0 0 1-1.228 1.049c.15-.178.236-.4.247-.632a4.67 4.67 0 0 0 .103-1.808 11.443 11.443 0 0 0-.775-3.2 6.433 6.433 0 0 0-1.629-2.378 6.464 6.464 0 0 0-1.718-1.24 3.741 3.741 0 0 0-1.568-.4c-.1.031-.1.031-.233-.039.33-.284.726-.483 1.15-.58.203-.08.422-.111.64-.088.311.097.612.226.897.386a7.302 7.302 0 0 1 1.522.969 8.202 8.202 0 0 1 2.255 2.96 8.15 8.15 0 0 1 .642 3.13 5.1 5.1 0 0 1-.305 1.871Zm1.656-.738c-.3.265-.66.454-1.05.55.127-.573.205-1.154.236-1.74a8.688 8.688 0 0 0-.674-3.23 9.876 9.876 0 0 0-2.418-3.132 7.997 7.997 0 0 0-1.554-1.07 4.48 4.48 0 0 0-.866-.284l.101-.032a4.503 4.503 0 0 1 1.05-.55 6.548 6.548 0 0 1 2.496.888 5.605 5.605 0 0 1 1.775 1.778 10.204 10.204 0 0 1 1.477 3.314c.298.855.315 1.783.048 2.649a1.653 1.653 0 0 1-.62.86Zm2.347-1.73a2.47 2.47 0 0 1-.962 1.188c-.196.16-.428.27-.676.321.07-.132.24-.297.278-.53a5.298 5.298 0 0 0-.01-2.883 8.73 8.73 0 0 0-1.508-3.415 6.887 6.887 0 0 0-1.806-1.88 6.092 6.092 0 0 0-2.395-.918l.07-.133c.232-.17.497-.29.777-.353a2.12 2.12 0 0 1 1.442-.005c.307.023.604.121.865.285.428.226.818.516 1.157.86a6.56 6.56 0 0 1 1.566 2.177c.459.882.822 1.81 1.085 2.77.298.806.34 1.685.117 2.516Z"/><path d="m7.74 25.495.1-.031c.747-.455.413-2.238-.136-3.287a5.044 5.044 0 0 0-2.4-2.36.773.773 0 0 0-.67-.014.7.7 0 0 0-.38.562 4.589 4.589 0 0 0 2.916 5.086c.186.045.378.06.57.044Zm-2.907-2.202a4.832 4.832 0 0 1-.446-2.858c-.03.939.22 1.865.718 2.662.745 1.322 2.097 2.455 2.672 2.165-.172.06-.356.08-.537.056a4.822 4.822 0 0 1-2.407-2.025ZM37.22 8.397l-.131.04-.035-.11-2.288 1.312L34.678 9l2.268-1.306-.07-.222.253-.079.044.142a3.783 3.783 0 0 0-.39-2.32 6.074 6.074 0 0 0-.846-1.291 1.908 1.908 0 0 0-.688-.785l-.025-.08a5.235 5.235 0 0 0-2.591-1.191l-.06.018-3.119 1.749-.101.031-.418.797-.848.486-.544.391a.392.392 0 0 0-.272.196l-.066.143.101-.032a.106.106 0 0 1 .133.07l.101-.032c.921.076 1.8.42 2.528.989a4.345 4.345 0 0 1 1.36 2.229c.119.397.19.807.214 1.22a5.395 5.395 0 0 0-1.154-2.814 5.299 5.299 0 0 0-2.819-1.564.106.106 0 0 1-.132-.07c-.101.032-.203.063-.171.164.032.102.063.203.164.171a.106.106 0 0 1 .133.07 4.78 4.78 0 0 1 2.685 1.494 5.605 5.605 0 0 1 1.038 4.294l-.202.063a.106.106 0 0 1-.07.133c.226.118.275.203.13.204l-.084.048c-.102.032-.165-.17-.165-.17l-.1.03c.076-.467.082-.802.159-1.27.076-.467-.088-.638-.113-1.074l-.19-.607a6.187 6.187 0 0 0-.972-1.696 4.98 4.98 0 0 0-2.35-1.487.106.106 0 0 1-.133-.07c-.1.032-.117-.019-.139-.09-.022-.07 0 0 0 0s-.202.063-.17.164c.031.102-.171.165-.241.297l-3.08 1.515-.202.063c-1.05.549-1.083 2.224-.314 3.982l.073-.089a.69.69 0 0 0 .176.567c.133.07.164.17.265.14a.573.573 0 0 0 .5.177l.202-.063c.164.17.36.442.524.613.267.232.555.44.86.62a1.06 1.06 0 0 0 1.036.122c.202-.063.272-.196.443-.36a1.303 1.303 0 0 0 .19-1.17 6.408 6.408 0 0 0-.598-1.922 3.486 3.486 0 0 0-1.213-1.398 2.12 2.12 0 0 0-1.194-.627 1.346 1.346 0 0 0-.639.088c-.575.29-.665 1.428-.154 2.712-.1.031-.1.031-.17.164a.222.222 0 0 0-.102.031c-.554-1.458-.55-2.87.218-3.22a1.664 1.664 0 0 1 1.606.166 4.77 4.77 0 0 1 1.705 1.91c.94 1.595.939 3.371.091 3.857a1.663 1.663 0 0 1-1.576-.108 4.24 4.24 0 0 1-1.314-1.367.636.636 0 0 1-.436.025 4.61 4.61 0 0 0 1.61 1.607 1.982 1.982 0 0 0 1.669.368l.303-.094c.203-.063.272-.196.443-.36l2.543-1.458.436-.025.506-.158a.53.53 0 0 0 .607-.189l.405-.126 1.138.09.1-.032 3.05-1.616a.106.106 0 0 0 .07-.132l.911-2.06-.126-.405.05.162-.138.054Zm-7.178 2.825c.008.35-.033.698-.121 1.036l-1.936 1.27a4.547 4.547 0 0 0-.635-3.466 5.807 5.807 0 0 0-1.838-1.98 1.981 1.981 0 0 0-.898-.386l2.201-1.13c.446.166.88.365 1.296.595a4.642 4.642 0 0 1 1.307 1.702c.279.537.46 1.12.536 1.72.063.202.025.436.088.639Zm.681 1.12-.233-.039a8.83 8.83 0 0 0-.068-1.644 5.764 5.764 0 0 0-.568-1.82 5.297 5.297 0 0 0-1.44-1.772 6.853 6.853 0 0 0-1.093-.659 5.5 5.5 0 0 1 2.32 1.387c.367.497.682 1.031.94 1.594l.189.607c.078.318.106.647.081.973.006.46-.036.92-.127 1.372Zm.94-1.936s-.007.013 0 0Zm4.895-4.988c.279.537.46 1.12.536 1.72l-2.644 1.49-1.217-2.84 2.644-1.49c.311.314.545.698.681 1.12Zm-.877-1.392-2.644 1.49-.594-.481 2.612-1.591c.255.138.47.338.626.582Zm-2.983-1.735c.79.08 1.54.386 2.162.88l-2.714 1.623-2.193-.982 2.745-1.52Zm-2.26 4.145a4.917 4.917 0 0 0-2.326-1.051l.203-.063a2.885 2.885 0 0 1 1.497.532 5.976 5.976 0 0 1 1.744 1.677c.398.706.642 1.49.715 2.297a3.044 3.044 0 0 0-.315-1.012 5.13 5.13 0 0 0-1.518-2.38Zm1.808 3.666c.04.131.021.282.022.426 0 .144-.007.335-.077.468.044-.296.062-.595.055-.894Zm.357.433a5.764 5.764 0 0 0-.674-3.231 5.055 5.055 0 0 0-1.907-1.848 4.154 4.154 0 0 0-1.264-.494l.474-.259c.963.238 1.844.73 2.553 1.425a4.101 4.101 0 0 1 1.262 2.27c.219.66.285 1.36.194 2.049a2.213 2.213 0 0 1-.215.733l-.576.29c.074-.307.125-.62.153-.935Zm.245 1.144.342-.328a3.73 3.73 0 0 0 .254-.967 4.821 4.821 0 0 0-.125-2.181 5.744 5.744 0 0 0-1.395-2.34 5.51 5.51 0 0 0-2.553-1.425l.21-.398 2.457 1.12.758.653 1.281 3.041.214 1.044-.209.398-.665 1.428-.569-.045Zm3.618-1.57-2.473 1.325.766-1.46L37.13 8.68l-.665 1.428Z"/><path d="M27.134 5.801a.233.233 0 0 0 .025.081.307.307 0 0 1 .037-.2c-.088.038-.081.059-.062.12Zm10.064 1.771-.004-.01-.023-.148-.263.048.04.232.117.63.019.094.137-.021.125-.028-.03-.168-.118-.629Z"/></g><defs><clipPath id="a"><path fill="#fff" transform="rotate(-17.304 39.442 5.338)" d="M0 0h37.048v16.532H0z"/></clipPath></defs></svg>