<svg width="34" height="36" fill="none" xmlns="http://www.w3.org/2000/svg"><path d="M32.548 24.02a3.34 3.34 0 0 0-2.08-.86.582.582 0 0 0-.05-.14 1.54 1.54 0 0 0-.54-.62c.06-.43.11-.85.15-1.28.16-1.927.04-3.867-.36-5.76a19.19 19.19 0 0 0-3.05-6.9 19.65 19.65 0 0 0-5.25-5.44 16.83 16.83 0 0 0-5.47-2.6 11 11 0 0 0-3.69-.4 9 9 0 0 0-3 .75c-.35.16-.82.4-1.41.71l-1.43.75c-1 .58-2.16 1.25-3.34 1.96v.06a6.54 6.54 0 0 0-.85.77 7.83 7.83 0 0 0-1.61 2.91 11 11 0 0 0-.54 2.92 18 18 0 0 0 .18 3.73 22.06 22.06 0 0 0 1.13 4.58 22.078 22.078 0 0 0 2.76 4.86 27.997 27.997 0 0 0 2.86 3.5 20.588 20.588 0 0 0 3.41 2.83 17.067 17.067 0 0 0 4.23 2c.985.367 2.02.583 3.07.64h.78c.34 0 .67-.1 1-.17a1 1 0 0 0 0 .6 1.21 1.21 0 0 0 1.31.69h.44c.237.004.472.038.7.1.143.035.281.089.41.16.11 0 .26.12.5.21.377.15.765.27 1.16.36.33.062.664.099 1 .11h.14c3.82-3.22 6.61-5.58 6.76-5.72a1.06 1.06 0 0 0 .16-.21l.15-.21c.09-.125.174-.255.25-.39.086-.141.157-.292.21-.45.3-.08.566-.256.76-.5.71-.99.09-2.73-.85-3.55Zm-2.76-1c.059.073.112.15.16.23l-.21.06a.61.61 0 0 1 .05-.29ZM8.118 2.18c.59-.3 1-.54 1.38-.69a8.37 8.37 0 0 1 2.78-.7 10 10 0 0 1 3.44.36 15.89 15.89 0 0 1 5.18 2.44 19.14 19.14 0 0 1 5.13 5.32 18.44 18.44 0 0 1 2.94 6.64 19.42 19.42 0 0 1 .34 5.54 18.445 18.445 0 0 1-.4 2.65l-2 1.63a1.24 1.24 0 0 0-.86-.58 1.18 1.18 0 0 0-.91.39c.04-.28.07-.56.09-.84a19.61 19.61 0 0 0-.83-7.54 20.41 20.41 0 0 0-4.66-7.78 20.76 20.76 0 0 0-5.32-4.24 12.17 12.17 0 0 0-4.83-1.84c-.458-.059-.919-.09-1.38-.09a8.23 8.23 0 0 0-1.31.08h-.16l1.38-.75Zm-1 1.48a10.17 10.17 0 0 1 2.34 0 11.76 11.76 0 0 1 4.57 1.72 20.32 20.32 0 0 1 5.13 4.1 19.53 19.53 0 0 1 4.47 7.54 19.168 19.168 0 0 1 .81 7.26 20.99 20.99 0 0 1-.33 2.22c-.49.69-1 1.34-1.62 2l-.28.33a17.34 17.34 0 0 1-1.75-.2 15.282 15.282 0 0 1-3.1-.9 16.847 16.847 0 0 1-3.92-2.42 20.397 20.397 0 0 1-3.68-3.63 19.998 19.998 0 0 1-2.46-4.25 24.48 24.48 0 0 1-1.27-3.53 14.51 14.51 0 0 1-.66-3.88 12.87 12.87 0 0 1 .47-3.33 13.52 13.52 0 0 1 1.29-3.03h-.01Zm12.78 28.19a7.358 7.358 0 0 1-1.48.32 8.68 8.68 0 0 1-3.64-.51 17 17 0 0 1-4.05-1.94 20.338 20.338 0 0 1-3.2-2.7 29.12 29.12 0 0 1-2.78-3.39 21.998 21.998 0 0 1-2.64-4.71 21.16 21.16 0 0 1-1.08-4.44 17.19 17.19 0 0 1-.17-3.58c.03-.926.188-1.845.47-2.73a7.11 7.11 0 0 1 1.4-2.64 6.07 6.07 0 0 1 3.5-1.79 13.58 13.58 0 0 0-1.59 6.28 15.17 15.17 0 0 0 .73 4.11 23.306 23.306 0 0 0 1.3 3.62 19.9 19.9 0 0 0 6.36 8.13 16.94 16.94 0 0 0 4.1 2.52c1.047.43 2.136.75 3.25.95.42.07.85.13 1.28.17-.632.742-1.22 1.52-1.76 2.33Zm4.95 2.36c-.26 0-.5 0-.74-.09a8.939 8.939 0 0 1-1-.32l-.45-.2a1.82 1.82 0 0 0-.55-.2 2.803 2.803 0 0 0-.86-.13h-.54a.48.48 0 0 1-.29 0 .47.47 0 0 1-.24-.22 1 1 0 0 1 .19-.58 30.363 30.363 0 0 1 2.66-3.45 23.775 23.775 0 0 0 2.08-2.63c.34-.53.6-.79.78-.77.18.02.31.22.4.41a.91.91 0 0 1 .06.61 2.77 2.77 0 0 0 .76 2.29 3.84 3.84 0 0 0 2.24 1l.48.08-4.98 4.2Zm6.5-5.42a3.08 3.08 0 0 1-1 .7l-.43-.09c-.28-.07-.55-.14-.82-.23a3.13 3.13 0 0 1-1.34-.86 2.51 2.51 0 0 1-.57-1 2.8 2.8 0 0 1-.08-.64c.005-.185.032-.37.08-.55l1.49-1.2a4.13 4.13 0 0 0 1.25 2.31c.4.36.88.621 1.4.76.181.04.365.07.55.09-.144.26-.323.499-.53.71Zm1.49-1.77c-.46.55-1.59.38-2.47-.36-.88-.74-1.24-1.84-.77-2.38.47-.54 1.59-.38 2.47.36.88.74 1.23 1.81.77 2.38Z" fill="#63727A"/><path d="M20.148 7.02c-.33.29-.34.5-.29.61.05.11.17.22.49.22h.15a3.83 3.83 0 0 0 1-.29c.69-.29 1.37-.78 1.21-1.16-.05-.11-.21-.25-.65-.2a3.25 3.25 0 0 0-1 .28 3.831 3.831 0 0 0-.91.54Zm2-.59h.15c.16 0 .25 0 .26.06.01.06-.28.49-1.08.84a3.78 3.78 0 0 1-1 .26h-.45s0-.16.23-.33a3 3 0 0 1 .85-.51 3.41 3.41 0 0 1 1.02-.3l.02-.02Zm-3.31.2c.03.061.08.11.14.14a1 1 0 0 0 .35 0 3.22 3.22 0 0 0 1.19-.26 2.53 2.53 0 0 0 1.21-1 .23.23 0 0 0 0-.2c-.19-.36-1.47.18-1.62.24-.15.06-1.4.7-1.27 1.08Zm2.66-1.11a2.5 2.5 0 0 1-1.08.81 2.52 2.52 0 0 1-1.33.22 3.43 3.43 0 0 1 1.12-.69 3.43 3.43 0 0 1 1.29-.34Zm-3.83.19a.29.29 0 0 0 .14.13 1 1 0 0 0 .35.06 3.33 3.33 0 0 0 1.21-.27 2.53 2.53 0 0 0 1.21-1 .21.21 0 0 0 0-.19c-.19-.37-1.47.17-1.62.24-.15.07-1.42.65-1.29 1.03Zm2.7-1.12a2.49 2.49 0 0 1-1.07.82 2.51 2.51 0 0 1-1.33.21 3.32 3.32 0 0 1 1.06-.6 3.31 3.31 0 0 1 1.34-.43Zm-3.811.301c.03.06.08.11.14.14.126.04.258.06.39.06a2.9 2.9 0 0 0 1.16-.27 2.33 2.33 0 0 0 1.12-1.09.23.23 0 0 0 0-.2c-.15-.2-.53 0-1.61.51s-1.26.63-1.2.85Zm2.59-1.19a2.3 2.3 0 0 1-1 .9 2.39 2.39 0 0 1-1.29.22 8.21 8.21 0 0 1 1-.56c.415-.22.846-.407 1.29-.56Zm-3.78.5a.24.24 0 0 0 .13.13c.128.048.264.072.4.07a3.08 3.08 0 0 0 1.13-.27 2.38 2.38 0 0 0 1.17-1.11.21.21 0 0 0 0-.19c-.14-.2-.52 0-1.6.5s-1.3.69-1.23.87Zm2.57-1.18a2.22 2.22 0 0 1-1 .89 2.32 2.32 0 0 1-1.3.22c.32-.21.654-.397 1-.56.419-.216.854-.4 1.3-.55Zm-3.709.569a.178.178 0 0 0 .1.11h.27a3.4 3.4 0 0 0 1.33-.34 2.47 2.47 0 0 0 1.14-1 .14.14 0 0 0 0-.15c-.09-.12-.1-.11-1 .31l-1.04.5c-.82.42-.84.43-.8.57Zm2-.83.5-.24a3.13 3.13 0 0 1-.87.66 3.45 3.45 0 0 1-1.14.31l.45-.22 1.06-.51Zm-3.15.261a.199.199 0 0 0 .11.11c.07.01.14.01.21 0a3.28 3.28 0 0 0 1.37-.39 2.45 2.45 0 0 0 1.1-1.06.12.12 0 0 0 0-.14c-.09-.13-.11-.12-.95.33l-1 .55c-.89.49-.89.5-.84.6Zm1.95-.86.5-.26a2.87 2.87 0 0 1-.85.69 3.33 3.33 0 0 1-1.15.43l.43-.24 1.07-.62Zm-2.46.109c-.3.16-.4.21-.36.35a.22.22 0 0 0 .1.09.48.48 0 0 0 .17 0 2.89 2.89 0 0 0 1.22-.37 2.3 2.3 0 0 0 1-1 .17.17 0 0 0 0-.14c-.1-.1-.2 0-.51.16s-.5.33-.95.58l-.67.33Zm1.69-.69a2.388 2.388 0 0 1-.69.57 2.809 2.809 0 0 1-.81.3c.15-.07.33-.17.56-.3.43-.24.71-.44.94-.57Zm-3.18.83v.07h.06a.29.29 0 0 0 .13 0 2.93 2.93 0 0 0 1.13-.35 2.15 2.15 0 0 0 1-.89v-.08c-.09-.1-.19 0-.47.14-.28.14-.46.29-.87.52l-.57.31c-.35.1-.46.15-.41.28Zm1-.41.7-.42a2.645 2.645 0 0 1-.41.41c-.174.1-.359.181-.55.24l.26-.23Zm-1.99.25a2.48 2.48 0 0 0 1-.3 2 2 0 0 0 .79-.77c-.09-.09-.17 0-.41.12-.24.12-.39.24-.73.43l-.48.26c-.23.12-.32.17-.28.29h.11v-.03Zm11.64 7.771c.07.16.25.22.49.22.399-.04.788-.149 1.15-.32a4 4 0 0 0 1-.55c.33-.29.34-.5.29-.62-.05-.12-.2-.25-.64-.2a3.25 3.25 0 0 0-1 .28c-.77.27-1.44.76-1.29 1.19Zm2.3-1.26c.26 0 .38 0 .39.06.01.06 0 .16-.22.33a3.55 3.55 0 0 1-.86.51c-.8.34-1.31.3-1.35.21-.04-.09.25-.46 1.04-.85a3.19 3.19 0 0 1 1-.26Zm-1.411 2.409c.07.16.25.22.49.22a3.48 3.48 0 0 0 1.19-.3 3.72 3.72 0 0 0 .91-.54c.34-.3.35-.5.3-.62-.16-.37-1-.22-1.68.08-.68.3-1.37.79-1.21 1.16Zm2.66-1.15s0 .16-.23.33a3.587 3.587 0 0 1-.85.5c-.8.35-1.31.31-1.35.22-.04-.09.28-.49 1.08-.84a2.25 2.25 0 0 1 1.35-.21Zm-1.909 2.39c.07.15.25.22.49.22a3.48 3.48 0 0 0 1.19-.3 4.08 4.08 0 0 0 .92-.55c.33-.29.34-.49.29-.61-.16-.37-1-.22-1.68.08-.68.3-1.33.77-1.21 1.16Zm2.66-1.14s0 .15-.23.32a3.31 3.31 0 0 1-.85.51c-.8.34-1.31.3-1.35.21-.04-.09.28-.49 1.08-.83.8-.34 1.35-.31 1.35-.21Zm-.78 1.291c-.334.134-.644.32-.92.55-.33.29-.34.49-.29.61.05.12.17.21.49.21h.16c.345-.05.681-.148 1-.29.33-.142.639-.327.92-.55.33-.29.34-.49.29-.61-.05-.12-.21-.25-.65-.21-.347.043-.684.14-1 .29Zm1.19 0c.17 0 .25 0 .26.07.01.07 0 .15-.23.32-.26.206-.546.377-.85.51-.318.14-.655.23-1 .27-.25 0-.37 0-.39-.06-.02-.06 0-.16.23-.33a3.799 3.799 0 0 1 1.81-.77l.17-.01Zm-1.76 2.459c0 .1.17.22.49.22h.2a3.89 3.89 0 0 0 1.91-.83c.34-.29.35-.49.3-.61-.05-.12-.21-.25-.65-.21a3.13 3.13 0 0 0-1 .27c-.73.33-1.41.82-1.25 1.16Zm2.35-1.19c.21 0 .38 0 .38.08 0 0 0 .15-.23.32a3.857 3.857 0 0 1-1.81.78c-.26 0-.38 0-.39-.06-.01-.06.28-.49 1.08-.83a3 3 0 0 1 .97-.29Zm-.659 1.451c-.334.134-.644.32-.92.55-.34.29-.34.49-.29.61.05.12.16.22.48.22h.16a3.83 3.83 0 0 0 1-.29 3.41 3.41 0 0 0 .92-.55c.34-.29.34-.49.29-.61-.05-.12-.18-.19-.64-.19a3.563 3.563 0 0 0-1 .26Zm1.43 0a.47.47 0 0 1-.22.33c-.26.21-.55.379-.86.5a3.362 3.362 0 0 1-1 .27c-.26 0-.38 0-.39-.06-.01-.06 0-.15.22-.32.256-.217.547-.39.86-.51.3-.14.62-.23.95-.27h.14c.21.02.29.05.3.08v-.02Zm-1.991 1.9c-.33.29-.34.49-.29.61.05.12.16.22.48.22h.16c.345-.05.682-.148 1-.29a3.42 3.42 0 0 0 .92-.55c.34-.29.35-.49.29-.61s-.17-.26-.61-.22a4.058 4.058 0 0 0-1.95.84Zm2.11-.59c.16 0 .24 0 .26.06.02.06 0 .15-.23.32-.26.21-.55.381-.86.51-.303.13-.623.221-.95.27-.26 0-.38 0-.39-.06-.01-.06 0-.16.22-.32.256-.217.547-.39.86-.51.297-.149.62-.24.95-.27h.14Zm-.891 1.509c-.333.135-.644.32-.92.55-.33.29-.34.49-.29.61.05.12.17.22.49.22h.1c.345-.05.682-.148 1-.29.332-.137.642-.322.92-.55.33-.29.34-.49.29-.61-.05-.12-.15-.26-.59-.22a3.293 3.293 0 0 0-1 .29Zm1.16 0h.22s0 .16-.23.33c-.24.221-.514.403-.81.54a3.362 3.362 0 0 1-1 .27c-.25 0-.37 0-.39-.06-.02-.06 0-.15.23-.32a3.68 3.68 0 0 1 1.82-.76h.16Zm-7.309-9.399c.07.16.25.22.49.22a3.42 3.42 0 0 0 1.18-.3c.7-.3 1.38-.79 1.22-1.16 0-.12-.21-.25-.65-.21a3.94 3.94 0 0 0-1 .29c-.75.3-1.4.79-1.24 1.16Zm2.26-1.2c.26 0 .38 0 .4.06.02.06-.28.49-1.08.83-.8.34-1.31.31-1.35.21-.04-.1.28-.48 1.08-.83.3-.14.621-.23.95-.27ZM6.198 19.66c.21-.28.26-.5.16-.64s-.33-.15-.66 0a3.148 3.148 0 0 0-.92.53 3.371 3.371 0 0 0-.77.74c-.22.28-.27.49-.17.64.073.071.17.11.27.11.134-.008.266-.038.39-.09a4.39 4.39 0 0 0 .93-.53c.288-.219.547-.474.77-.76Zm-2.17 1.1a2.1 2.1 0 0 1 .89-1c.68-.48 1.17-.62 1.23-.56.06.06-.21.52-.88 1s-1.17.62-1.24.56Z" fill="#63727A"/><path d="m6.088 21.4.54-.38c.51-.35.6-.41.55-.56a.26.26 0 0 0-.15-.19 2.052 2.052 0 0 0-2.42 1.65.2.2 0 0 1 0 .07.3.3 0 0 0 .08.23.2.2 0 0 0 .11 0c.11 0 .26-.1.63-.37l.66-.45Zm-1.24.62a1.74 1.74 0 0 1 .73-1.11 2 2 0 0 1 1.12-.36h.2l-.41.3-.54.38-.68.48-.42.31Z" fill="#63727A"/><path d="M7.827 21.281a.3.3 0 0 0-.22-.14 2.07 2.07 0 0 0-2.24 1.88.33.33 0 0 0 .1.24.34.34 0 0 0 .14.05c.23 0 .59-.31 1.25-.86s1.09-.93.97-1.17Zm-2.2 1.74a1.71 1.71 0 0 1 .64-1.21 1.87 1.87 0 0 1 1.16-.45h.17a5.464 5.464 0 0 1-.89.84 5.78 5.78 0 0 1-1.08.82Zm2.742-.701a.22.22 0 0 0-.18-.1 2.14 2.14 0 0 0-1.32.57 2.27 2.27 0 0 0-.73 1.23.28.28 0 0 0 .07.19c.043.04.1.062.16.06.43 0 1.29-.76 1.3-.77.43-.48.9-.94.7-1.18Zm-2 1.7a2.11 2.11 0 0 1 .66-1 2.16 2.16 0 0 1 1.09-.51 3.11 3.11 0 0 1-.68.77 3.4 3.4 0 0 1-1.07.74Zm2.749-.649a.23.23 0 0 0-.17-.1c-.49.04-.954.24-1.32.57a2.08 2.08 0 0 0-.77 1.18.2.2 0 0 0 .17.24c.43 0 1.29-.76 1.3-.77.48-.38.95-.88.79-1.12Zm-2.01 1.65a2 2 0 0 1 .68-1 2.16 2.16 0 0 1 1.09-.51 3.16 3.16 0 0 1-.68.78 3.37 3.37 0 0 1-1.09.73Zm2.8-.561a.26.26 0 0 0-.2-.1 1.87 1.87 0 0 0-1.16.45 1.75 1.75 0 0 0-.63 1 .27.27 0 0 0 .11.21.3.3 0 0 0 .18.06c.4 0 1.13-.62 1.13-.63.26-.25.74-.74.57-.99Zm-1.75 1.4a1.58 1.58 0 0 1 .55-.84 1.5 1.5 0 0 1 1-.39 2.42 2.42 0 0 1-.57.67 2.65 2.65 0 0 1-.98.56Zm2.64-.499a.249.249 0 0 0-.21-.11 1.73 1.73 0 0 0-1.66 1.35.38.38 0 0 0 .1.22.29.29 0 0 0 .18.07c.39 0 1-.57 1.06-.58.26-.29.76-.71.53-.95Zm-1.62 1.28a1.32 1.32 0 0 1 .49-.8 1.37 1.37 0 0 1 .92-.35c-.115.25-.29.466-.51.63a2.2 2.2 0 0 1-.9.52Zm2.43-.371a.16.16 0 0 0-.14-.08 1.57 1.57 0 0 0-1 .43 1.67 1.67 0 0 0-.59.88.18.18 0 0 0 .15.2c.32 0 .91-.51 1-.58.74-.62.62-.79.58-.85Zm-1.47 1.18c.11-.248.279-.468.49-.64a1.59 1.59 0 0 1 .73-.37 3 3 0 0 1-.47.55 3.21 3.21 0 0 1-.75.46Zm2.589-.609a.24.24 0 0 0-.15-.09 1.91 1.91 0 0 0-1.55 1.32.33.33 0 0 0 0 .16.34.34 0 0 0 .14.05c.32 0 .91-.51 1-.58.71-.63.59-.8.56-.86Zm-1.48 1.18a1.85 1.85 0 0 1 1.22-1 2.71 2.71 0 0 1-.47.49 3.3 3.3 0 0 1-.75.51Zm2.391-.571a.12.12 0 0 0-.12-.07 1.87 1.87 0 0 0-1 .5c-.3.25-.64.66-.64.85a.13.13 0 0 0 0 .12.17.17 0 0 0 .1 0c.22 0 .63-.33 1-.62.77-.59.7-.71.66-.78Zm-1.35 1.08c.125-.169.27-.323.43-.46a2.14 2.14 0 0 1 .54-.36l-.38.37a5.385 5.385 0 0 1-.59.45Zm2.29-.34a.12.12 0 0 0-.11-.08 2.06 2.06 0 0 0-1.15.59 1.56 1.56 0 0 0-.5.75v.07a.17.17 0 0 0 .1 0c.1 0 .29-.14.81-.57.87-.58.94-.63.85-.76Zm-1.3.92c.066-.083.14-.16.22-.23a2.3 2.3 0 0 1 .55-.39l-.42.35-.35.27Zm2.09-.46a2 2 0 0 0-1.14.58 1.63 1.63 0 0 0-.5.75v.04a.17.17 0 0 0 .1 0c.11 0 .29-.15.82-.58.81-.65.88-.71.8-.84a.11.11 0 0 0-.08.05Zm-.84.72-.34.28.21-.24c.16-.158.346-.287.55-.38l-.42.34Zm-8.88-11.35a.18.18 0 0 0-.15-.08 2.41 2.41 0 0 0-1.31.68 2.2 2.2 0 0 0-.69 1.09.17.17 0 0 0 .14.19c.14 0 .41-.12 1-.66.59-.54 1.17-1.07 1.01-1.22Zm-1.89 1.53a2.62 2.62 0 0 1 1.61-1.43c-.247.33-.529.632-.84.9a4.385 4.385 0 0 1-.77.53Zm1.369-2.84a.18.18 0 0 0-.1-.08 2.38 2.38 0 0 0-1.31.68 2.07 2.07 0 0 0-.69 1.09c0 .057.022.11.06.15h.11c.14 0 .42-.11 1.06-.65.64-.54 1.04-.88.87-1.19Zm-1.88 1.61a2.46 2.46 0 0 1 .59-.83c.286-.27.627-.474 1-.6a5.554 5.554 0 0 1-.83.85c-.235.216-.49.41-.76.58Zm1.51-2.739a.179.179 0 0 0-.15-.08 2.35 2.35 0 0 0-1.3.68 2.15 2.15 0 0 0-.7 1.09c0 .056.022.11.06.15a.18.18 0 0 0 .12.05c.13 0 .41-.12 1-.66.59-.54 1.14-1 .97-1.23Zm-1.88 1.61c.137-.317.342-.6.6-.83a2.57 2.57 0 0 1 1-.6 5.61 5.61 0 0 1-.83.86c-.24.212-.497.403-.77.57Zm1.492-2.89a.15.15 0 0 0-.14-.07 2.49 2.49 0 0 0-1.29.7 2.31 2.31 0 0 0-.69 1.09.24.24 0 0 0 0 .14l.07.06c.13 0 .4-.12 1-.68s1.2-1.07 1.05-1.24Zm-1.83 1.59a2.67 2.67 0 0 1 .6-.77 2.75 2.75 0 0 1 1-.62c-.25.295-.525.57-.82.82-.25.204-.51.394-.78.57Zm1.618-2.651a.15.15 0 0 0-.13-.07 2.52 2.52 0 0 0-1.27.64c-.36.3-.77.78-.77 1a.13.13 0 0 0 0 .12.16.16 0 0 0 .11.05c.12 0 .38-.11 1-.62 1.21-.88 1.1-1.05 1.06-1.12Zm-1.79 1.39c.162-.224.35-.43.56-.61.27-.216.565-.398.88-.54a6.16 6.16 0 0 1-.78.69 8.026 8.026 0 0 1-.66.46Zm1.58-2.549a.13.13 0 0 0-.11-.06 2.81 2.81 0 0 0-1.26.67c-.32.27-.79.76-.79 1v.08h.1c.11 0 .36-.12 1-.63 1.19-.84 1.14-.99 1.06-1.06Zm-1.75 1.32a4.59 4.59 0 0 1 .54-.54c.24-.203.506-.375.79-.51-.232.22-.476.427-.73.62a6.506 6.506 0 0 1-.6.43Zm-.299-.911c.12 0 .37-.11 1-.59 1.15-.84 1.07-1 1-1.06a.12.12 0 0 0-.11-.08 2.75 2.75 0 0 0-1.28.63c-.33.25-.82.73-.83.93v.08a.1.1 0 0 0 .11.1l.11-.01Zm.84-.91c.246-.197.518-.358.81-.48-.19.16-.47.39-.75.59-.28.2-.4.28-.62.41a4 4 0 0 1 .56-.52Zm1.089-1.76a.15.15 0 0 0-.11-.08 2.77 2.77 0 0 0-1.29.62c-.32.26-.81.74-.82.94v.08a.19.19 0 0 0 .1.05c.12 0 .37-.12 1-.6 1.24-.81 1.16-.94 1.12-1.01Zm-1.8 1.26c.17-.19.357-.365.56-.52.236-.196.498-.358.78-.48-.19.16-.47.39-.75.59a6.075 6.075 0 0 1-.59.41Zm.931-1.33c1.22-.73 1.16-.84 1.13-.93v-.06a2.56 2.56 0 0 0-1.32.48c-.36.21-.88.63-.92.83v.08a.22.22 0 0 0 .05.08 3.39 3.39 0 0 0 1.06-.48Zm-.16-.32a3.73 3.73 0 0 1 .81-.41c-.2.14-.49.32-.77.48-.28.16-.45.25-.62.33a3.35 3.35 0 0 1 .58-.4Zm-.701-.23a.73.73 0 0 0 .32-.18c.16-.1.4-.25.73-.43a6.8 6.8 0 0 1 1-.42c.24-.08.29-.12.22-.22v-.04a2.22 2.22 0 0 0-1.4.3 2.18 2.18 0 0 0-.94.81v.08a.11.11 0 0 0 .07.1Zm.93-.82c.147-.077.301-.14.46-.19l-.46.22-.3.16.3-.19Zm-.368-.36a6.33 6.33 0 0 1 .71-.48 7.86 7.86 0 0 1 1-.42c.22-.08.33-.12.3-.26v-.1h-.06a2.24 2.24 0 0 0-1.4.3 2.12 2.12 0 0 0-.91.87v.09a.13.13 0 0 0 .07.09.75.75 0 0 0 .29-.09Zm.61-.73a2 2 0 0 1 .46-.19l-.47.22-.23.13a1.81 1.81 0 0 1 .24-.19v.03Z" fill="#63727A"/></svg>