<svg width="35" height="34" fill="none" xmlns="http://www.w3.org/2000/svg"><path d="M33.99 1.77A3.51 3.51 0 0 0 30.9 0a3.49 3.49 0 0 0-3.36 2.61l.41-.05h.07c.281.11.517.31.67.57.167.305.234.655.19 1a1.731 1.731 0 0 0-.19-1 1.34 1.34 0 0 0-.67-.57H28l-.41.05-13.25 1.76v-.25c-.19-.88-3.28-.91-3.64-.91-.36 0-3.44 0-3.64.91h-.07v.36c0 1.07 0 2.14-.06 3.2s0 1.83 0 2.76a3.346 3.346 0 0 0-.84.38 3.73 3.73 0 0 0-1 1.26 1.33 1.33 0 0 0-.42 1.16 8.24 8.24 0 0 0-.37 2.61V16a2.37 2.37 0 0 0-2-.94c-.93.15-1.66 1.1-2 2.69a14.43 14.43 0 0 0-.08 5.44 14.75 14.75 0 0 0 1.68 5.1c.78 1.26 1.67 1.94 2.53 1.94h.25c.72-.11 1.31-.71 1.72-1.7h.11c.1.29.19.58.29.86a9.61 9.61 0 0 0 1 1.77 6.827 6.827 0 0 0 1.4 1.44c.328.258.7.451 1.1.57.25.06.504.09.76.09.323.002.644-.049.95-.15.215-.06.423-.144.62-.25a14.04 14.04 0 0 0 1.6-.14l.88-.17a4.279 4.279 0 0 0 1.07-.25 2.83 2.83 0 0 0 .78-.48 3.27 3.27 0 0 0 1-1.37v-.11l.76-.09c.06-.08.11-.168.15-.26a1.49 1.49 0 0 0 0-1.17.74.74 0 0 0-.36-.47c.09-.42.16-.85.21-1.28.077.066.161.123.25.17.294.16.617.258.95.29h.15a2.17 2.17 0 0 0 1-.24 2.42 2.42 0 0 0 .85-.8 4.21 4.21 0 0 0 .69-1.58c.247-1.098.344-2.225.29-3.35a19.245 19.245 0 0 0-.76-4.38 10.192 10.192 0 0 0-1.51-3.32 2.93 2.93 0 0 0-1.48-1.23 2.66 2.66 0 0 0-2.5.58 2.22 2.22 0 0 0-.28.33l-.18-.37-.11-.17h-.26l-.92-.56V7l13-1.78a3.48 3.48 0 0 0 6.05-3.44l.04-.01Zm-19.44 11 .32.19c-.598.177-1.21.304-1.83.38l.49-.1a4.01 4.01 0 0 0 1-.47h.02Zm-3.54 1v.09l.08.19c.19.42.34.84.51 1.26a1.44 1.44 0 0 0-1-.09h-.12a.7.7 0 0 0-.21.14 5.445 5.445 0 0 0-.73-.93 5.24 5.24 0 0 0-1.38-1h.34l1 .06.24-.36h1.38a3.999 3.999 0 0 0 1.82.2h-.39c-.392.04-.786.06-1.18.06-.18-.09-.35-.2-.53-.3H9.9c.37.27.75.47 1.11.67v.01Zm.61 17.68a.32.32 0 0 1-.21-.13h.05c.29 0 .42-.49.39-1a1.21 1.21 0 0 0-.28-.81.3.3 0 0 0-.21-.08.27.27 0 0 1 .14-.07c.23 0 .49.39.52 1 .03.61-.19 1-.41 1l.01.09Zm-.42-1a1.08 1.08 0 0 1 .13-.66h.06a1 1 0 0 1 .2.65c0 .44-.11.68-.16.68s-.2-.27-.23-.71v.04Zm.36-1.23h-.08c.217-.187.39-.42.51-.68.27-.549.42-1.149.44-1.76a19.24 19.24 0 0 0 .1-2.64 17.873 17.873 0 0 0-.2-2.31 19.011 19.011 0 0 0-.56-2.8 11.24 11.24 0 0 0-.38-1.25.88.88 0 0 0 .43-.27 1.7 1.7 0 0 0 .32-.71 30.43 30.43 0 0 1 1.36 5.71c.18 1.45.24 2.911.18 4.37a12.233 12.233 0 0 1-.6 3.6 1.224 1.224 0 0 0-.06-.42 1.08 1.08 0 0 0-.31-.63 1.401 1.401 0 0 0-1.15-.25v.04Zm.1-11.91a.83.83 0 0 1-.32.2h-.24a1.79 1.79 0 0 0-.07-2.15 1 1 0 0 1 .64.19c.12.124.2.28.23.45a1.361 1.361 0 0 1-.24 1.27v.04Zm-1.11 0a.26.26 0 0 0 .2-.1c.17-.249.24-.551.2-.85 0-.44-.19-.88-.47-.89l.13-.07c.26 0 .53.45.56 1 0 .6-.19 1-.41 1-.22 0-.15 0-.22-.13l.01.04Zm-.2-.86c0-.44.11-.68.16-.69a1.2 1.2 0 0 1 .23.67 1 1 0 0 1-.13.66 1 1 0 0 1-.26-.68v.04Zm3.05-3.68a3.58 3.58 0 0 1-2 0l-.15-4.42c.215-.01.43.011.64.06a2.45 2.45 0 0 0 1.23-.13h.06a2.06 2.06 0 0 0 .79-1.15.84.84 0 0 0 .26.07h.15v5.09c-.3.2-.631.348-.98.44v.04Zm.2-6.4v.26a1.49 1.49 0 0 1-.7 1.11 2.12 2.12 0 0 1-1 .1 5.581 5.581 0 0 1-.68-.1V5.18a9.682 9.682 0 0 0 2.28-.3c-.03.386-.03.774 0 1.16.024.1.057.197.1.29v.04Zm-2.94-2.63a6.87 6.87 0 0 1 3.14.49 6.87 6.87 0 0 1-3.14.51 7 7 0 0 1-3.14-.49 6.91 6.91 0 0 1 3.14-.51ZM7.34 12.3c0-1.53 0-3.08.07-4.59l.06-2.85c.414.15.838.268 1.27.35a9 9 0 0 0 2 .11v7.36H9.48l-.23.3h-.7c-.404.002-.808.03-1.21.08v-.76Zm.12 1.41a5 5 0 0 1 1.79 1c.328.342.61.726.84 1.14a2.05 2.05 0 0 0 0 .55c0 .302.069.599.2.87a.74.74 0 0 0 .41.31h.2c.158.505.281 1.02.37 1.54.25.902.43 1.821.54 2.75a19.01 19.01 0 0 1 .1 4.84 3.73 3.73 0 0 1-.41 1.56 1.67 1.67 0 0 1-.5.65 1.8 1.8 0 0 1-.46.23 2.25 2.25 0 0 0 .55-.94 8.392 8.392 0 0 0 .45-2.72c.04-.636.04-1.274 0-1.91a.43.43 0 0 0 0-.16v-.69a11.537 11.537 0 0 0-.45-2.7l-.11-.32c-.17-.65-.27-1-.39-1.4A8.484 8.484 0 0 0 9.41 16a5.081 5.081 0 0 0-1.76-1.75 2.292 2.292 0 0 0-.75-.39l.56-.15Zm-.22.86a4.54 4.54 0 0 1 1.66 1.61c.48.69.85 1.449 1.1 2.25.12.35.22.71.39 1.38l.09.36c.116.376.203.76.26 1.15.13.467.23.941.3 1.42 0 .25 0 .49.05.74v.13c.04.62.04 1.24 0 1.86a7.562 7.562 0 0 1-.43 2.58 1.84 1.84 0 0 1-.73 1c-.17.11-.355.194-.55.25-.202.03-.408.03-.61 0a2.44 2.44 0 0 1-1.29-.8l-.12-.15 1.54-.29v-.14c.313-.974.517-1.98.61-3 .08-.871.08-1.748 0-2.62-.1-1.3-.44-2.572-1-3.75a9.862 9.862 0 0 0-2.12-2.89l-.09-.08-1.32.21c.17-.85.44-1.41.79-1.57a1.921 1.921 0 0 1 1.47.35Zm-.91-3.35c.102-.085.212-.16.33-.22l.16.13v-.43 2.62h-.08a1.69 1.69 0 0 0 0-.55 1.08 1.08 0 0 0-.31-.63 1.35 1.35 0 0 0-.76-.25 3.18 3.18 0 0 1 .66-.67Zm-.18 1.16a.85.85 0 0 1 .22.49c.07.171.1.356.09.54l-.56.12a1 1 0 0 0 0-.34 1.5 1.5 0 0 0-.39-1c.228-.007.453.06.64.19Zm-1-.16c.22 0 .48.4.51 1 .022.21-.002.421-.07.62a1.55 1.55 0 0 0-.43.38l-.12-.08a.26.26 0 0 0 .2-.1 1.21 1.21 0 0 0 .19-.85c0-.44-.19-.86-.45-.89a.38.38 0 0 1 .21-.08h-.04Zm-.16.31s.21.23.23.67a1 1 0 0 1-.13.66 1.13 1.13 0 0 1-.2-.64c.01-.48.09-.68.14-.69h-.04Zm-.22 1.66c.069.092.153.17.25.23a4.7 4.7 0 0 0-.36.89c.03-.376.08-.75.15-1.12h-.04Zm1.4 13.22c-.34 1.33-.92 2.19-1.65 2.33-.73.14-1.54-.52-2.27-1.74a13.86 13.86 0 0 1-1.7-5 14 14 0 0 1 .06-5.25c.33-1.36.93-2.21 1.64-2.32h.17c.67 0 1.43.6 2.11 1.7a13.68 13.68 0 0 1 1.7 5 13.64 13.64 0 0 1-.06 5.28Zm.35.56c.028-.154.071-.305.13-.45a14.28 14.28 0 0 0 .07-5.45 14.101 14.101 0 0 0-1.82-5.15 3.463 3.463 0 0 0-.36-.52l1.67-.27a9.282 9.282 0 0 1 1.91 2.66 10 10 0 0 1 .92 3.57c.08.842.08 1.689 0 2.53-.089.93-.27 1.847-.54 2.74l-1.98.34Zm5.38 4.5-.13.16a2.838 2.838 0 0 1-1.39 0 2.388 2.388 0 0 1-.92-.48c-.5-.38-.941-.831-1.31-1.34a8.636 8.636 0 0 1-1-1.65 1.422 1.422 0 0 0-.11-.33 3 3 0 0 0 1.55.95c.13.01.26.01.39 0 .133.01.267.01.4 0h.41c.268.001.535-.04.79-.12.167-.04.326-.107.47-.2l-.09.12a2.338 2.338 0 0 0-.14.87c.014.298.096.59.24.85a.65.65 0 0 0 .52.37h.06a.998.998 0 0 0 .34.07c.097.01.194.01.29 0l.19-.08c-.18.28-.36.55-.56.81Zm.3-1a1.13 1.13 0 0 1-.26 0 1.48 1.48 0 0 0 .31-1.09c0-.367-.13-.722-.37-1a1.07 1.07 0 0 1 .63.19.86.86 0 0 1 .23.49 1.39 1.39 0 0 1-.24 1.23.65.65 0 0 1-.3.2v-.02Zm2.63.73v-.14l-.77.15c-.48.072-.964.119-1.45.14.134-.17.254-.35.36-.54.16-.27.31-.56.45-.86.462-1.311.709-2.69.73-4.08.07-1.482.01-2.968-.18-4.44a31.234 31.234 0 0 0-2.28-8.32l2-.29A26.68 26.68 0 0 1 15.45 19c.629 2.4.852 4.887.66 7.36a21.55 21.55 0 0 1-1.21 5.69v.14l.47.17-.54-.16Zm3.77-3.4a1.24 1.24 0 0 1 0 1 .8.8 0 0 1-.08.16l-.53.06c.17-.5.31-1 .43-1.51a.61.61 0 0 1 .18.31v-.02Zm-1.7-15.29c.238-.207.513-.367.81-.47.414-.13.857-.13 1.27 0 .511.18.943.535 1.22 1a10.182 10.182 0 0 1 1.45 3.18c.411 1.39.66 2.823.74 4.27a12.704 12.704 0 0 1-.29 3.25 3.901 3.901 0 0 1-.63 1.41 1.93 1.93 0 0 1-.66.64 1.62 1.62 0 0 1-.91.21c-.263-.021-.52-.1-.75-.23a2.864 2.864 0 0 1-.43-.28v-.16l1.51-.49v-.13c.674-2.31.777-4.75.3-7.11a8.292 8.292 0 0 0-1.44-3.32 8.093 8.093 0 0 0-1.61-1.59l-.08-.06-.7.1.2-.22Zm.48.59a7.694 7.694 0 0 1 1.43 1.42 7.792 7.792 0 0 1 1.35 3.11c.45 2.239.36 4.553-.26 6.75l-1.12.36a26.745 26.745 0 0 0-.34-5.65 24.87 24.87 0 0 0-.79-3.28.92.92 0 0 0 .36-.17 1 1 0 0 0 .33-.53 1.4 1.4 0 0 0-.61-1.57 1.35 1.35 0 0 0-.91-.09l-.1-.24.66-.11Zm.17 2.47-.65-1.91c.249-.059.51-.03.74.08a1.14 1.14 0 0 1 .5 1.28.77.77 0 0 1-.25.41.68.68 0 0 1-.36.14h.02Zm-1.14-1.79a25.21 25.21 0 0 1 1.49 5.44c.06.31.09.62.13.93v.08c.1.8.17 1.61.2 2.41v2.84a14.542 14.542 0 0 1-.85 3.8 2.67 2.67 0 0 1-1.44 1.56c-.17.05-.344.09-.52.12 0 .13-.08.27-.13.4.013-.15.047-.298.1-.44a21.684 21.684 0 0 0 1.18-5.51 23.001 23.001 0 0 0-.67-7.52 27.285 27.285 0 0 0-1.72-5.12l1.6-.24c.23.4.42.82.61 1.25h.02Zm-1.51-2.23h-.08l.08-.06v.06Zm0-6.1-.11.06-.66.09A5.392 5.392 0 0 1 14 6a5.567 5.567 0 0 1 0-1l14-1.83a.87.87 0 0 1 .38.33 1.16 1.16 0 0 1-.12 1.25L14.9 6.45Z" fill="#63727A"/><path d="M2.11 17c-1.08.17-1.55 2.82-1 5.92s1.79 5.47 2.86 5.3c1.07-.17 1.5-2.83 1-5.93-.5-3.1-1.78-5.46-2.86-5.29Zm5.73-9.59c.105 0 .19-.331.19-.74s-.085-.74-.19-.74-.19.331-.19.74.085.74.19.74Z" fill="#63727A"/></svg>