<svg width="31" height="35" fill="none" xmlns="http://www.w3.org/2000/svg"><g clip-path="url(#a)" fill="#63727A"><path d="M5.999 9.9a4.27 4.27 0 0 0 1.72.46h.28c.36.002.72-.042 1.07-.13a2.63 2.63 0 0 0 1.23-.63 2.31 2.31 0 0 0 .7-1.07 2.25 2.25 0 0 0-.19-1.53 2.88 2.88 0 0 0-1-1.16A4.55 4.55 0 0 0 7.999 5a3.61 3.61 0 0 0-2.34.15 2.88 2.88 0 0 0-.92.66 2.26 2.26 0 0 0-.55 1.09 2.49 2.49 0 0 0 .47 1.79 3.48 3.48 0 0 0 1.34 1.21ZM4.659 7a1.59 1.59 0 0 1 .44-.84 2.21 2.21 0 0 1 .74-.54 3.19 3.19 0 0 1 2-.1 4.18 4.18 0 0 1 1.61.72 2.3 2.3 0 0 1 .85 1 1.74 1.74 0 0 1-.36 2 2.12 2.12 0 0 1-1 .51 4 4 0 0 1-1.19.1 3.61 3.61 0 0 1-1.51-.4 2.94 2.94 0 0 1-1.18-1 1.9 1.9 0 0 1-.4-1.45Z"/><path d="M15.659 7.94V6.09h-.5l.11-.31.14-.35.08-.22-.24-.21-.25-.41-.51-.92-.35-.67-.48.56-.15.18-.09-.09.06-.24.18-.52v-.35l-.29-.2-.71-.5-.76-.51-.53-.33-.24.56-.13.32-.4-.18V.77l-.32-.13-1.06-.29-.75-.21-.42-.14-.18.4-.21.53V1h-.44V.06h-.56l-.66.06-.8.07h-.31l-.11.31-.25.59-.12.28h-.09L4.249 1 4.08.36l-.61.41-.58.39-.58.39-.18.12v.44L2 2.55l-.1-.07H1l-.1.34-.15.48-.21.7v.7l-.09.24-.1.3a2 2 0 0 0-.11 1l-.12.16-.12.12v.16a5.57 5.57 0 0 0 0 1 7 7 0 0 0 .76 2.44 10.2 10.2 0 0 0 1 1.6l.14.28A5.4 5.4 0 0 0 4 14.34a5.14 5.14 0 0 0 2.66.8A6.218 6.218 0 0 0 9 14.67l.4-.17h-.04a5.3 5.3 0 0 0 1.3-.34 6.746 6.746 0 0 0 1.62-.95 5.828 5.828 0 0 0 1.92-2c.202-.348.357-.721.46-1.11a1.22 1.22 0 0 0 .34-.32c.089-.137.15-.29.18-.45.03-.136.07-.27.12-.4.082-.25.19-.492.32-.72l.06-.12-.02-.15Zm-11.5 6.19a4.68 4.68 0 0 1-1.5-1.37l.14.12a7.38 7.38 0 0 0 2.93 1.44 7.489 7.489 0 0 0 2 .28h.46a5.16 5.16 0 0 1-4.03-.47Zm7.74-1.13a7.14 7.14 0 0 1-11-4.22c.31.57.68 1.106 1.1 1.6a8.47 8.47 0 0 0 2.84 2.2 8.881 8.881 0 0 0 4 .77 7.72 7.72 0 0 0 3.55-.92l.48-.3a7.497 7.497 0 0 1-.97.87Zm1.88-2-.09.16c-.11.058-.215.129-.31.21a8.66 8.66 0 0 1-1.13.77 7.45 7.45 0 0 1-3.39.86A8.51 8.51 0 0 1 5 12.26a8.19 8.19 0 0 1-2.74-2.11 9 9 0 0 1-1.6-2.57L.5 7.2v-.39l.78-1L2 7.19l-.29.89.51 1 .56-.56 1.5 1.3-.28.87 1.11.76.6-1 2.29.72-.16.92 1.16.06.57-1 2-.3v.6l.69-.36.48-1 1.37-.7a3.907 3.907 0 0 1-.33 1.61ZM3.069 5.92A3.32 3.32 0 0 1 4.66 4a3.79 3.79 0 0 1 2-.5c.378.01.755.04 1.13.09a5.5 5.5 0 0 1 3.42 1.55c.39.4 1.57 1.62 1.34 2.9-.3 1.66-2.81 2.73-4.84 2.56l-.88-.27-1-.31h-.11a5.78 5.78 0 0 1-2.06-1.87 2.93 2.93 0 0 1-.59-2.23Zm11.68 2.84v-.23l-.79.4-.68.34-.57.29c.14-.26.88-.58 1.12-1.42a2.78 2.78 0 0 0-.24-1.77 5.58 5.58 0 0 0-1.35-2 7.7 7.7 0 0 0-.46-.4l-.31-.22-.47-.27-.29-.15-.27-.13-.23-.2h-.21a8.19 8.19 0 0 0-2.63-.56h-1.55l-.32.05h-.06l-.28.06h-.1l-.35.11a4.31 4.31 0 0 0-2 1.11 4 4 0 0 0-1 1.67l-.06.1-.35-.66-.48.61-.15.19c0-.1 0-.2.08-.3l.25-.61v-.58l.4-1.19h.34l.34.26.36-.41.16-.85 1.15-.78.25.94.84-.38.41-1.09L6.66.55l.08.88h1.19l.38-.84 1.82.5-.06.91 1.19.54.34-.8 1.51 1-.24 1 .7.7.5-.64.74 1.34-.36.93.18.38H15L15.1 8c-.13.247-.248.5-.35.76Zm4.991 11.06-.08-.06a6.76 6.76 0 0 0-1.59-1 7.001 7.001 0 0 0-1.62-.46h-.13l-.1.09a1.72 1.72 0 0 0-.52.81 1.74 1.74 0 0 0 0 1.06l.06.19H16c.453.03.898.13 1.32.3a4.59 4.59 0 0 1 1.5 1l.18.19.2-.17a1.78 1.78 0 0 0 .48-.61 1.92 1.92 0 0 0 .12-1.27l-.06-.07Zm-.62 1.12a1.002 1.002 0 0 1-.15.24 4.84 4.84 0 0 0-1.48-.92 4.712 4.712 0 0 0-1.28-.32 1.23 1.23 0 0 1 0-.54c.058-.17.15-.327.27-.46.46.083.91.217 1.34.4a6.1 6.1 0 0 1 1.37.81 1.26 1.26 0 0 1-.07.79Zm2.73-5.38 6.39-7.73-2.32-1-6.8 7.35 2.73 1.38ZM27.32 8l-5.66 6.83-1.61-.83 6-6.5 1.27.5Z"/><path d="M20.14 17.65a10.879 10.879 0 0 0-3.48-1.59 11.46 11.46 0 0 0-4-.26c-1.148.071-2.28.307-3.36.7a9 9 0 0 0-4 2.43 7.12 7.12 0 0 0-1.79 3.2 7 7 0 0 0 .77 5 8.401 8.401 0 0 0 2.61 2.76 11 11 0 0 0 3.72 1.79c.911.23 1.85.338 2.79.32.875 0 1.748-.1 2.6-.3a9.642 9.642 0 0 0 3.43-1.53 8.1 8.1 0 0 0 3.63-6.67 6.51 6.51 0 0 0-.56-3.17 6.092 6.092 0 0 0-.84-1.33 8.119 8.119 0 0 0-1.52-1.35Zm-14 8.45c0-2.79 3.19-5.05 7.11-5.05 3.92 0 7.1 2.26 7.1 5.05s-3.19 5-7.1 5c-3.91 0-7.12-2.22-7.12-5h.01ZM22 20.6a5.91 5.91 0 0 1 .51 2.9 7.51 7.51 0 0 1-3.39 6.22l-.26.18a4.89 4.89 0 0 0 2-3.8c0-3.1-3.44-5.63-7.67-5.63S5.56 23 5.56 26.1a4.49 4.49 0 0 0 1.1 2.9 6.78 6.78 0 0 1-1.88-2.14 6.19 6.19 0 0 1 .94-7.56A8.63 8.63 0 0 1 9.48 17a11.69 11.69 0 0 1 3.2-.66c.38 0 .83-.07 1.36-.07a9.93 9.93 0 0 1 2.49.31 10.52 10.52 0 0 1 3.28 1.51 8.3 8.3 0 0 1 1.4 1.25c.313.386.578.81.79 1.26Z"/><path d="M24.239 20.61a18.31 18.31 0 0 0-.3-.72 8.884 8.884 0 0 0-1.2-1.89 3.068 3.068 0 0 0-.23-.28l7.82-9.88V7.7a2.28 2.28 0 0 0-.77-1.2 1.38 1.38 0 0 0-.56-.24 4.998 4.998 0 0 1-.67-.26l-.46-.21a6.47 6.47 0 0 0-.94-.4 1.27 1.27 0 0 0-.86-.07 1.94 1.94 0 0 0-.62.4l-.12.14c-.16.14-2.89 3.14-8.14 8.81a16.092 16.092 0 0 0-3.53-.31c-4.37 0-8.93 2.43-10.6 5.57a10.75 10.75 0 0 0-1.06 3.36 9.61 9.61 0 0 0 .09 3.12l.43 1.43a9.111 9.111 0 0 0 2.48 3.49c.316.272.65.523 1 .75.218.31.4.646.54 1 .078.219.142.443.19.67v.11l1 .69.68-.44.46-.06c.383.168.777.312 1.18.43.558.153 1.126.266 1.7.34.507.07 1.018.11 1.53.12.31.02.62.02.93 0 .68-.08 1.35-.23 2-.45a8.584 8.584 0 0 0 2.06-.84c.478-.298.932-.633 1.36-1l.41-.39c.36-.35.55-.53.78-.54.23 0 .458-.03.68-.09.152-.031.297-.089.43-.17.16-.12.287-.278.37-.46.08-.17.17-.33.26-.5.15-.25.28-.51.39-.78.141-.399.319-.784.53-1.15a9.23 9.23 0 0 0 .63-1.4c.259-.758.45-1.538.57-2.33a9.13 9.13 0 0 0-.3-3.45 2 2 0 0 0-.14-.78Zm-2.09 9.64c-.1.17-.2.35-.29.54a.67.67 0 0 1-.2.21.752.752 0 0 1-.24.08 2.003 2.003 0 0 1-.55.08 1.87 1.87 0 0 0-1.16.69l-.39.38a9.58 9.58 0 0 1-1.28.91 7.517 7.517 0 0 1-1.93.78 8.853 8.853 0 0 1-1.9.43 8.66 8.66 0 0 1-2.33-.07 10.608 10.608 0 0 1-1.67-.28 8.29 8.29 0 0 1-1.21-.42l-.75.08-.47.3-.46-.33a3.276 3.276 0 0 0-.23-.63 5.069 5.069 0 0 0-.64-1.22v-.05a7.597 7.597 0 0 1-1-.73l.17.1c.97.578 1.971 1.102 3 1.57a10.93 10.93 0 0 0 3.15.56c.45 0 1 .07 1.5.07.876.004 1.75-.104 2.6-.32a12.294 12.294 0 0 0 3.13-1.27c.89-.44 1.718-.999 2.46-1.66a10.05 10.05 0 0 0 1.77-2.23l.35-.64c-.16.396-.355.777-.58 1.14a9.223 9.223 0 0 0-.56 1.24c-.08.236-.178.467-.29.69Zm3.71-24.1a1.19 1.19 0 0 1 .39-.27.79.79 0 0 1 .5.07c.298.102.589.226.87.37l.49.23c.23.102.466.186.71.25a.73.73 0 0 1 .34.2c.247.196.43.46.53.76l-7.57 9.57a9.319 9.319 0 0 0-4.29-2.44c5.17-5.59 7.78-8.4 7.94-8.59l.09-.15Zm-3.57 12.19a9.167 9.167 0 0 1 1.6 3.2 7.05 7.05 0 0 1 .11 1.71 8.088 8.088 0 0 1-.22 1.63 9.05 9.05 0 0 1-1 2.65 10.002 10.002 0 0 1-1.67 2.1 10.532 10.532 0 0 1-2.34 1.57c-.921.539-1.91.952-2.94 1.23a11.77 11.77 0 0 1-3.92.22 10.223 10.223 0 0 1-3-.52 32.55 32.55 0 0 1-3-1.53 5.268 5.268 0 0 1-.91-.6 5.843 5.843 0 0 1-1-1.16 10.402 10.402 0 0 1-1.38-2.51v-.06a9.53 9.53 0 0 1-.09-2.92 11 11 0 0 1 1-3.16c1.39-2.51 5.39-5.19 10.13-5.26 3.92-.03 6.82 1.07 8.63 3.41Z"/></g><defs><clipPath id="a"><path fill="#fff" d="M0 0h30.33v34.95H0z"/></clipPath></defs></svg>