<svg width="0" height="0" class="hidden">
  <symbol fill="none" xmlns="http://www.w3.org/2000/svg" viewBox="0 0 27 32" id="icon1">
    <path d="M3.05895 5.06152C2.77612 5.06152 2.49963 5.14539 2.26446 5.30253C2.02929 5.45967 1.846 5.68301 1.73776 5.94431C1.62953 6.20562 1.60121 6.49316 1.65638 6.77056C1.71156 7.04796 1.84776 7.30277 2.04776 7.50276C2.24775 7.70276 2.50256 7.83896 2.77996 7.89414C3.05737 7.94932 3.3449 7.921 3.60621 7.81276C3.86751 7.70452 4.09086 7.52123 4.24799 7.28606C4.40513 7.05089 4.489 6.77441 4.489 6.49157C4.489 6.1123 4.33833 5.74856 4.07015 5.48037C3.80196 5.21219 3.43822 5.06152 3.05895 5.06152ZM3.05895 7.04964C2.91094 7.04964 2.769 6.99084 2.66434 6.88618C2.55968 6.78152 2.50089 6.63958 2.50089 6.49157C2.50089 6.34356 2.55968 6.20161 2.66434 6.09696C2.769 5.9923 2.91094 5.9335 3.05895 5.9335C3.20696 5.9335 3.34891 5.9923 3.45357 6.09696C3.55822 6.20161 3.61702 6.34356 3.61702 6.49157C3.61702 6.63958 3.55822 6.78152 3.45357 6.88618C3.34891 6.99084 3.20696 7.04964 3.05895 7.04964Z" fill="currentColor"></path>
    <path d="M26.9774 9.02015C27.0006 7.08583 26.4614 5.18643 25.4253 3.55284C24.9409 2.77268 24.2015 2.18421 23.3325 1.88736H23.2279C23.1194 1.48867 22.8833 1.13647 22.5558 0.884548C22.2283 0.632622 21.8273 0.49482 21.4142 0.49219H5.51799C5.08832 0.491447 4.6712 0.636957 4.33523 0.904786C3.99925 1.17261 3.76443 1.54681 3.66939 1.96583C2.81292 2.27245 2.0828 2.85532 1.59408 3.6226C0.556009 5.24972 0.0109031 7.14245 0.0245199 9.07246C-0.0502871 10.642 0.0462003 12.2151 0.312273 13.7637C0.486669 14.9583 0.687224 15.8739 0.879059 16.6848C1.20169 18.0015 1.6028 19.3008 2.04751 20.5913C2.0432 20.6523 2.0432 20.7135 2.04751 20.7744C2.05129 21.1088 2.14657 21.4358 2.32303 21.7199C2.49949 22.004 2.75038 22.2344 3.04848 22.386C3.34658 22.5376 3.6805 22.6046 4.01402 22.5799C4.34754 22.5551 4.66791 22.4395 4.94038 22.2456C5.21284 22.0517 5.427 21.7868 5.55961 21.4798C5.69221 21.1728 5.73821 20.8353 5.6926 20.504C5.64699 20.1727 5.51152 19.8602 5.30089 19.6005C5.09025 19.3407 4.8125 19.1436 4.49777 19.0305C4.26924 18.2251 4.08871 17.4069 3.95715 16.5802C3.65932 14.6145 3.61828 12.6183 3.83507 10.642C3.99223 10.9543 4.23248 11.2173 4.52939 11.4019C4.8263 11.5865 5.16837 11.6856 5.51799 11.6884H7.87233V11.8279H7.3317V14.9496H7.87233V15.5077H5.77086V17.5655H7.97697V18.7078H8.50016V31.0899H18.4407V18.7078H18.9552V17.5655H21.1526V15.5077H19.0685V14.9496H19.6092V11.8279H19.0685V11.6884H21.4142C21.7899 11.682 22.1555 11.5654 22.4655 11.353C22.7756 11.1406 23.0164 10.8418 23.1581 10.4938C23.3836 12.5017 23.3426 14.5307 23.036 16.5279C22.9074 17.3544 22.7298 18.1726 22.5041 18.9781C22.1894 19.0912 21.9117 19.2884 21.701 19.5481C21.4904 19.8079 21.3549 20.1204 21.3093 20.4517C21.2637 20.783 21.3097 21.1205 21.4423 21.4275C21.5749 21.7345 21.7891 21.9994 22.0615 22.1933C22.334 22.3872 22.6544 22.5028 22.9879 22.5276C23.3214 22.5523 23.6553 22.4852 23.9534 22.3336C24.2515 22.182 24.5024 21.9517 24.6789 21.6676C24.8553 21.3835 24.9506 21.0565 24.9544 20.7221C24.9544 20.6611 24.9544 20.6 24.9544 20.539C25.3991 19.2572 25.8264 17.9231 26.1229 16.6325C26.2537 16.0396 26.4891 15.0368 26.6809 13.7288C26.9498 12.1746 27.0492 10.5958 26.9774 9.02015ZM3.88739 19.8152C4.07709 19.8152 4.26254 19.8715 4.42028 19.9769C4.57801 20.0823 4.70095 20.2321 4.77355 20.4074C4.84615 20.5826 4.86514 20.7755 4.82813 20.9615C4.79112 21.1476 4.69977 21.3185 4.56563 21.4527C4.43148 21.5868 4.26058 21.6782 4.07451 21.7152C3.88845 21.7522 3.69559 21.7332 3.52033 21.6606C3.34506 21.588 3.19526 21.465 3.08986 21.3073C2.98446 21.1496 2.92821 20.9641 2.92821 20.7744C2.92821 20.52 3.02927 20.2761 3.20915 20.0962C3.38903 19.9163 3.633 19.8152 3.88739 19.8152ZM3.66067 9.59565L3.12877 9.36022L3.05029 9.93572C2.74506 12.1968 2.76268 14.4898 3.10261 16.7459C3.22468 17.4958 3.39036 18.237 3.57347 18.9781C3.21026 19.0357 2.87454 19.2066 2.6143 19.4665C2.29167 18.4811 1.99519 17.4871 1.74232 16.4756C1.5592 15.6908 1.36737 14.8014 1.19297 13.6242C0.923447 12.1258 0.823993 10.6019 0.896499 9.08118C0.880334 7.314 1.38037 5.58053 2.33526 4.09346C2.71061 3.49739 3.2712 3.04095 3.93099 2.79422C4.16722 2.73183 4.4104 2.6996 4.65473 2.6983C4.76792 2.68965 4.88161 2.68965 4.9948 2.6983V9.40382C4.82473 9.5326 4.62815 9.62196 4.41929 9.66541C4.16504 9.7169 3.90127 9.69264 3.66067 9.59565ZM18.0047 27.5933H17.5687V30.2092H9.37214V27.5933H9.0059V26.9393H9.37214V26.233H8.96231V25.579H9.37214V24.9076H8.98846V24.2536H9.37214V23.556H8.93615V22.9021H9.37214V22.2568H8.93615V21.6028H9.37214V18.8648H17.5687V21.5766H17.935V22.2306H17.5687V22.8759H17.935V23.5299H17.5687V24.2275H17.9786V24.9076H17.5687V25.6052H17.9524V26.2592H17.5687V26.9655H18.0047V27.5933ZM18.3012 18.0015H8.63095V17.5743H18.3361L18.3012 18.0015ZM20.4986 16.1878V16.9377H6.42485V16.1878H20.4986ZM18.9552 12.5081V14.3218H7.98569V12.4819L18.9552 12.5081ZM8.74431 11.8279V11.6797H18.1966V11.8279H8.74431ZM18.1966 14.9496V15.3943H8.74431V14.9496H18.1966ZM21.4142 10.8164H5.51799C5.37687 10.8161 5.23737 10.7864 5.10829 10.7294C4.97921 10.6724 4.86337 10.5892 4.76809 10.4851C5.13178 10.3863 5.46468 10.1973 5.73598 9.93572L5.86678 9.81365V2.01815L5.53543 1.93096C5.24913 1.86734 4.95673 1.83517 4.66345 1.83504C4.75522 1.69142 4.88151 1.57308 5.03078 1.49083C5.18005 1.40858 5.34756 1.36503 5.51799 1.36417H21.4142C21.5662 1.36582 21.7158 1.402 21.8518 1.46998C21.9877 1.53795 22.1064 1.63595 22.1989 1.75656C21.9579 1.76276 21.7181 1.79491 21.4839 1.85248L21.1613 1.93096V9.71773L21.2834 9.83981C21.5436 10.0999 21.8641 10.2916 22.2164 10.3979C22.1248 10.5256 22.0045 10.6301 21.8652 10.7028C21.7258 10.7755 21.5713 10.8144 21.4142 10.8164ZM23.1581 21.6551C22.9684 21.6551 22.783 21.5989 22.6252 21.4935C22.4675 21.3881 22.3446 21.2383 22.272 21.063C22.1994 20.8877 22.1804 20.6949 22.2174 20.5088C22.2544 20.3228 22.3457 20.1518 22.4799 20.0177C22.614 19.8836 22.7849 19.7922 22.971 19.7552C23.1571 19.7182 23.3499 19.7372 23.5252 19.8098C23.7005 19.8824 23.8503 20.0053 23.9557 20.1631C24.061 20.3208 24.1173 20.5062 24.1173 20.6959C24.1173 20.8234 24.0919 20.9496 24.0427 21.0671C23.9934 21.1846 23.9212 21.2911 23.8302 21.3804C23.7393 21.4697 23.6315 21.54 23.5131 21.5872C23.3947 21.6343 23.2681 21.6574 23.1407 21.6551H23.1581ZM25.8177 13.5719C25.6345 14.8624 25.4078 15.839 25.2683 16.4145C25.0242 17.4173 24.7364 18.4114 24.3963 19.3967C24.1314 19.1386 23.7935 18.9681 23.4284 18.9084C23.6237 18.1729 23.7809 17.4278 23.8993 16.6761C24.2481 14.4207 24.2657 12.1265 23.9516 9.86596L23.8731 9.29046L23.3412 9.52589C23.1156 9.63149 22.8629 9.66498 22.6175 9.62181C22.3982 9.58109 22.1919 9.4884 22.0158 9.3515V2.62854C22.3612 2.58702 22.7113 2.6167 23.0448 2.71574C23.7198 2.93719 24.2984 3.38348 24.6841 3.98011C25.6359 5.47739 26.1299 7.21996 26.1054 8.99399C26.178 10.5259 26.0815 12.0611 25.8177 13.5719Z" fill="currentColor"></path>
    <path d="M23.5687 4.65186C23.2859 4.65186 23.0094 4.73573 22.7742 4.89286C22.5391 5.05 22.3558 5.27334 22.2475 5.53465C22.1393 5.79595 22.111 6.08349 22.1662 6.36089C22.2213 6.63829 22.3575 6.8931 22.5575 7.0931C22.7575 7.29309 23.0123 7.42929 23.2897 7.48447C23.5671 7.53965 23.8547 7.51133 24.116 7.40309C24.3773 7.29485 24.6006 7.11156 24.7578 6.87639C24.9149 6.64122 24.9988 6.36474 24.9988 6.0819C24.9988 5.70263 24.8481 5.33889 24.5799 5.07071C24.3117 4.80252 23.948 4.65186 23.5687 4.65186ZM23.5687 6.63997C23.4207 6.63997 23.2788 6.58117 23.1741 6.47651C23.0694 6.37186 23.0107 6.22991 23.0107 6.0819C23.0107 5.93389 23.0694 5.79195 23.1741 5.68729C23.2788 5.58263 23.4207 5.52383 23.5687 5.52383C23.7167 5.52383 23.8587 5.58263 23.9633 5.68729C24.068 5.79195 24.1268 5.93389 24.1268 6.0819C24.1268 6.22991 24.068 6.37186 23.9633 6.47651C23.8587 6.58117 23.7167 6.63997 23.5687 6.63997Z" fill="currentColor"></path>
    <path d="M17.9344 22.2306V21.5767H17.5681H9.37154H8.93555V22.2306H9.37154H17.5681H17.9344Z" fill="currentColor"></path>
    <path d="M17.9344 23.5212V22.8672H17.5681H9.37154H8.93555V23.5212H9.37154H17.5681H17.9344Z" fill="currentColor"></path>
    <path d="M17.9784 24.8727V24.2188H17.5686H9.37195H8.98828V24.8727H9.37195H17.5686H17.9784Z" fill="currentColor"></path>
    <path d="M17.953 26.2331V25.5791H17.5693H9.37272H8.96289V26.2331H9.37272H17.5693H17.953Z" fill="currentColor"></path>
    <path d="M9.37209 26.9307H9.00586V27.5846H9.37209H17.5687H18.0047V26.9307H17.5687H9.37209Z" fill="currentColor"></path>
  </symbol>
  <symbol fill="none" xmlns="http://www.w3.org/2000/svg" viewBox="0 0 32 35" id="icon2">
    <g clip-path="url(#clip0_119_897)">
      <path d="M31.9497 17.0846C31.4232 10.0786 26.2769 5.86494 24.6675 4.68393C21.979 2.73818 18.8013 1.59364 15.4977 1.3811C15.3779 1.09456 15.2209 0.825312 15.0308 0.580409L14.9016 0.470315H10.7489C10.5165 0.281668 10.232 0.169826 9.9342 0.15004C7.74854 -0.0701487 7.43063 -0.0701487 7.11271 0.260134C6.87443 0.543372 6.72566 0.891921 6.68552 1.26099C6.45505 2.01851 6.38067 2.81548 6.46695 3.603C6.57623 3.92327 6.68552 4.35364 6.78486 4.68393C6.78486 4.79402 6.89415 4.79402 6.89415 4.89411L7.11271 5.1143L7.53991 5.54466H8.53339C9.14465 5.5251 9.75301 5.45142 10.3515 5.32448C10.5009 5.33991 10.6513 5.30469 10.7787 5.22439L10.9277 5.0042L14.8122 5.08427L14.9016 5.0042C15.0009 4.87409 15.0904 4.74398 15.1798 4.60386C17.9381 4.81253 20.5887 5.77063 22.8494 7.37623C24.5078 8.48643 25.9021 9.95216 26.9326 11.6686C27.9631 13.3849 28.6043 15.3096 28.8103 17.3047C28.9367 20.2314 28.1395 23.1232 26.5331 25.5651C24.9268 28.0069 22.5938 29.8733 19.869 30.8964C14.4943 33.0282 6.57623 31.7571 3.89384 26.5827C3.1689 25.0194 2.85746 23.2938 2.98976 21.5735C3.12205 19.8531 3.69359 18.1965 4.64888 16.7643C7.85782 12.0202 13.9677 12.4506 14.1764 12.4506C14.8221 12.4506 20.0677 12.991 21.8858 16.8744C22.313 17.625 23.4952 20.5375 21.995 22.269C21.4538 22.8437 20.7674 23.2592 20.0096 23.4708C19.2517 23.6823 18.451 23.6821 17.6933 23.47C17.6072 23.1556 17.4696 22.8579 17.286 22.5893L17.1767 22.4792L13.0041 22.0188C12.7883 21.8474 12.5311 21.7368 12.2589 21.6985C10.113 21.3782 9.90439 21.2681 9.4772 21.5884C9.18525 21.8649 8.96374 22.2082 8.83143 22.5893C8.62363 23.3286 8.51668 24.0929 8.51352 24.8612C8.53495 25.226 8.60512 25.5862 8.72215 25.9321C8.7818 25.9913 8.82025 26.0688 8.83143 26.1523C8.83143 26.2624 8.83143 26.2624 8.94072 26.3625C9.10366 26.4969 9.28418 26.608 9.4772 26.6928C10.1126 26.8177 10.7573 26.888 11.4045 26.903H12.1497C12.2992 26.9192 12.4498 26.8839 12.5769 26.8029L12.7756 26.6027L16.6501 27.0131C16.8011 26.8891 16.9408 26.7518 17.0674 26.6027C18.3908 26.9273 19.7766 26.8867 21.079 26.4852C22.3814 26.0836 23.5524 25.3359 24.4688 24.3208C27.2506 20.9679 25.5418 16.6542 24.896 15.313C22.4222 10.0085 15.8951 9.2078 14.6036 9.10772C13.9081 9.00763 6.35767 8.56726 2.18505 14.8226C0.917433 16.7591 0.172054 18.9946 0.0222459 21.3093C-0.127562 23.624 0.323363 25.9381 1.33066 28.0239C3.78455 32.768 9.2785 35.0299 14.7128 35.0299C16.8298 35.0427 18.9322 34.6767 20.9221 33.949C27.8168 31.2167 32.4862 24.2107 31.9497 17.0846ZM14.4943 4.46374H11.3251C11.5341 4.00452 11.649 3.50751 11.6629 3.00249H12.557C12.6095 3.09734 12.6891 3.17407 12.7855 3.22267C12.9832 3.33875 13.2035 3.41044 13.4312 3.43285C13.5552 3.43616 13.678 3.40867 13.7889 3.35282C13.8998 3.29696 13.9953 3.21445 14.0671 3.11258C14.204 2.96601 14.2819 2.77336 14.2856 2.57212C14.2856 2.35193 14.2856 2.14175 14.0671 2.03165C13.8355 1.9096 13.5823 1.83478 13.322 1.81146C13.1776 1.82113 13.0378 1.86633 12.9148 1.94311C12.7918 2.01989 12.6894 2.1259 12.6166 2.25184H11.6231C11.581 1.83789 11.4667 1.43469 11.2853 1.06082C11.2669 1.03941 11.247 1.01934 11.2257 1.00077H14.7128C14.7917 1.10813 14.8615 1.22196 14.9215 1.34106L14.842 4.00334C14.7475 4.17208 14.6305 4.32699 14.4943 4.46374ZM10.3217 4.79402C10.3217 4.89411 10.2124 4.89411 10.1031 4.89411C9.29336 5.03822 8.46843 5.07523 7.64919 5.0042C8.11613 5.0042 8.49365 4.00334 8.48372 2.73225C8.55334 1.9641 8.33738 1.19727 7.87769 0.580409H7.94724C8.53081 0.572641 9.11261 0.646748 9.67589 0.800598C9.8705 0.81962 10.0561 0.892347 10.2124 1.01078C10.3452 1.13441 10.456 1.27995 10.5402 1.44115C10.6574 1.72029 10.7408 2.01265 10.7886 2.31189H10.0037C9.78518 2.31189 9.67589 2.41198 9.67589 2.63217V2.74226C9.67589 2.85236 9.89446 2.95244 10.0037 2.95244H10.8581C10.8511 3.45937 10.743 3.9597 10.5402 4.4237C10.5323 4.50827 10.4934 4.58681 10.4309 4.64389C10.4377 4.66119 10.44 4.67992 10.4376 4.69835C10.4352 4.71679 10.4283 4.73431 10.4174 4.7493C10.4065 4.76428 10.392 4.77625 10.3752 4.78407C10.3585 4.79189 10.3401 4.79531 10.3217 4.79402ZM10.1031 2.63217H12.4874C12.4874 2.63217 12.4874 2.70223 12.4874 2.74226H10.0037L10.1031 2.63217ZM12.9146 3.17263C12.8028 3.05821 12.7298 2.91106 12.706 2.75227C12.706 2.75227 12.706 2.68221 12.706 2.64218C12.7656 2.35193 13.0339 2.0917 13.2226 2.0917C13.4224 2.09546 13.6136 2.17395 13.7591 2.31189C13.8684 2.31189 13.9777 2.52207 13.9777 2.63217C13.9777 2.74226 13.9777 2.95244 13.8684 3.06254C13.7591 3.17263 13.5405 3.28273 13.3319 3.28273C13.1233 3.28273 12.9941 3.28273 12.9146 3.17263ZM11.9212 26.3625C11.099 26.4367 10.2708 26.4031 9.45733 26.2624L9.2487 26.0222C9.28544 26.0846 9.33429 26.139 9.39232 26.1819C9.45035 26.2249 9.51639 26.2557 9.58648 26.2724C10.0534 26.2724 10.5303 25.3416 10.6495 24.1006C10.7735 23.3773 10.6619 22.633 10.3316 21.9788C10.9451 22.01 11.5524 22.1176 12.1397 22.299C12.3373 22.3045 12.5269 22.3787 12.6762 22.5092C12.7417 22.5604 12.7952 22.6256 12.833 22.6999C12.8707 22.7743 12.8918 22.8561 12.8948 22.9396C12.987 23.2417 13.0404 23.5545 13.0537 23.8704L12.249 23.8103C12.1397 23.7002 12.1397 23.8103 12.0304 23.8103C11.9212 23.8103 11.9311 23.9104 11.9311 24.0205V24.2407C11.9311 24.4509 12.0304 24.561 12.1397 24.561L13.0239 24.641C12.9655 25.1089 12.8098 25.5591 12.5669 25.9622C12.4676 25.9622 12.4676 26.0723 12.3583 26.1824C12.249 26.2924 12.249 26.2924 12.1397 26.2924C12.0304 26.2924 12.0304 26.3625 11.9212 26.3625ZM15.4579 24.0205C15.5439 24.0162 15.6298 24.0301 15.71 24.0613C15.7903 24.0924 15.8632 24.1402 15.9241 24.2015C15.9849 24.2628 16.0323 24.3362 16.0633 24.4171C16.0942 24.498 16.108 24.5845 16.1037 24.6711C16.0862 24.8277 16.0091 24.9715 15.8888 25.0722C15.7684 25.1729 15.614 25.2229 15.4579 25.2115C15.3728 25.2144 15.2881 25.1995 15.209 25.1676C15.1299 25.1358 15.0582 25.0878 14.9984 25.0267C14.9387 24.9656 14.8922 24.8926 14.8618 24.8125C14.8315 24.7323 14.818 24.6467 14.8221 24.561C14.8373 24.4052 14.9122 24.2615 15.031 24.1605C15.1497 24.0596 15.3029 24.0093 15.4579 24.0205ZM14.5241 24.4409L12.1397 24.2407V24.1306L14.5539 24.3308L14.5241 24.4409ZM13.5803 24.6811L14.5738 24.7611C14.642 24.9514 14.7658 25.1164 14.929 25.2343C15.0922 25.3522 15.287 25.4176 15.4878 25.4217C16.0242 25.4217 16.4812 25.1014 16.3521 24.6711C16.3521 24.5572 16.3297 24.4444 16.2861 24.3393C16.2425 24.2343 16.1787 24.1389 16.0983 24.0589C16.0179 23.9788 15.9226 23.9156 15.8178 23.8729C15.713 23.8303 15.6008 23.809 15.4878 23.8103C15.3621 23.7837 15.2319 23.789 15.1087 23.8257C14.9856 23.8624 14.8735 23.9293 14.7824 24.0205L13.6597 23.9204C13.6641 23.5147 13.5968 23.1114 13.4611 22.7294L17.1071 23.0697C17.3082 23.4934 17.4262 23.9521 17.4548 24.4208L17.2065 25.6119C17.0488 25.9504 16.8336 26.2586 16.5706 26.5226L13.1531 26.1824C13.3724 25.6969 13.5164 25.1805 13.5803 24.651V24.6811Z" fill="currentColor"></path>
    </g>
    <defs>
      <clipPath id="clip0_119_897">
        <rect width="32" height="35" fill="white"></rect>
      </clipPath>
    </defs>
  </symbol>
  <symbol fill="none" xmlns="http://www.w3.org/2000/svg" viewBox="0 0 41 28" id="icon3">
    <g clip-path="url(#clip0_119_908)">
      <path d="M20.8945 11.0746C20.5175 10.6975 20.0823 10.3833 19.6057 10.1442C19.2842 9.99606 18.95 9.87728 18.6071 9.78927C18.0636 9.65774 17.4942 9.68134 16.9634 9.85738C16.6513 9.93657 16.3543 10.0666 16.0843 10.2422C16.0147 10.3749 15.9135 10.4065 15.7427 10.5707C15.2682 10.6277 14.8269 10.8434 14.4904 11.1828C14.4208 11.3155 14.2184 11.3785 14.1488 11.5112C13.3612 11.6772 12.6346 12.0572 12.049 12.6094L11.6443 12.7355C11.3392 12.9099 11.0724 13.1441 10.8598 13.4239C10.6275 13.8303 10.5031 14.2894 10.4983 14.7574L6.33019 17.0549C6.30336 17.0633 6.28094 17.082 6.26788 17.1068C6.25482 17.1317 6.25218 17.1608 6.26054 17.1876L4.05957 18.3173L3.95839 18.3488L3.00812 20.6428L3.03964 20.744C3.12234 21.3054 3.25731 21.8579 3.44279 22.3943C3.69634 23.3433 4.1601 24.223 4.79972 24.9685C5.27929 25.4978 5.86476 25.9205 6.51817 26.209C7.02025 26.4123 7.54751 26.5467 8.08562 26.6087L8.11714 26.7099C8.1255 26.7367 8.14418 26.7591 8.16906 26.7722C8.19395 26.7852 8.223 26.7879 8.24984 26.7795L10.7543 25.5553L10.8555 25.5237L15.1944 23.062C15.3918 23.1751 15.6047 23.2583 15.8264 23.3091L16.8315 23.329L17.135 23.2344C17.3374 23.1714 17.6094 22.9756 17.8118 22.9126L18.3176 22.755C18.9792 22.4582 19.562 22.0105 20.0193 21.4479L20.5252 21.2903C20.8317 21.1742 21.1178 21.0101 21.3728 20.8042L21.6763 20.7097C22.0219 20.6202 22.3522 20.4799 22.6565 20.2933C23.1207 19.923 23.5059 19.4633 23.7893 18.9414C24.0733 18.0784 24.0563 17.1446 23.7411 16.2926C23.5155 15.2481 23.1282 14.2452 22.5931 13.3203C22.123 12.5037 21.5523 11.7493 20.8945 11.0746ZM6.7598 17.3651L7.29059 17.6437C7.45322 17.8036 7.64381 17.9323 7.8529 18.0235C8.16263 18.2423 8.51277 18.3973 8.88295 18.4796L7.32056 19.5213L4.76118 18.4317L6.7598 17.3651ZM11.1489 22.5464L9.35265 23.55L7.77507 20.2677L9.57134 19.2641C9.78461 19.8681 10.0419 20.4557 10.3411 21.0222C10.6314 21.5977 10.8901 22.0721 11.1489 22.5464ZM10.2282 19.9474C10.6197 20.4227 10.8749 20.9954 10.9664 21.6043C10.8718 21.3008 10.7076 21.13 10.6131 20.8264C10.5185 20.5229 10.3228 20.2509 10.2282 19.9474ZM11.275 22.9511L11.3065 23.0523L9.51025 24.0559L9.47873 23.9547L11.275 22.9511ZM7.68051 19.9641L7.64899 19.8629L9.17986 18.72C9.23056 18.7481 9.27441 18.787 9.30825 18.8341C9.3421 18.8811 9.3651 18.9351 9.3756 18.992L7.68051 19.9641ZM3.37469 20.7506L4.28682 18.6905L7.34546 19.9575L7.4085 20.1599L9.08064 23.7458L8.83354 24.3777L8.58644 25.0097C8.812 23.7794 8.57442 22.5092 7.91945 21.4436C7.14311 20.0205 5.29197 18.7103 4.34325 19.2279C4.19666 19.3141 4.07297 19.4343 3.98262 19.5783C3.89227 19.7224 3.83791 19.8861 3.82414 20.0556C3.68811 20.7414 3.70389 21.4488 3.87037 22.1279C3.58852 21.7195 3.4177 21.2449 3.37469 20.7506ZM4.56079 23.489C4.02602 22.4539 3.81555 21.2817 3.95684 20.1252C4.03372 19.8538 4.19029 19.6117 4.40629 19.4302L4.50747 19.3987C5.41805 19.115 6.90262 20.3175 7.64744 21.6394C8.23567 22.6926 8.45909 23.9108 8.28291 25.1043C8.2763 25.4393 8.13698 25.7047 7.93463 25.7677C7.82203 25.8461 7.68888 25.8896 7.55174 25.8929C7.41461 25.8961 7.27954 25.859 7.16336 25.786C6.06251 25.3343 5.14577 24.5252 4.56079 23.489ZM6.72713 25.8109L6.4984 25.6824C6.68874 25.7802 6.88811 25.8593 7.0937 25.9187C7.34396 26.0098 7.61931 26.0032 7.86498 25.9004L8.06733 25.8374C8.21158 25.7647 8.33062 25.6502 8.40899 25.509L8.16189 26.1409C7.67 26.1021 7.18654 25.991 6.72713 25.8109ZM10.5271 25.1821L8.49694 26.1475L9.13045 24.6182L10.9267 23.6146C10.7235 24.1167 10.589 24.644 10.5271 25.1821ZM11.2734 24.7276C11.5185 24.0657 11.6015 23.3548 11.5155 22.6542C11.3906 21.2293 10.7777 19.8912 9.7803 18.866C9.05743 18.0762 8.14685 17.4818 7.13299 17.1378L12.9265 14.0009C13.2635 14.0139 13.5935 14.1005 13.8935 14.2547C14.4294 14.4235 14.9097 14.7341 15.2835 15.1536C15.8529 15.6899 16.2877 16.3531 16.5525 17.0891C16.8033 17.5982 17.006 18.1296 17.158 18.6764C17.3067 19.1654 17.3535 19.6797 17.2958 20.1875C17.2931 20.5547 17.2175 20.9178 17.0736 21.2557C17.012 21.4797 16.8786 21.6772 16.6938 21.818L11.2734 24.7276ZM17.9013 21.7748C17.7619 22.0402 17.6542 22.4067 17.4833 22.5709C17.235 22.7127 16.9588 22.7988 16.6739 22.8231C16.3883 22.891 16.0929 22.9079 15.8015 22.8729C15.6688 22.8033 15.5676 22.8348 15.4349 22.7651L16.858 21.9888C17.3118 21.4585 17.5731 20.7904 17.5993 20.0929C17.6571 19.5851 17.6102 19.0709 17.4615 18.5819C17.2991 18.0015 17.0859 17.4365 16.8245 16.8934C16.4995 16.1361 16.0224 15.4536 15.4228 14.8882C15.0033 14.4442 14.4801 14.1114 13.9001 13.9196C13.5249 13.7864 13.1288 13.7218 12.7307 13.7289L12.6296 13.7605L10.7321 14.7956C10.7554 14.4881 10.8533 14.1909 11.0174 13.9297C11.1746 13.6588 11.4309 13.4596 11.7322 13.374C12.0511 13.201 12.4142 13.1265 12.7755 13.16C13.2674 13.1988 13.7508 13.31 14.2103 13.49C14.841 13.7186 15.3919 14.1253 15.796 14.6609C16.4311 15.333 16.9381 16.1155 17.2922 16.9697C17.6929 17.9597 17.9434 19.004 18.0355 20.068C18.0894 20.6404 18.044 21.2178 17.9013 21.7748ZM19.4886 21.1693C19.1764 21.6185 18.7537 21.9796 18.2612 22.2176C18.4106 22.0397 18.4974 21.8177 18.5083 21.5856C18.6598 20.9954 18.6947 20.3813 18.611 19.7777C18.5083 18.6794 18.2474 17.6018 17.8363 16.5782C17.4802 15.6724 16.9232 14.8591 16.2073 14.1998C15.7067 13.6945 15.126 13.2754 14.4889 12.9592C14.0018 12.7133 13.4668 12.5769 12.9214 12.5596C12.8202 12.5911 12.8202 12.5911 12.6876 12.5214C13.0185 12.2375 13.4136 12.0383 13.8386 11.9408C14.0412 11.8602 14.2604 11.83 14.4772 11.8529C14.7892 11.9495 15.09 12.0791 15.3746 12.2393C15.9202 12.4979 16.4317 12.8233 16.8973 13.2079C17.8656 14.009 18.6369 15.0219 19.1516 16.1684C19.57 17.1591 19.7882 18.2228 19.7936 19.2983C19.8098 19.9355 19.7063 20.5702 19.4886 21.1693ZM21.1455 20.4311C20.8451 20.6962 20.4848 20.8846 20.0956 20.9801C20.2216 20.4081 20.3003 19.8267 20.331 19.2419C20.315 18.1317 20.0863 17.0349 19.6574 16.0108C19.0707 14.8146 18.2481 13.7494 17.2389 12.8794C16.7649 12.4628 16.2432 12.1037 15.6847 11.8097C15.4065 11.6854 15.1164 11.5899 14.8189 11.5245L14.92 11.4929C15.2443 11.2645 15.5973 11.0798 15.9699 10.9439C16.8538 11.0664 17.7033 11.3684 18.4663 11.8311C19.1848 12.2818 19.7916 12.8898 20.2411 13.6091C20.9272 14.6167 21.4273 15.739 21.7175 16.923C22.0162 17.7781 22.0331 18.7064 21.7658 19.5718C21.6589 19.9186 21.441 20.2205 21.1455 20.4311ZM23.4924 18.7009C23.3054 19.1886 22.9686 19.6044 22.5305 19.8886C22.3342 20.049 22.102 20.1594 21.8537 20.2104C21.9234 20.0777 22.0942 19.9135 22.1324 19.6796C22.3955 18.7362 22.392 17.7384 22.1222 16.7969C21.8717 15.5631 21.3573 14.3982 20.6143 13.3818C20.1373 12.6462 19.5242 12.0084 18.8079 11.5027C18.0838 11.0299 17.2673 10.7167 16.4128 10.5839L16.4824 10.4512C16.7151 10.2818 16.9797 10.1616 17.2603 10.0979C17.7254 9.92784 18.2354 9.92605 18.7017 10.0928C19.0092 10.1161 19.3064 10.214 19.5675 10.378C19.9948 10.6039 20.3848 10.8942 20.7237 11.2388C21.3899 11.8486 21.923 12.5895 22.2896 13.4149C22.7486 14.297 23.1123 15.2255 23.3745 16.1848C23.6733 16.9911 23.7145 17.8702 23.4924 18.7009Z" fill="currentColor"></path>
      <path d="M7.73909 25.4955L7.84027 25.4639C8.58664 25.0094 8.25314 23.2264 7.70406 22.1765C7.19783 21.1382 6.35056 20.305 5.30385 19.8164C5.20029 19.764 5.0863 19.7357 4.9703 19.7334C4.85431 19.7311 4.73929 19.7549 4.63375 19.8031C4.52793 19.8569 4.43754 19.9368 4.37109 20.0351C4.30465 20.1335 4.26433 20.2472 4.25395 20.3654C4.0705 21.4201 4.26159 22.5058 4.79415 23.4345C5.32671 24.3631 6.16721 25.0764 7.17017 25.4507C7.3562 25.4959 7.54828 25.511 7.73909 25.4955ZM4.833 23.2929C4.39591 22.4082 4.24015 21.4109 4.38665 20.4351C4.35747 21.374 4.60746 22.3004 5.105 23.0972C5.84982 24.4191 7.20169 25.5519 7.77723 25.2616C7.60508 25.3226 7.4209 25.342 7.23983 25.318C6.23374 24.931 5.38635 24.218 4.833 23.2929Z" fill="currentColor"></path>
      <path d="M37.22 8.39694L37.0885 8.43792L37.0538 8.32662L34.7655 9.63892L34.6775 9.00035L36.9457 7.69435L36.8763 7.47176L37.1293 7.39296L37.1734 7.53461C37.2934 6.73935 37.1568 5.92654 36.7835 5.21417C36.5575 4.74982 36.2732 4.31619 35.9375 3.92379C35.7854 3.60337 35.547 3.3317 35.2491 3.13928L35.2239 3.05834C34.4871 2.42934 33.5901 2.01712 32.633 1.86758L32.5723 1.88649L29.4541 3.6349L29.3529 3.66643L28.935 4.4626L28.0874 4.94864L27.5434 5.34012C27.4864 5.35062 27.4325 5.37362 27.3855 5.40746C27.3384 5.44131 27.2995 5.48516 27.2714 5.53585L27.2049 5.67867L27.3061 5.64715C27.3194 5.64301 27.3334 5.64153 27.3472 5.64279C27.3611 5.64405 27.3745 5.64803 27.3869 5.65449C27.3992 5.66096 27.4101 5.66979 27.419 5.68049C27.4279 5.69118 27.4346 5.70352 27.4388 5.7168L27.54 5.68528C28.461 5.76113 29.3396 6.1047 30.0678 6.67369C30.7391 7.25962 31.214 8.03777 31.4282 8.90268C31.5466 9.3 31.6183 9.70972 31.6421 10.1236C31.5353 9.09399 31.1346 8.11684 30.4877 7.30877C29.7335 6.50747 28.7485 5.96086 27.6695 5.74482C27.6427 5.75318 27.6136 5.75054 27.5887 5.73748C27.5639 5.72441 27.5452 5.702 27.5368 5.67517C27.4356 5.70669 27.3345 5.73821 27.366 5.83938C27.3975 5.94056 27.429 6.04174 27.5302 6.01022C27.557 6.00186 27.5861 6.0045 27.611 6.01756C27.6359 6.03062 27.6545 6.05304 27.6629 6.07987C28.6981 6.26874 29.6421 6.794 30.3483 7.57416C30.8032 8.18228 31.1298 8.87647 31.3082 9.61461C31.4866 10.3528 31.5133 11.1195 31.3864 11.8682L31.1841 11.9312C31.1924 11.9581 31.1898 11.9871 31.1767 12.012C31.1637 12.0369 31.1413 12.0556 31.1144 12.0639C31.34 12.1823 31.3886 12.2671 31.2445 12.2676L31.1597 12.3162C31.0585 12.3477 30.9955 12.1454 30.9955 12.1454L30.8943 12.1769C30.9706 11.7092 30.9772 11.3741 31.0535 10.9064C31.1297 10.4386 30.9655 10.2678 30.9406 9.83156L30.7515 9.2245C30.5193 8.61156 30.1912 8.0394 29.7794 7.52941C29.1531 6.82036 28.3379 6.30435 27.429 6.04174C27.4157 6.04587 27.4018 6.04736 27.3879 6.0461C27.374 6.04484 27.3606 6.04086 27.3482 6.03439C27.3359 6.02792 27.325 6.01909 27.3161 6.0084C27.3072 5.99771 27.3005 5.98537 27.2963 5.97208C27.1952 6.0036 27.1794 5.95301 27.1573 5.88219C27.1353 5.81137 27.1573 5.88219 27.1573 5.88219C27.1573 5.88219 26.955 5.94523 26.9865 6.04641C27.018 6.14758 26.8157 6.21062 26.746 6.34332L23.666 7.85786L23.4636 7.9209C22.4137 8.46998 22.3807 10.1452 23.1504 11.9034L23.2225 11.8143C23.2079 11.9159 23.2161 12.0195 23.2466 12.1176C23.2772 12.2156 23.3292 12.3055 23.399 12.3809C23.5317 12.4505 23.5632 12.5517 23.6644 12.5202C23.7272 12.5878 23.8054 12.6393 23.8923 12.6702C23.9792 12.7011 24.0723 12.7105 24.1637 12.6976L24.366 12.6346C24.5303 12.8054 24.726 13.0774 24.8902 13.2483C25.1574 13.4804 25.4449 13.6881 25.7494 13.8685C25.8971 13.9765 26.0702 14.0443 26.2518 14.0655C26.4335 14.0867 26.6176 14.0606 26.7861 13.9896C26.9885 13.9265 27.0581 13.7938 27.2289 13.6296C27.3508 13.4636 27.4317 13.2711 27.4648 13.0678C27.498 12.8646 27.4825 12.6564 27.4196 12.4602C27.3225 11.7919 27.1204 11.1431 26.8207 10.5379C26.5499 9.97111 26.1309 9.48803 25.6082 9.13972C25.289 8.80627 24.8696 8.58616 24.4139 8.51282C24.1971 8.48997 23.9779 8.52015 23.7753 8.60076C23.1998 8.89106 23.1103 10.0289 23.6212 11.3127C23.5201 11.3442 23.5201 11.3442 23.4504 11.4769C23.4146 11.4791 23.3799 11.4899 23.3492 11.5084C22.7948 10.0495 22.7992 8.63847 23.567 8.28828C23.8267 8.17739 24.1103 8.13442 24.3912 8.16342C24.6721 8.19242 24.941 8.29244 25.1726 8.45405C25.9045 8.92355 26.4942 9.58427 26.8778 10.3647C27.8183 11.9586 27.8168 13.7351 26.9692 14.2211C26.7181 14.3352 26.4425 14.385 26.1673 14.3661C25.8921 14.3472 25.6259 14.2602 25.3927 14.1129C24.8572 13.7623 24.4081 13.2951 24.0789 12.7462C23.941 12.8058 23.7865 12.8146 23.6427 12.7711C24.0369 13.433 24.5906 13.9856 25.2534 14.3783C25.4864 14.5602 25.7572 14.6877 26.046 14.7514C26.3347 14.8151 26.634 14.8134 26.922 14.7464L27.2255 14.6518C27.4279 14.5888 27.4975 14.4561 27.6684 14.2919L30.211 12.8338L30.6472 12.8089L31.1531 12.6513C31.2611 12.6897 31.3787 12.692 31.4881 12.6579C31.5976 12.6238 31.6931 12.5551 31.7602 12.4621L32.1649 12.3361L33.3027 12.4256L33.4039 12.394L36.4524 10.7783C36.4792 10.77 36.5016 10.7513 36.5147 10.7264C36.5278 10.7015 36.5304 10.6725 36.5221 10.6456L37.4342 8.58552L37.3081 8.18081L37.3585 8.34269L37.22 8.39694ZM30.0417 11.2216C30.0497 11.5711 30.009 11.92 29.9207 12.2582L27.9851 13.5272C28.115 12.9364 28.1257 12.3257 28.0166 11.7307C27.9075 11.1358 27.6808 10.5685 27.3496 10.0623C26.9012 9.2669 26.2715 8.58843 25.5117 8.082C25.2496 7.88032 24.9411 7.74748 24.6144 7.69558L26.8154 6.56591C27.2614 6.73177 27.6944 6.93079 28.1108 7.16129C28.6734 7.61864 29.1211 8.20145 29.4179 8.86299C29.6966 9.40022 29.878 9.98253 29.9538 10.583C30.0168 10.7853 29.9787 11.0192 30.0417 11.2216ZM30.7235 12.3411L30.4896 12.303C30.5181 11.7541 30.4953 11.2039 30.4215 10.6593C30.3348 10.0249 30.1431 9.40942 29.8541 8.83808C29.5086 8.15004 29.0173 7.54556 28.4143 7.06673C28.0712 6.81375 27.7053 6.59332 27.3212 6.40831C28.1975 6.67048 28.9945 7.14702 29.6401 7.7948C30.0077 8.29228 30.3229 8.82642 30.5807 9.38872L30.7698 9.99577C30.8483 10.314 30.8757 10.6426 30.8511 10.9694C30.8574 11.4299 30.8146 11.8897 30.7235 12.3411ZM31.6633 10.4056C31.6633 10.4056 31.6564 10.4188 31.6633 10.4056V10.4056ZM36.5582 5.41754C36.8367 5.95485 37.0181 6.53712 37.0941 7.13753L34.4503 8.62716L33.2326 5.78761L35.8765 4.29798C36.1885 4.61241 36.4221 4.99596 36.5582 5.41754ZM35.6807 4.02598L33.0369 5.51561L32.4431 5.03463L35.0554 3.44383C35.3098 3.5817 35.525 3.78203 35.6807 4.02598ZM32.6984 2.2912C33.4883 2.3716 34.2385 2.67726 34.8596 3.17182L32.1462 4.79414L29.9534 3.81235L32.6984 2.2912ZM30.4378 6.43632C29.7687 5.88727 28.9665 5.52457 28.1124 5.38487L28.3147 5.32183C28.8539 5.35594 29.3727 5.54035 29.8125 5.85417C30.5018 6.28844 31.0951 6.85905 31.5558 7.53096C31.9538 8.23744 32.1976 9.02017 32.2714 9.82766C32.2263 9.47456 32.1196 9.13211 31.9562 8.8159C31.6826 7.89631 31.1565 7.0719 30.4378 6.43632ZM32.2458 10.102C32.2868 10.2335 32.2671 10.384 32.2676 10.5281C32.2681 10.6722 32.261 10.8632 32.1913 10.9959C32.2347 10.7 32.2529 10.401 32.2458 10.102ZM32.6026 10.5347C32.6978 9.41509 32.4637 8.29205 31.929 7.3037C31.4692 6.52882 30.8106 5.89093 30.0215 5.45608C29.6301 5.22317 29.2031 5.05621 28.7575 4.96187L29.2319 4.70309C30.1948 4.94144 31.0763 5.43337 31.7847 6.12773C32.4404 6.7278 32.8834 7.52467 33.047 8.39835C33.266 9.05766 33.3324 9.75807 33.2412 10.4468C33.2124 10.7018 33.1394 10.9499 33.0256 11.1799L32.4501 11.4702C32.5244 11.1627 32.5754 10.8499 32.6026 10.5347ZM32.8482 11.6792L33.1899 11.3508C33.3176 11.0413 33.4029 10.716 33.4436 10.3837C33.5695 9.65675 33.5269 8.91055 33.319 8.20261C33.0484 7.32192 32.57 6.51925 31.924 5.86233C31.2168 5.16629 30.3349 4.67409 29.3712 4.4377L29.5802 4.03961L32.0384 5.16071L32.7964 5.81252L34.0771 8.85442L34.2911 9.8977L34.0821 10.2958L33.4171 11.7239L32.8482 11.6792ZM36.4656 10.1082L33.9926 11.4336L34.7589 9.97397L37.1307 8.68008L36.4656 10.1082Z" fill="currentColor"></path>
      <path d="M27.1336 5.80133C27.137 5.82962 27.1456 5.85706 27.1589 5.88227C27.1482 5.81316 27.1614 5.74248 27.1963 5.6819C27.1084 5.72039 27.1147 5.74062 27.1336 5.80133Z" fill="currentColor"></path>
      <path d="M37.1976 7.57202L37.1945 7.5619L37.1706 7.41395L36.9082 7.4624L36.9472 7.69444L37.0655 8.32356L37.0837 8.41777L37.2215 8.39703L37.3461 8.36932L37.3159 8.20114L37.1976 7.57202Z" fill="currentColor"></path>
    </g>
    <defs>
      <clipPath id="clip0_119_908">
        <rect width="37.048" height="16.5317" fill="white" transform="translate(0.197266 11.9731) rotate(-17.3039)"></rect>
      </clipPath>
    </defs>
  </symbol>
  <symbol fill="none" xmlns="http://www.w3.org/2000/svg" viewBox="0 0 34 36" id="icon4">
    <path d="M32.5479 24.0208C31.975 23.5021 31.2399 23.1982 30.4679 23.1608C30.4573 23.1122 30.4405 23.0652 30.4179 23.0208C30.2974 22.769 30.1108 22.5547 29.8779 22.4008C29.9379 21.9708 29.9879 21.5508 30.0279 21.1208C30.1887 19.1935 30.0674 17.2531 29.6679 15.3608C29.1178 12.8817 28.0811 10.5364 26.6179 8.46082C25.2365 6.32476 23.4535 4.47724 21.3679 3.02082C19.7168 1.83051 17.8635 0.949587 15.8979 0.420824C14.6995 0.079442 13.4517 -0.0558164 12.2079 0.020824C11.1721 0.0958689 10.1572 0.349614 9.20791 0.770824C8.85791 0.930824 8.38791 1.17082 7.79791 1.48082L6.36791 2.23082C5.36791 2.81082 4.20791 3.48082 3.02791 4.19082V4.25082C2.72258 4.4821 2.43815 4.73976 2.17791 5.02082C1.43906 5.86435 0.890015 6.85673 0.567914 7.93082C0.256759 8.87528 0.0751041 9.85756 0.0279139 10.8508C-0.0415703 12.097 0.0187543 13.3471 0.207914 14.5808C0.419796 16.1435 0.798628 17.6789 1.33791 19.1608C2.04834 20.8912 2.97577 22.5243 4.09791 24.0208C4.95537 25.2627 5.91182 26.4331 6.95791 27.5208C7.98946 28.5841 9.13275 29.5329 10.3679 30.3508C11.6794 31.2085 13.1028 31.8815 14.5979 32.3508C15.5832 32.7175 16.6182 32.9333 17.6679 32.9908H18.4479C18.7879 32.9908 19.1179 32.8908 19.4479 32.8208C19.3865 33.0161 19.3865 33.2255 19.4479 33.4208C19.559 33.6647 19.748 33.8647 19.9851 33.9896C20.2221 34.1145 20.494 34.1571 20.7579 34.1108H21.1979C21.4346 34.1139 21.6699 34.1475 21.8979 34.2108C22.0413 34.2449 22.1793 34.2987 22.3079 34.3708C22.4179 34.3708 22.5679 34.4908 22.8079 34.5808C23.1851 34.7294 23.5729 34.8498 23.9679 34.9408C24.2981 35.0021 24.6323 35.0389 24.9679 35.0508H25.1079C28.9279 31.8308 31.7179 29.4708 31.8679 29.3308C31.9295 29.2675 31.9832 29.197 32.0279 29.1208L32.1779 28.9108C32.2683 28.7855 32.3517 28.6553 32.4279 28.5208C32.5142 28.379 32.5846 28.2281 32.6379 28.0708C32.938 27.9894 33.2043 27.8142 33.3979 27.5708C34.1079 26.5808 33.4879 24.8408 32.5479 24.0208ZM29.7879 23.0208C29.8469 23.0934 29.9004 23.1703 29.9479 23.2508L29.7379 23.3108C29.7307 23.2115 29.7478 23.112 29.7879 23.0208ZM8.11791 2.18082C8.70791 1.88082 9.11791 1.64082 9.49791 1.49082C10.3774 1.09935 11.3179 0.862546 12.2779 0.790824C13.4368 0.710104 14.6009 0.831926 15.7179 1.15082C17.5781 1.64378 19.3332 2.47053 20.8979 3.59082C22.9373 5.01404 24.6798 6.82106 26.0279 8.91082C27.4383 10.9074 28.4377 13.1645 28.9679 15.5508C29.3459 17.3717 29.4604 19.2374 29.3079 21.0908C29.239 21.9827 29.1053 22.8684 28.9079 23.7408L26.9079 25.3708C26.8149 25.2178 26.6899 25.0867 26.5415 24.9866C26.393 24.8865 26.2246 24.8197 26.0479 24.7908C25.877 24.786 25.7072 24.8184 25.55 24.8858C25.3929 24.9531 25.2523 25.0538 25.1379 25.1808C25.1779 24.9008 25.2079 24.6208 25.2279 24.3408C25.4446 21.7974 25.1627 19.2362 24.3979 16.8008C23.4477 13.8908 21.855 11.2319 19.7379 9.02082C18.2098 7.32457 16.4123 5.89201 14.4179 4.78082C12.9582 3.82874 11.3111 3.20126 9.58791 2.94082C9.13035 2.88099 8.66938 2.85092 8.20791 2.85082C7.76981 2.84257 7.33175 2.86933 6.89791 2.93082H6.73791L8.11791 2.18082ZM7.11791 3.66082C7.89532 3.57079 8.68051 3.57079 9.45791 3.66082C11.0848 3.9081 12.6417 4.49406 14.0279 5.38082C15.9489 6.4603 17.6815 7.84505 19.1579 9.48082C21.2 11.623 22.7285 14.2013 23.6279 17.0208C24.3608 19.3665 24.6358 21.8313 24.4379 24.2808C24.3671 25.0261 24.257 25.7672 24.1079 26.5008C23.6179 27.1908 23.1079 27.8408 22.4879 28.5008L22.2079 28.8308C21.6216 28.7938 21.0375 28.7271 20.4579 28.6308C19.3957 28.4411 18.3566 28.1394 17.3579 27.7308C15.9466 27.1074 14.6276 26.2932 13.4379 25.3108C12.0623 24.2618 10.8257 23.042 9.75791 21.6808C8.76645 20.3706 7.94022 18.9432 7.29791 17.4308C6.78491 16.2884 6.36033 15.1082 6.02791 13.9008C5.63272 12.6435 5.41068 11.3381 5.36791 10.0208C5.37826 8.89504 5.53627 7.77549 5.83791 6.69082C6.14284 5.63203 6.57605 4.61449 7.12791 3.66082H7.11791ZM19.8979 31.8508C19.4169 32.0081 18.9209 32.1153 18.4179 32.1708C17.1821 32.2626 15.9409 32.0887 14.7779 31.6608C13.3481 31.1961 11.9862 30.5437 10.7279 29.7208C9.57121 28.9333 8.49886 28.0285 7.52791 27.0208C6.51741 25.9623 5.58811 24.8291 4.74791 23.6308C3.67786 22.1752 2.79118 20.5933 2.10791 18.9208C1.5887 17.4841 1.22659 15.9955 1.02791 14.4808C0.84666 13.2967 0.789684 12.0968 0.857914 10.9008C0.888196 9.97353 1.04636 9.05486 1.32791 8.17082C1.6023 7.20158 2.0795 6.30171 2.72791 5.53082C3.66372 4.56243 4.89499 3.93272 6.22791 3.74082C5.19907 5.67524 4.65354 7.82988 4.63791 10.0208C4.69069 11.4179 4.93635 12.801 5.36791 14.1308C5.70078 15.3712 6.1356 16.582 6.66791 17.7508C8.03594 20.973 10.2297 23.7774 13.0279 25.8808C14.2677 26.9117 15.6483 27.7602 17.1279 28.4008C18.1749 28.8306 19.2643 29.1491 20.3779 29.3508C20.7979 29.4208 21.2279 29.4808 21.6579 29.5208C21.0264 30.2625 20.4387 31.0405 19.8979 31.8508ZM24.8479 34.2108C24.5879 34.2108 24.3479 34.2108 24.1079 34.1208C23.7686 34.0338 23.4347 33.927 23.1079 33.8008L22.6579 33.6008C22.4866 33.5049 22.3008 33.4374 22.1079 33.4008C21.8298 33.313 21.5396 33.2691 21.2479 33.2708H20.7079C20.6136 33.3007 20.5123 33.3007 20.4179 33.2708C20.3143 33.2284 20.2291 33.1504 20.1779 33.0508C20.1793 32.8424 20.2457 32.6396 20.3679 32.4708C21.1708 31.2586 22.0598 30.1056 23.0279 29.0208C23.7823 28.1942 24.4773 27.3153 25.1079 26.3908C25.4479 25.8608 25.7079 25.6008 25.8879 25.6208C26.0679 25.6408 26.1979 25.8408 26.2879 26.0308C26.3779 26.2211 26.3991 26.4367 26.3479 26.6408C26.2937 27.0551 26.3339 27.4763 26.4655 27.8729C26.5971 28.2695 26.8167 28.6312 27.1079 28.9308C27.7252 29.5001 28.512 29.8514 29.3479 29.9308L29.8279 30.0108L24.8479 34.2108ZM31.3479 28.7908C31.0646 29.0885 30.7246 29.3265 30.3479 29.4908L29.9179 29.4008C29.6379 29.3308 29.3679 29.2608 29.0979 29.1708C28.5846 29.0045 28.123 28.7082 27.7579 28.3108C27.493 28.0261 27.2979 27.6838 27.1879 27.3108C27.1367 27.1013 27.1098 26.8865 27.1079 26.6708C27.1135 26.485 27.1403 26.3005 27.1879 26.1208L28.6779 24.9208C28.8321 25.8063 29.271 26.6174 29.9279 27.2308C30.3283 27.5908 30.8079 27.8512 31.3279 27.9908C31.5095 28.0305 31.6931 28.0606 31.8779 28.0808C31.7336 28.34 31.5553 28.5787 31.3479 28.7908ZM32.8379 27.0208C32.3779 27.5708 31.2479 27.4008 30.3679 26.6608C29.4879 25.9208 29.1279 24.8208 29.5979 24.2808C30.0679 23.7408 31.1879 23.9008 32.0679 24.6408C32.9479 25.3808 33.2979 26.4508 32.8379 27.0208Z" fill="currentColor"></path>
    <path d="M20.1482 7.02087C19.8182 7.31087 19.8082 7.52087 19.8582 7.63087C19.9082 7.74087 20.0282 7.85087 20.3482 7.85087H20.4982C20.8432 7.80017 21.1796 7.7026 21.4982 7.56087C22.1882 7.27087 22.8682 6.78087 22.7082 6.40087C22.6582 6.29087 22.4982 6.15087 22.0582 6.20087C21.712 6.24 21.3744 6.33454 21.0582 6.48087C20.7314 6.6179 20.4251 6.79963 20.1482 7.02087ZM22.1482 6.43087H22.2982C22.4582 6.43087 22.5482 6.43087 22.5582 6.49087C22.5682 6.55087 22.2782 6.98087 21.4782 7.33087C21.1583 7.4629 20.8219 7.55038 20.4782 7.59087H20.0282C20.0282 7.59087 20.0282 7.43087 20.2582 7.26087C20.5113 7.04491 20.7986 6.87256 21.1082 6.75087C21.4304 6.59815 21.7746 6.49692 22.1282 6.45087L22.1482 6.43087Z" fill="currentColor"></path>
    <path d="M18.8376 6.63082C18.8683 6.69111 18.9173 6.74013 18.9776 6.77082C19.0933 6.7914 19.2118 6.7914 19.3276 6.77082C19.7372 6.76065 20.1411 6.67241 20.5176 6.51082C21.0167 6.31421 21.4405 5.96401 21.7276 5.51082C21.7426 5.47963 21.7505 5.44545 21.7505 5.41082C21.7505 5.37619 21.7426 5.34201 21.7276 5.31082C21.5376 4.95082 20.2576 5.49082 20.1076 5.55082C19.9576 5.61082 18.7076 6.25082 18.8376 6.63082ZM21.4976 5.52082C21.2187 5.88475 20.8451 6.16497 20.4176 6.33082C20.0025 6.52357 19.5427 6.59963 19.0876 6.55082C19.4129 6.25071 19.7932 6.0164 20.2076 5.86082C20.6112 5.66415 21.0495 5.54863 21.4976 5.52082Z" fill="currentColor"></path>
    <path d="M17.6675 5.71094C17.6982 5.76884 17.7475 5.81466 17.8075 5.84094C17.9197 5.88166 18.0382 5.90198 18.1575 5.90094C18.5742 5.88748 18.9847 5.79589 19.3675 5.63094C19.8667 5.43433 20.2904 5.08413 20.5775 4.63094C20.5925 4.6015 20.6002 4.56895 20.6002 4.53594C20.6002 4.50293 20.5925 4.47038 20.5775 4.44094C20.3875 4.07094 19.1075 4.61094 18.9575 4.68094C18.8075 4.75094 17.5375 5.33094 17.6675 5.71094ZM20.3675 4.59094C20.093 4.95746 19.7228 5.24119 19.2975 5.41094C18.8816 5.60076 18.4217 5.67338 17.9675 5.62094C18.2808 5.35728 18.6402 5.15386 19.0275 5.02094C19.4382 4.78321 19.8952 4.63656 20.3675 4.59094Z" fill="currentColor"></path>
    <path d="M16.5571 4.89106C16.5878 4.95135 16.6368 5.00037 16.6971 5.03106C16.8233 5.07049 16.9548 5.09071 17.0871 5.09106C17.4883 5.08228 17.8833 4.99035 18.2471 4.82106C18.7348 4.5975 19.1304 4.2125 19.3671 3.73106C19.3821 3.69987 19.39 3.66569 19.39 3.63106C19.39 3.59643 19.3821 3.56225 19.3671 3.53106C19.2171 3.33106 18.8371 3.53106 17.7571 4.04106C16.6771 4.55106 16.4971 4.67106 16.5571 4.89106ZM19.1471 3.70106C18.9109 4.09402 18.5627 4.40743 18.1471 4.60106C17.7459 4.79298 17.2992 4.86917 16.8571 4.82106C17.177 4.61133 17.5111 4.4242 17.8571 4.26106C18.2721 4.04158 18.7034 3.85436 19.1471 3.70106Z" fill="currentColor"></path>
    <path d="M15.3673 4.20104C15.3793 4.23018 15.397 4.25667 15.4193 4.27898C15.4416 4.30128 15.4681 4.31897 15.4973 4.33104C15.6251 4.37922 15.7607 4.40296 15.8973 4.40104C16.2877 4.38353 16.6712 4.29191 17.0273 4.13104C17.5346 3.90848 17.9484 3.51592 18.1973 3.02104C18.2122 2.99159 18.22 2.95905 18.22 2.92604C18.22 2.89302 18.2122 2.86048 18.1973 2.83104C18.0573 2.63104 17.6773 2.83104 16.5973 3.33104C15.5173 3.83104 15.2973 4.02104 15.3673 4.20104ZM17.9373 3.02104C17.7035 3.41353 17.3543 3.72433 16.9373 3.91104C16.5343 4.10855 16.0828 4.18497 15.6373 4.13104C15.9572 3.9213 16.2913 3.73418 16.6373 3.57104C17.0559 3.35468 17.4905 3.17081 17.9373 3.02104Z" fill="currentColor"></path>
    <path d="M14.2284 3.59084C14.2362 3.61524 14.2492 3.63768 14.2665 3.65665C14.2837 3.67562 14.3048 3.69069 14.3284 3.70084H14.5984C15.0602 3.67912 15.5128 3.56343 15.9284 3.36084C16.4038 3.15529 16.8026 2.80547 17.0684 2.36084C17.0826 2.33842 17.0902 2.3124 17.0902 2.28584C17.0902 2.25928 17.0826 2.23327 17.0684 2.21084C16.9784 2.09084 16.9684 2.10084 16.0684 2.52084L15.0284 3.02084C14.2084 3.44084 14.1884 3.45084 14.2284 3.59084ZM16.2284 2.76084L16.7284 2.52084C16.4793 2.79012 16.1848 3.01352 15.8584 3.18084C15.499 3.34896 15.1134 3.45383 14.7184 3.49084L15.1684 3.27084L16.2284 2.76084Z" fill="currentColor"></path>
    <path d="M13.0779 3.02101C13.0879 3.04576 13.1028 3.06825 13.1217 3.08714C13.1406 3.10603 13.1631 3.12095 13.1879 3.13101C13.2575 3.14099 13.3282 3.14099 13.3979 3.13101C13.8776 3.10293 14.3453 2.96979 14.7679 2.74101C15.2381 2.51394 15.6235 2.14254 15.8679 1.68101C15.8825 1.66061 15.8904 1.63612 15.8904 1.61101C15.8904 1.58589 15.8825 1.56141 15.8679 1.54101C15.7779 1.41101 15.7579 1.42101 14.9179 1.87101L13.9179 2.42101C13.0279 2.91101 13.0279 2.92101 13.0779 3.02101ZM15.0279 2.16101L15.5279 1.90101C15.2914 2.18342 15.0029 2.41768 14.6779 2.59101C14.3245 2.80438 13.9345 2.95019 13.5279 3.02101L13.9579 2.78101L15.0279 2.16101Z" fill="currentColor"></path>
    <path d="M12.5676 2.27068C12.2676 2.43068 12.1676 2.48068 12.2076 2.62068C12.2307 2.66039 12.2657 2.69186 12.3076 2.71068C12.3638 2.7208 12.4214 2.7208 12.4776 2.71068C12.9068 2.6797 13.3236 2.55329 13.6976 2.34068C14.1277 2.12064 14.4776 1.77077 14.6976 1.34068C14.7076 1.31868 14.7127 1.29482 14.7127 1.27068C14.7127 1.24654 14.7076 1.22268 14.6976 1.20068C14.5976 1.10068 14.4976 1.20068 14.1876 1.36068C13.8776 1.52068 13.6876 1.69068 13.2376 1.94068L12.5676 2.27068ZM14.2576 1.58068C14.0656 1.81244 13.8315 2.00583 13.5676 2.15068C13.3147 2.29183 13.0415 2.39303 12.7576 2.45068C12.9076 2.38068 13.0876 2.28068 13.3176 2.15068C13.7476 1.91068 14.0276 1.71068 14.2576 1.58068Z" fill="currentColor"></path>
    <path d="M11.0778 2.41059V2.48059H11.1378C11.1806 2.49043 11.2251 2.49043 11.2678 2.48059C11.6644 2.44197 12.0489 2.32287 12.3978 2.13059C12.8174 1.9479 13.1677 1.63612 13.3978 1.24059V1.16059C13.3078 1.06059 13.2078 1.16059 12.9278 1.30059C12.6478 1.44059 12.4678 1.59059 12.0578 1.82059L11.4878 2.13059C11.1378 2.23059 11.0278 2.28059 11.0778 2.41059ZM12.0778 2.00059L12.7778 1.58059C12.6566 1.73184 12.5191 1.86933 12.3678 1.99059C12.194 2.09078 12.0095 2.17128 11.8178 2.23059L12.0778 2.00059Z" fill="currentColor"></path>
    <path d="M10.0879 2.2506C10.4388 2.2227 10.7797 2.12043 11.0879 1.9506C11.4183 1.77308 11.692 1.50626 11.8779 1.1806C11.7879 1.0906 11.7079 1.1806 11.4679 1.3006C11.2279 1.4206 11.0779 1.5406 10.7379 1.7306L10.2579 1.9906C10.0279 2.1106 9.93794 2.1606 9.97794 2.2806H10.0879V2.2506Z" fill="currentColor"></path>
    <path d="M21.7282 10.021C21.7982 10.181 21.9782 10.241 22.2182 10.241C22.617 10.2006 23.0059 10.0924 23.3682 9.92103C23.7261 9.78644 24.0629 9.60122 24.3682 9.37103C24.6982 9.08103 24.7082 8.87103 24.6582 8.75103C24.6082 8.63103 24.4582 8.50103 24.0182 8.55103C23.672 8.59016 23.3344 8.6847 23.0182 8.83103C22.2482 9.10103 21.5782 9.59103 21.7282 10.021ZM24.0282 8.76103C24.2882 8.76103 24.4082 8.76103 24.4182 8.82103C24.4282 8.88103 24.4182 8.98103 24.1982 9.15103C23.937 9.36075 23.6475 9.53245 23.3382 9.66103C22.5382 10.001 22.0282 9.96103 21.9882 9.87103C21.9482 9.78103 22.2382 9.41103 23.0282 9.02103C23.3452 8.8806 23.6829 8.79278 24.0282 8.76103Z" fill="currentColor"></path>
    <path d="M22.6171 11.1708C22.6871 11.3308 22.8671 11.3908 23.1071 11.3908C23.5184 11.3621 23.9213 11.2605 24.2971 11.0908C24.6243 10.9545 24.9307 10.7727 25.2071 10.5508C25.5471 10.2508 25.5571 10.0508 25.5071 9.93084C25.3471 9.56084 24.5071 9.71084 23.8271 10.0108C23.1471 10.3108 22.4571 10.8008 22.6171 11.1708ZM25.2771 10.0208C25.2771 10.0208 25.2771 10.1808 25.0471 10.3508C24.7881 10.5558 24.5021 10.7241 24.1971 10.8508C23.3971 11.2008 22.8871 11.1608 22.8471 11.0708C22.8071 10.9808 23.1271 10.5808 23.9271 10.2308C24.3445 10.0226 24.8162 9.94922 25.2771 10.0208Z" fill="currentColor"></path>
    <path d="M23.3679 12.4106C23.4379 12.5606 23.6179 12.6306 23.8579 12.6306C24.2692 12.6019 24.6722 12.5003 25.0479 12.3306C25.3774 12.1885 25.6868 12.0036 25.9679 11.7806C26.2979 11.4906 26.3079 11.2906 26.2579 11.1706C26.0979 10.8006 25.2579 10.9506 24.5779 11.2506C23.8979 11.5506 23.2479 12.0206 23.3679 12.4106ZM26.0279 11.2706C26.0279 11.2706 26.0279 11.4206 25.7979 11.5906C25.5418 11.8023 25.2552 11.9742 24.9479 12.1006C24.1479 12.4406 23.6379 12.4006 23.5979 12.3106C23.5579 12.2206 23.8779 11.8206 24.6779 11.4806C25.4779 11.1406 26.0279 11.1706 26.0279 11.2706Z" fill="currentColor"></path>
    <path d="M25.2479 12.5611C24.9145 12.6955 24.6041 12.881 24.3279 13.1111C23.9979 13.4011 23.9879 13.6011 24.0379 13.7211C24.0879 13.8411 24.2079 13.9311 24.5279 13.9311H24.6879C25.0329 13.8804 25.3693 13.7828 25.6879 13.6411C26.0174 13.499 26.3268 13.314 26.6079 13.0911C26.9379 12.8011 26.9479 12.6011 26.8979 12.4811C26.8479 12.3611 26.6879 12.2311 26.2479 12.2711C25.9012 12.3137 25.5636 12.4116 25.2479 12.5611ZM26.4379 12.5611C26.6079 12.5611 26.6879 12.5611 26.6979 12.6311C26.7079 12.7011 26.6979 12.7811 26.4679 12.9511C26.2078 13.1571 25.9221 13.3285 25.6179 13.4611C25.3 13.6009 24.9629 13.6919 24.6179 13.7311C24.3679 13.7311 24.2479 13.7311 24.2279 13.6711C24.2079 13.6111 24.2279 13.5111 24.4579 13.3411C24.9832 12.93 25.6074 12.6644 26.2679 12.5711L26.4379 12.5611Z" fill="currentColor"></path>
    <path d="M24.6779 15.0209C24.6779 15.1209 24.8479 15.2409 25.1679 15.2409H25.3679C26.0682 15.1429 26.7285 14.856 27.2779 14.4109C27.6179 14.1209 27.6279 13.9209 27.5779 13.8009C27.5279 13.6809 27.3679 13.5509 26.9279 13.5909C26.5819 13.6247 26.2439 13.716 25.9279 13.8609C25.1979 14.1909 24.5179 14.6809 24.6779 15.0209ZM27.0279 13.8309C27.2379 13.8309 27.4079 13.8309 27.4079 13.9109C27.4079 13.9109 27.4079 14.0609 27.1779 14.2309C26.652 14.6427 26.0284 14.9114 25.3679 15.0109C25.1079 15.0109 24.9879 15.0109 24.9779 14.9509C24.9679 14.8909 25.2579 14.4609 26.0579 14.1209C26.3625 13.97 26.6905 13.8719 27.0279 13.8309Z" fill="currentColor"></path>
    <path d="M26.3686 15.281C26.0353 15.4154 25.7249 15.601 25.4486 15.831C25.1086 16.121 25.1086 16.321 25.1586 16.441C25.2086 16.561 25.3186 16.661 25.6386 16.661H25.7986C26.1436 16.6103 26.4801 16.5127 26.7986 16.371C27.1325 16.2375 27.443 16.0518 27.7186 15.821C28.0586 15.531 28.0586 15.331 28.0086 15.211C27.9586 15.091 27.8286 15.021 27.3686 15.021C27.0245 15.0589 26.6877 15.1464 26.3686 15.281ZM27.7986 15.281C27.7882 15.3487 27.7632 15.4133 27.7252 15.4703C27.6872 15.5273 27.6371 15.5753 27.5786 15.611C27.3196 15.8212 27.0295 15.9899 26.7186 16.111C26.4013 16.2521 26.0639 16.3432 25.7186 16.381C25.4586 16.381 25.3386 16.381 25.3286 16.321C25.3186 16.261 25.3286 16.171 25.5486 16.001C25.8048 15.7841 26.0955 15.6117 26.4086 15.491C26.709 15.3513 27.0297 15.2602 27.3586 15.221H27.4986C27.7086 15.241 27.7886 15.271 27.7986 15.301V15.281Z" fill="currentColor"></path>
    <path d="M25.8084 17.181C25.4784 17.471 25.4684 17.671 25.5184 17.791C25.5684 17.911 25.6784 18.011 25.9984 18.011H26.1584C26.5033 17.9603 26.8398 17.8627 27.1584 17.721C27.4922 17.5874 27.8027 17.4018 28.0784 17.171C28.4184 16.881 28.4284 16.681 28.3684 16.561C28.3084 16.441 28.1984 16.301 27.7584 16.341C27.0454 16.443 26.3723 16.7329 25.8084 17.181ZM27.9184 16.591C28.0784 16.591 28.1584 16.591 28.1784 16.651C28.1984 16.711 28.1784 16.801 27.9484 16.971C27.6872 17.1807 27.3977 17.3524 27.0884 17.481C26.7847 17.6116 26.4654 17.7023 26.1384 17.751C25.8784 17.751 25.7584 17.751 25.7484 17.691C25.7384 17.631 25.7484 17.531 25.9684 17.371C26.2245 17.154 26.5152 16.9817 26.8284 16.861C27.1253 16.7122 27.4476 16.6206 27.7784 16.591H27.9184Z" fill="currentColor"></path>
    <path d="M27.0272 18.1007C26.6938 18.2351 26.3834 18.4207 26.1072 18.6507C25.7772 18.9407 25.7672 19.1407 25.8172 19.2607C25.8672 19.3807 25.9872 19.4807 26.3072 19.4807H26.4072C26.7522 19.43 27.0886 19.3324 27.4072 19.1907C27.7391 19.0532 28.049 18.8679 28.3272 18.6407C28.6572 18.3507 28.6672 18.1507 28.6172 18.0307C28.5672 17.9107 28.4672 17.7707 28.0272 17.8107C27.6805 17.8533 27.3429 17.9512 27.0272 18.1007ZM28.1872 18.1007C28.4072 18.1007 28.4072 18.1007 28.4072 18.1007C28.4072 18.1007 28.4072 18.2607 28.1772 18.4307C27.9365 18.6512 27.6633 18.8333 27.3672 18.9707C27.0498 19.1118 26.7125 19.2029 26.3672 19.2407C26.1172 19.2407 25.9972 19.2407 25.9772 19.1807C25.9572 19.1207 25.9772 19.0307 26.2072 18.8607C26.7334 18.4465 27.3627 18.1837 28.0272 18.1007H28.1872Z" fill="currentColor"></path>
    <path d="M20.878 8.70104C20.948 8.86104 21.128 8.92104 21.368 8.92104C21.7761 8.89242 22.1757 8.79081 22.548 8.62104C23.248 8.32104 23.928 7.83104 23.768 7.46104C23.768 7.34104 23.558 7.21104 23.118 7.25104C22.7733 7.30304 22.437 7.40056 22.118 7.54104C21.368 7.84104 20.718 8.33104 20.878 8.70104ZM23.138 7.50104C23.398 7.50104 23.518 7.50104 23.538 7.56104C23.558 7.62104 23.258 8.05104 22.458 8.39104C21.658 8.73104 21.148 8.70104 21.108 8.60104C21.068 8.50104 21.388 8.12104 22.188 7.77104C22.4883 7.63133 22.809 7.54019 23.138 7.50104Z" fill="currentColor"></path>
    <path d="M6.19835 19.6609C6.40835 19.3809 6.45835 19.1609 6.35835 19.0209C6.25835 18.8809 6.02835 18.8709 5.69835 19.0209C5.3639 19.1442 5.05281 19.3234 4.77835 19.5509C4.48398 19.7551 4.22405 20.0049 4.00835 20.2909C3.78835 20.5709 3.73835 20.7809 3.83835 20.9309C3.91074 21.0011 4.00751 21.0405 4.10835 21.0409C4.24236 21.0322 4.37408 21.0018 4.49835 20.9509C4.82841 20.812 5.14064 20.6341 5.42835 20.4209C5.71627 20.2013 5.97502 19.9459 6.19835 19.6609ZM4.02835 20.7609C4.20798 20.3394 4.52053 19.9882 4.91835 19.7609C5.59835 19.2809 6.08835 19.1409 6.14835 19.2009C6.20835 19.2609 5.93835 19.7209 5.26835 20.2009C4.59835 20.6809 4.09835 20.8209 4.02835 20.7609Z" fill="currentColor"></path>
    <path d="M6.08846 21.4007L6.62846 21.0207C7.13846 20.6707 7.22846 20.6107 7.17846 20.4607C7.17074 20.4193 7.15305 20.3803 7.12692 20.3472C7.10079 20.3141 7.067 20.2879 7.02846 20.2707C6.76097 20.2173 6.4855 20.2177 6.21819 20.272C5.95088 20.3264 5.6971 20.4335 5.47172 20.5872C5.24634 20.7409 5.0539 20.938 4.90567 21.1669C4.75743 21.3959 4.65639 21.6522 4.60846 21.9207C4.61257 21.9439 4.61257 21.9676 4.60846 21.9907C4.60497 22.0325 4.61029 22.0746 4.62407 22.1142C4.63785 22.1538 4.65979 22.1901 4.68846 22.2207C4.72441 22.231 4.76251 22.231 4.79846 22.2207C4.90846 22.2207 5.05846 22.1207 5.42846 21.8507L6.08846 21.4007ZM4.84846 22.0207C4.9354 21.5688 5.19789 21.1696 5.57846 20.9107C5.90726 20.6812 6.29748 20.5557 6.69846 20.5507H6.89846L6.48846 20.8507L5.94846 21.2307L5.26846 21.7107L4.84846 22.0207Z" fill="currentColor"></path>
    <path d="M7.8272 21.281C7.80343 21.2426 7.7713 21.2101 7.73321 21.1858C7.69512 21.1616 7.65205 21.1463 7.6072 21.141C7.06098 21.0938 6.51836 21.2653 6.09842 21.6177C5.67847 21.9702 5.4155 22.4749 5.3672 23.021C5.36675 23.0657 5.37538 23.11 5.39257 23.1512C5.40976 23.1925 5.43515 23.2298 5.4672 23.261C5.50961 23.2878 5.55742 23.3048 5.6072 23.311C5.8372 23.311 6.1972 23.001 6.8572 22.451C7.5172 21.901 7.9472 21.521 7.8272 21.281ZM5.6272 23.021C5.64479 22.7861 5.71072 22.5574 5.82085 22.3491C5.93098 22.1409 6.08294 21.9577 6.2672 21.811C6.59117 21.533 7.00051 21.3742 7.4272 21.361H7.5972C7.33295 21.6734 7.03441 21.9552 6.7072 22.201C6.3805 22.5156 6.01803 22.7908 5.6272 23.021Z" fill="currentColor"></path>
    <path d="M8.36871 22.3207C8.34914 22.2906 8.32251 22.2658 8.29113 22.2483C8.25976 22.2309 8.2246 22.2214 8.18871 22.2207C7.69614 22.2528 7.22981 22.4542 6.86871 22.7907C6.49919 23.1113 6.24314 23.5428 6.13871 24.0207C6.13753 24.0906 6.16249 24.1583 6.20871 24.2107C6.25236 24.2505 6.30965 24.272 6.36871 24.2707C6.79871 24.2707 7.65871 23.5107 7.66871 23.5007C8.09871 23.0207 8.56871 22.5607 8.36871 22.3207ZM6.36871 24.0207C6.48746 23.6306 6.7167 23.2833 7.02871 23.0207C7.3364 22.7509 7.7144 22.574 8.11871 22.5107C7.9363 22.8033 7.70649 23.0635 7.43871 23.2807C7.133 23.5939 6.76969 23.8452 6.36871 24.0207Z" fill="currentColor"></path>
    <path d="M9.1179 23.371C9.09875 23.3428 9.07357 23.3191 9.04416 23.3018C9.01476 23.2846 8.98188 23.274 8.9479 23.271C8.4574 23.3115 7.99372 23.5117 7.6279 23.841C7.24177 24.1328 6.96947 24.5501 6.8579 25.021C6.85215 25.048 6.85205 25.076 6.85763 25.103C6.86321 25.1301 6.87434 25.1557 6.89031 25.1782C6.90628 25.2008 6.92676 25.2198 6.95044 25.234C6.97412 25.2483 7.00049 25.2575 7.0279 25.261C7.4579 25.261 8.3179 24.501 8.3279 24.491C8.8079 24.111 9.2779 23.611 9.1179 23.371ZM7.1079 25.021C7.22595 24.6255 7.46347 24.2762 7.7879 24.021C8.09558 23.7512 8.47359 23.5743 8.8779 23.511C8.69563 23.8066 8.46589 24.0701 8.1979 24.291C7.88589 24.6034 7.51554 24.8514 7.1079 25.021Z" fill="currentColor"></path>
    <path d="M9.90797 24.4608C9.88417 24.4303 9.85387 24.4055 9.81927 24.3882C9.78467 24.3709 9.74665 24.3616 9.70797 24.3608C9.28127 24.374 8.87194 24.5328 8.54797 24.8108C8.22836 25.061 8.00565 25.4145 7.91797 25.8108C7.91912 25.8519 7.92963 25.8922 7.94869 25.9286C7.96775 25.9649 7.99487 25.9965 8.02797 26.0208C8.0799 26.0598 8.14306 26.0808 8.20797 26.0808C8.60797 26.0808 9.33797 25.4608 9.33797 25.4508C9.59797 25.2008 10.078 24.7108 9.90797 24.4608ZM8.15797 25.8608C8.24509 25.5285 8.43818 25.2336 8.70797 25.0208C8.98179 24.7719 9.33794 24.633 9.70797 24.6308C9.5605 24.8871 9.3673 25.1142 9.13797 25.3008C8.85531 25.5557 8.52106 25.7467 8.15797 25.8608Z" fill="currentColor"></path>
    <path d="M10.7977 25.361C10.7746 25.3267 10.7433 25.2987 10.7066 25.2795C10.67 25.2603 10.6291 25.2505 10.5877 25.251C10.1997 25.2572 9.82507 25.3937 9.524 25.6386C9.22293 25.8834 9.01292 26.2224 8.92773 26.601C8.93624 26.6833 8.97135 26.7605 9.02773 26.821C9.07797 26.8642 9.1415 26.8889 9.20774 26.891C9.59774 26.891 10.2077 26.321 10.2677 26.311C10.5277 26.021 11.0277 25.601 10.7977 25.361ZM9.17773 26.641C9.2376 26.3233 9.41195 26.0387 9.66774 25.841C9.92045 25.6144 10.2483 25.4897 10.5877 25.491C10.4731 25.7404 10.2978 25.957 10.0777 26.121C9.82358 26.3637 9.51496 26.542 9.17773 26.641Z" fill="currentColor"></path>
    <path d="M11.6083 26.2709C11.5942 26.2464 11.5738 26.2261 11.5492 26.212C11.5246 26.1979 11.4967 26.1907 11.4683 26.1909C11.0944 26.2104 10.7397 26.3629 10.4683 26.6209C10.1814 26.8424 9.97428 27.1513 9.87834 27.5009C9.87256 27.5472 9.88497 27.5939 9.91295 27.6312C9.94093 27.6685 9.9823 27.6935 10.0283 27.7009C10.3483 27.7009 10.9383 27.1909 11.0283 27.1209C11.7683 26.5009 11.6483 26.3309 11.6083 26.2709ZM10.1383 27.4509C10.2487 27.2018 10.4166 26.9824 10.6283 26.8109C10.8352 26.626 11.0869 26.4984 11.3583 26.4409C11.2244 26.6425 11.0666 26.8272 10.8883 26.9909C10.66 27.177 10.4077 27.3318 10.1383 27.4509Z" fill="currentColor"></path>
    <path d="M12.7274 26.841C12.6905 26.7932 12.637 26.761 12.5774 26.751C12.2209 26.8024 11.8862 26.9537 11.6119 27.1872C11.3376 27.4208 11.135 27.7272 11.0274 28.071C11.0143 28.1235 11.0143 28.1785 11.0274 28.231C11.0698 28.2578 11.1176 28.2748 11.1674 28.281C11.4874 28.281 12.0774 27.771 12.1674 27.701C12.8774 27.071 12.7574 26.901 12.7274 26.841ZM11.2474 28.021C11.3645 27.7747 11.5346 27.5573 11.7455 27.3844C11.9564 27.2115 12.2029 27.0874 12.4674 27.021C12.3319 27.2034 12.174 27.368 11.9974 27.511C11.7721 27.7147 11.5197 27.8863 11.2474 28.021Z" fill="currentColor"></path>
    <path d="M13.638 27.4508C13.6277 27.4282 13.6106 27.4093 13.5891 27.3967C13.5676 27.3842 13.5427 27.3786 13.518 27.3808C13.1414 27.4416 12.7925 27.6161 12.518 27.8808C12.218 28.1308 11.878 28.5408 11.878 28.7308C11.8683 28.7494 11.8633 28.77 11.8633 28.7908C11.8633 28.8117 11.8683 28.8323 11.878 28.8508C11.9105 28.8609 11.9454 28.8609 11.978 28.8508C12.198 28.8508 12.608 28.5208 12.978 28.2308C13.748 27.6408 13.678 27.5208 13.638 27.4508ZM12.288 28.5308C12.4128 28.3612 12.5571 28.2068 12.718 28.0708C12.8784 27.9238 13.0605 27.8024 13.258 27.7108L12.878 28.0808C12.6919 28.2442 12.4947 28.3946 12.288 28.5308Z" fill="currentColor"></path>
    <path d="M14.5784 28.1908C14.5703 28.1679 14.5554 28.148 14.5358 28.1338C14.5161 28.1195 14.4926 28.1115 14.4684 28.1108C14.0317 28.179 13.6285 28.3859 13.3184 28.7008C13.0815 28.8962 12.9076 29.1571 12.8184 29.4508V29.5208C12.8509 29.5309 12.8858 29.5309 12.9184 29.5208C13.0184 29.5208 13.2084 29.3808 13.7284 28.9508C14.5984 28.3708 14.6684 28.3208 14.5784 28.1908ZM13.2784 29.1108C13.3439 29.0271 13.4176 28.9501 13.4984 28.8808C13.6615 28.7245 13.8469 28.5931 14.0484 28.4908L13.6284 28.8408L13.2784 29.1108Z" fill="currentColor"></path>
    <path d="M15.3685 28.6506C14.9353 28.7139 14.5348 28.9177 14.2285 29.2306C13.9947 29.4286 13.8214 29.6886 13.7285 29.9806V30.0206C13.7611 30.0306 13.7959 30.0306 13.8285 30.0206C13.9385 30.0206 14.1185 29.8706 14.6485 29.4406C15.4585 28.7906 15.5285 28.7306 15.4485 28.6006C15.4323 28.6025 15.4167 28.6079 15.4029 28.6166C15.389 28.6252 15.3773 28.6368 15.3685 28.6506ZM14.5285 29.3706L14.1885 29.6506L14.3985 29.4106C14.5575 29.2519 14.7438 29.1232 14.9485 29.0306L14.5285 29.3706Z" fill="currentColor"></path>
    <path d="M5.64758 18.0209C5.6311 17.9963 5.60879 17.9761 5.58262 17.9621C5.55645 17.9481 5.52724 17.9409 5.49758 17.9409C5.00054 18.025 4.54238 18.2628 4.18758 18.6209C3.85383 18.9071 3.61349 19.2868 3.49758 19.7109C3.49178 19.7546 3.50312 19.7987 3.52923 19.8342C3.55535 19.8696 3.59418 19.8935 3.63758 19.9009C3.77758 19.9009 4.04758 19.7809 4.63758 19.2409C5.22758 18.7009 5.80758 18.1709 5.64758 18.0209ZM3.75758 19.5509C3.90931 19.2121 4.13131 18.9094 4.40887 18.6629C4.68644 18.4163 5.01322 18.2316 5.36758 18.1209C5.12101 18.4505 4.83936 18.7522 4.52758 19.0209C4.29051 19.2245 4.03238 19.4022 3.75758 19.5509Z" fill="currentColor"></path>
    <path d="M5.12734 16.7109C5.10494 16.6728 5.06936 16.6444 5.02734 16.6309C4.52965 16.713 4.07092 16.9511 3.71734 17.3109C3.37711 17.5914 3.13537 17.9733 3.02734 18.4009C3.0276 18.4567 3.04904 18.5103 3.08734 18.5509H3.19734C3.33734 18.5509 3.61734 18.4409 4.25734 17.9009C4.89734 17.3609 5.29734 17.0209 5.12734 16.7109ZM3.24734 18.3209C3.38397 18.0061 3.58494 17.7233 3.83734 17.4909C4.12299 17.2204 4.46428 17.0156 4.83734 16.8909C4.59189 17.2031 4.31363 17.488 4.00734 17.7409C3.77152 17.9561 3.51721 18.1502 3.24734 18.3209Z" fill="currentColor"></path>
    <path d="M4.75742 15.581C4.74095 15.5563 4.71863 15.5361 4.69246 15.5222C4.66629 15.5082 4.63708 15.5009 4.60742 15.501C4.11263 15.5831 3.65708 15.8214 3.30742 16.181C2.96758 16.4637 2.72315 16.8443 2.60742 17.271C2.60768 17.3268 2.62912 17.3804 2.66742 17.421C2.6998 17.452 2.74259 17.4698 2.78742 17.471C2.91742 17.471 3.19742 17.351 3.78742 16.811C4.37742 16.271 4.92742 15.811 4.75742 15.581ZM2.87742 17.191C3.01426 16.8737 3.21908 16.5904 3.47742 16.361C3.76037 16.087 4.10252 15.8817 4.47742 15.761C4.23217 16.0764 3.95392 16.3647 3.64742 16.621C3.40789 16.8331 3.15024 17.0238 2.87742 17.191Z" fill="currentColor"></path>
    <path d="M4.36872 14.301C4.35409 14.2776 4.33327 14.2587 4.30857 14.2463C4.28387 14.234 4.25623 14.2287 4.22872 14.231C3.73815 14.3294 3.28862 14.5734 2.93872 14.931C2.60987 15.2214 2.37054 15.5995 2.24872 16.021C2.2348 16.0666 2.2348 16.1154 2.24872 16.161L2.31872 16.221C2.44872 16.221 2.71872 16.101 3.31872 15.541C3.91872 14.981 4.51872 14.471 4.36872 14.301ZM2.53872 15.891C2.6897 15.5997 2.8931 15.3386 3.13872 15.121C3.42342 14.8446 3.76456 14.6331 4.13872 14.501C3.88833 14.7964 3.61407 15.0706 3.31872 15.321C3.06888 15.5245 2.80852 15.7148 2.53872 15.891Z" fill="currentColor"></path>
    <path d="M4.15733 13.2409C4.14354 13.219 4.12432 13.2011 4.10154 13.1888C4.07876 13.1766 4.0532 13.1704 4.02733 13.1709C3.55133 13.2579 3.11044 13.4801 2.75733 13.8109C2.39733 14.1109 1.98733 14.5909 1.98733 14.8109C1.97769 14.8295 1.97266 14.85 1.97266 14.8709C1.97266 14.8918 1.97769 14.9124 1.98733 14.9309C2.01605 14.9613 2.05554 14.9793 2.09733 14.9809C2.21733 14.9809 2.47733 14.8709 3.09733 14.3609C4.30733 13.4809 4.19733 13.3109 4.15733 13.2409ZM2.36733 14.6309C2.52868 14.4057 2.71671 14.2009 2.92733 14.0209C3.1961 13.8037 3.4919 13.6222 3.80733 13.4809C3.56648 13.7317 3.30561 13.9625 3.02733 14.1709C2.81513 14.3352 2.59486 14.4887 2.36733 14.6309Z" fill="currentColor"></path>
    <path d="M3.94711 12.081C3.93531 12.0625 3.91905 12.0474 3.89982 12.0369C3.88058 12.0264 3.85901 12.0209 3.83711 12.021C3.36645 12.1322 2.93246 12.363 2.57711 12.691C2.25711 12.961 1.78711 13.451 1.78711 13.691V13.771H1.88711C1.99711 13.771 2.24711 13.651 2.88711 13.141C4.07711 12.301 4.02711 12.151 3.94711 12.081ZM2.19711 13.401C2.3618 13.2063 2.54242 13.0257 2.73711 12.861C2.97755 12.6579 3.24305 12.4865 3.52711 12.351C3.29517 12.5707 3.05148 12.7777 2.79711 12.971C2.60542 13.1256 2.40509 13.2691 2.19711 13.401Z" fill="currentColor"></path>
    <path d="M1.89774 12.4907C2.01774 12.4907 2.26774 12.3807 2.89774 11.9007C4.04774 11.0607 3.96774 10.9007 3.89774 10.8407C3.88965 10.8178 3.8748 10.7979 3.85516 10.7837C3.83552 10.7694 3.81201 10.7614 3.78774 10.7607C3.31308 10.8545 2.87155 11.0718 2.50774 11.3907C2.17774 11.6407 1.68774 12.1207 1.67774 12.3207V12.4007C1.67767 12.4148 1.68054 12.4286 1.68618 12.4415C1.69182 12.4543 1.70009 12.4658 1.71047 12.4752C1.72084 12.4847 1.73308 12.4918 1.74639 12.4962C1.7597 12.5006 1.77379 12.5021 1.78774 12.5007L1.89774 12.4907ZM2.73774 11.5807C2.98364 11.3832 3.25636 11.2216 3.54774 11.1007C3.35774 11.2607 3.07774 11.4907 2.79774 11.6907C2.51774 11.8907 2.39774 11.9707 2.17774 12.1007C2.34702 11.9096 2.53458 11.7354 2.73774 11.5807Z" fill="currentColor"></path>
    <path d="M3.82742 9.82072C3.81669 9.79966 3.80113 9.78144 3.78201 9.76754C3.76289 9.75364 3.74076 9.74445 3.71742 9.74072C3.24053 9.83081 2.79568 10.0446 2.42742 10.3607C2.10742 10.6207 1.61742 11.1007 1.60742 11.3007V11.3807C1.63499 11.407 1.66983 11.4245 1.70742 11.4307C1.82742 11.4307 2.07742 11.3107 2.70742 10.8307C3.94742 10.0207 3.86742 9.89072 3.82742 9.82072ZM2.02742 11.0807C2.19671 10.8896 2.38426 10.7154 2.58742 10.5607C2.82265 10.3636 3.08543 10.2019 3.36742 10.0807C3.17742 10.2407 2.89742 10.4707 2.61742 10.6707C2.429 10.8189 2.23199 10.9558 2.02742 11.0807Z" fill="currentColor"></path>
    <path d="M2.95766 9.75074C4.17766 9.02074 4.11766 8.91074 4.08766 8.82074V8.76074C3.61151 8.79455 3.1543 8.96081 2.76766 9.24074C2.40766 9.45074 1.88766 9.87074 1.84766 10.0707V10.1507C1.85834 10.1807 1.8754 10.208 1.89766 10.2307C2.27601 10.133 2.63463 9.97064 2.95766 9.75074ZM2.79766 9.43074C3.04996 9.2616 3.32197 9.12392 3.60766 9.02074C3.40766 9.16074 3.11766 9.34074 2.83766 9.50074C2.55766 9.66074 2.38766 9.75074 2.21766 9.83074C2.39639 9.67739 2.5908 9.54332 2.79766 9.43074Z" fill="currentColor"></path>
    <path d="M2.09734 9.20075C2.2176 9.16899 2.32775 9.10703 2.41734 9.02075C2.57734 8.92075 2.81734 8.77075 3.14734 8.59075C3.46896 8.42435 3.80336 8.2839 4.14734 8.17075C4.38734 8.09075 4.43734 8.05075 4.36734 7.95075V7.91075C3.88035 7.85339 3.38807 7.95888 2.96734 8.21075C2.58216 8.384 2.2556 8.6654 2.02734 9.02075V9.10075C2.02783 9.12247 2.03474 9.14356 2.0472 9.16135C2.05966 9.17915 2.07711 9.19286 2.09734 9.20075ZM3.02734 8.38075C3.1743 8.30297 3.32833 8.23935 3.48734 8.19075L3.02734 8.41075L2.72734 8.57075L3.02734 8.38075Z" fill="currentColor"></path>
    <path d="M2.65883 8.02069C2.88438 7.84483 3.12159 7.68447 3.36883 7.54069C3.69209 7.37783 4.02622 7.2375 4.36883 7.12069C4.58883 7.04069 4.69883 7.00069 4.66883 6.86069V6.76069H4.60883C4.12191 6.70484 3.63011 6.81022 3.20883 7.06069C2.8244 7.25185 2.50707 7.55523 2.29883 7.93069V8.02069C2.30289 8.04002 2.31131 8.05818 2.32343 8.07377C2.33556 8.08937 2.35109 8.10199 2.36883 8.11069C2.47062 8.10078 2.56931 8.07015 2.65883 8.02069ZM3.26883 7.29069C3.41365 7.20845 3.56818 7.14462 3.72883 7.10069L3.25883 7.32069L3.02883 7.45069C3.10332 7.38069 3.18361 7.31713 3.26883 7.26069V7.29069Z" fill="currentColor"></path>
  </symbol>
  <symbol fill="none" xmlns="http://www.w3.org/2000/svg" viewBox="0 0 35 34" id="icon5">
    <path d="M33.9903 1.77025C33.6799 1.22642 33.2297 0.775515 32.6864 0.464288C32.1431 0.153061 31.5264 -0.00715779 30.9003 0.000245407C30.1308 0.00404715 29.3842 0.262021 28.7766 0.734039C28.1689 1.20606 27.7343 1.86566 27.5403 2.61025L27.9503 2.56025H28.0203C28.3014 2.66944 28.5374 2.87027 28.6903 3.13025C28.8574 3.43523 28.9239 3.78522 28.8803 4.13025C28.9186 3.7854 28.8524 3.43698 28.6903 3.13025C28.5374 2.87027 28.3014 2.66944 28.0203 2.56025H28.0003L27.5903 2.61025L14.3403 4.37025V4.12025C14.1503 3.24025 11.0603 3.21025 10.7003 3.21025C10.3403 3.21025 7.26026 3.21025 7.06026 4.12025H6.99026V4.48025C6.99026 5.55025 6.99026 6.62025 6.93026 7.68025C6.87026 8.74025 6.93026 9.51024 6.93026 10.4402C6.63404 10.5275 6.35135 10.6554 6.09026 10.8202C5.66925 11.1625 5.32799 11.5925 5.09026 12.0802C4.93177 12.2253 4.81077 12.4066 4.73763 12.6086C4.66448 12.8106 4.64137 13.0273 4.67026 13.2402C4.40766 14.0848 4.28273 14.966 4.30026 15.8502V16.0002C4.06833 15.6929 3.76501 15.4467 3.41653 15.2829C3.06805 15.1191 2.68491 15.0427 2.30026 15.0602C1.37026 15.2102 0.640262 16.1602 0.300262 17.7502C-0.0710993 19.5421 -0.0982484 21.3882 0.220262 23.1902C0.463505 24.9787 1.03294 26.7074 1.90026 28.2902C2.68026 29.5502 3.57026 30.2302 4.43026 30.2302H4.68026C5.40026 30.1202 5.99026 29.5202 6.40026 28.5302H6.51026C6.61026 28.8202 6.70026 29.1102 6.80026 29.3902C7.07008 30.0139 7.40528 30.6073 7.80026 31.1602C8.19342 31.7066 8.66519 32.1919 9.20026 32.6002C9.52765 32.858 9.9009 33.0514 10.3003 33.1702C10.5492 33.2297 10.8043 33.2599 11.0603 33.2602C11.3829 33.2617 11.7037 33.211 12.0103 33.1102C12.2254 33.0496 12.4332 32.9658 12.6303 32.8602C13.1658 32.8438 13.7 32.7971 14.2303 32.7202L15.1103 32.5502C15.4762 32.5132 15.8358 32.4292 16.1803 32.3002C16.4646 32.1837 16.728 32.0215 16.9603 31.8202C17.4083 31.4595 17.7532 30.9869 17.9603 30.4502V30.3402L18.7203 30.2502C18.7798 30.1694 18.8301 30.0822 18.8703 29.9902C18.9492 29.8053 18.9899 29.6063 18.9899 29.4052C18.9899 29.2042 18.9492 29.0052 18.8703 28.8202C18.8458 28.7213 18.8013 28.6286 18.7393 28.5477C18.6774 28.4668 18.5994 28.3996 18.5103 28.3502C18.6003 27.9302 18.6703 27.5002 18.7203 27.0702C18.7971 27.1359 18.881 27.1929 18.9703 27.2402C19.2643 27.3995 19.5874 27.4981 19.9203 27.5302H20.0703C20.418 27.5315 20.761 27.4492 21.0703 27.2902C21.4146 27.0969 21.7064 26.8223 21.9203 26.4902C22.2568 26.0168 22.4917 25.4789 22.6103 24.9102C22.8565 23.8116 22.9541 22.6849 22.9003 21.5602C22.817 20.0758 22.562 18.606 22.1403 17.1802C21.8407 15.9918 21.3292 14.8671 20.6303 13.8602C20.2895 13.2953 19.768 12.8619 19.1503 12.6302C18.7185 12.5082 18.2628 12.4974 17.8257 12.5988C17.3886 12.7002 16.9842 12.9106 16.6503 13.2102C16.5464 13.3109 16.4526 13.4214 16.3703 13.5402L16.1903 13.1702L16.0803 13.0002H15.8203L14.9003 12.4402V7.00025L27.9003 5.22025C28.3617 6.01211 29.117 6.58996 30.002 6.82829C30.887 7.06663 31.8303 6.94621 32.627 6.49318C33.4238 6.04016 34.0096 5.29111 34.2574 4.4087C34.5051 3.52629 34.3948 2.58177 33.9503 1.78025L33.9903 1.77025ZM14.5503 12.7702L14.8703 12.9602C14.2716 13.1366 13.6596 13.2637 13.0403 13.3402L13.5303 13.2402C13.8837 13.1306 14.2203 12.9724 14.5303 12.7702H14.5503ZM11.0103 13.7702V13.8602L11.0903 14.0502C11.2803 14.4702 11.4303 14.8902 11.6003 15.3102C11.2885 15.1612 10.9336 15.1293 10.6003 15.2202H10.4803C10.4024 15.2538 10.3312 15.3012 10.2703 15.3602C10.0614 15.0246 9.81666 14.7128 9.54026 14.4302C9.13791 14.0238 8.67175 13.686 8.16026 13.4302H8.50026L9.50026 13.4902L9.74026 13.1302H11.1203C11.7033 13.3367 12.3263 13.4052 12.9403 13.3302H12.5503C12.1582 13.3704 11.7644 13.3905 11.3703 13.3902C11.1903 13.3002 11.0203 13.1902 10.8403 13.0902H9.90026C10.2703 13.3602 10.6503 13.5602 11.0103 13.7602V13.7702ZM11.6203 31.4502C11.5784 31.4436 11.5383 31.4286 11.5022 31.4063C11.4662 31.384 11.4349 31.3547 11.4103 31.3202H11.4603C11.7503 31.3202 11.8803 30.8302 11.8503 30.3202C11.8589 30.0251 11.7593 29.737 11.5703 29.5102C11.5133 29.4574 11.438 29.4287 11.3603 29.4302C11.399 29.3936 11.4477 29.3692 11.5003 29.3602C11.7303 29.3602 11.9903 29.7502 12.0203 30.3602C12.0503 30.9702 11.8303 31.3602 11.6103 31.3602L11.6203 31.4502ZM11.2003 30.4502C11.1722 30.222 11.2178 29.9908 11.3303 29.7902H11.3903C11.5308 29.9769 11.6016 30.2069 11.5903 30.4402C11.5903 30.8802 11.4803 31.1202 11.4303 31.1202C11.3803 31.1202 11.2303 30.8502 11.2003 30.4102V30.4502ZM11.5603 29.2202H11.4803C11.697 29.0327 11.8709 28.8008 11.9903 28.5402C12.2598 27.9913 12.4098 27.3914 12.4303 26.7802C12.5235 25.9035 12.5569 25.0215 12.5303 24.1402C12.5137 23.3667 12.4469 22.5951 12.3303 21.8302C12.2141 20.8842 12.0269 19.9482 11.7703 19.0302C11.668 18.6066 11.5411 18.1892 11.3903 17.7802C11.557 17.7344 11.7066 17.6405 11.8203 17.5102C11.9804 17.3015 12.09 17.0585 12.1403 16.8002C12.7766 18.6553 13.232 20.5675 13.5003 22.5102C13.6802 23.9595 13.7404 25.4211 13.6803 26.8802C13.6614 28.1035 13.4592 29.317 13.0803 30.4802C13.0849 30.3378 13.0646 30.1957 13.0203 30.0602C12.99 29.8216 12.8809 29.5999 12.7103 29.4302C12.5482 29.3076 12.3614 29.2217 12.1628 29.1785C11.9642 29.1354 11.7586 29.136 11.5603 29.1802V29.2202ZM11.6603 17.3102C11.5704 17.4006 11.4609 17.469 11.3403 17.5102H11.1003C11.3232 17.1927 11.4369 16.8113 11.4243 16.4236C11.4116 16.0358 11.2734 15.6626 11.0303 15.3602C11.2591 15.3484 11.485 15.4155 11.6703 15.5502C11.7903 15.6738 11.8704 15.8306 11.9003 16.0002C11.9687 16.2152 11.9827 16.4439 11.9408 16.6656C11.8989 16.8873 11.8025 17.0951 11.6603 17.2702V17.3102ZM10.5503 17.3102C10.5889 17.3095 10.627 17.3001 10.6616 17.2828C10.6962 17.2655 10.7265 17.2407 10.7503 17.2102C10.9195 16.9613 10.9907 16.6586 10.9503 16.3602C10.9503 15.9202 10.7603 15.4802 10.4803 15.4702L10.6103 15.4002C10.8703 15.4002 11.1403 15.8502 11.1703 16.4002C11.1703 17.0002 10.9803 17.4002 10.7603 17.4002C10.5403 17.4002 10.6103 17.4002 10.5403 17.2702L10.5503 17.3102ZM10.3503 16.4502C10.3503 16.0102 10.4603 15.7702 10.5103 15.7602C10.6526 15.9553 10.7328 16.1889 10.7403 16.4302C10.7744 16.6587 10.7285 16.8919 10.6103 17.0902C10.4412 16.9043 10.3484 16.6615 10.3503 16.4102V16.4502ZM13.4003 12.7702C12.7471 12.9602 12.0534 12.9602 11.4003 12.7702L11.2503 8.35025C11.4653 8.34084 11.6807 8.36102 11.8903 8.41024C12.3046 8.47282 12.7281 8.42806 13.1203 8.28024H13.1803C13.5693 8.00047 13.8487 7.5938 13.9703 7.13025C14.0526 7.16741 14.1404 7.19104 14.2303 7.20025H14.3803V12.2902C14.0798 12.4895 13.7488 12.6381 13.4003 12.7302V12.7702ZM13.6003 6.37025V6.63025C13.5761 6.85642 13.5004 7.07405 13.379 7.26646C13.2577 7.45886 13.0939 7.62093 12.9003 7.74025C12.5798 7.85325 12.2368 7.88754 11.9003 7.84025C11.6718 7.82092 11.4447 7.78752 11.2203 7.74025V5.18025C11.9895 5.17101 12.7548 5.0703 13.5003 4.88025C13.4703 5.26633 13.4703 5.65416 13.5003 6.04025C13.5238 6.14002 13.5573 6.23717 13.6003 6.33025V6.37025ZM10.6603 3.74025C11.7308 3.65592 12.8063 3.82374 13.8003 4.23025C12.8079 4.64357 11.7324 4.81825 10.6603 4.74025C9.58987 4.81981 8.51552 4.65215 7.52026 4.25025C8.51302 3.83835 9.58818 3.66373 10.6603 3.74025ZM7.34026 12.3002C7.34026 10.7702 7.34026 9.22025 7.41026 7.71025L7.47026 4.86025C7.8836 5.01054 8.30829 5.12758 8.74026 5.21025C9.40076 5.32122 10.0716 5.35811 10.7403 5.32025V12.6802H9.48026L9.25026 12.9802H8.55026C8.14568 12.9824 7.74161 13.0091 7.34026 13.0602V12.3002ZM7.46026 13.7102C8.1196 13.9163 8.72908 14.2568 9.25026 14.7102C9.57821 15.0525 9.86055 15.4356 10.0903 15.8502C10.0656 16.0327 10.0656 16.2177 10.0903 16.4002C10.0905 16.7016 10.1589 16.999 10.2903 17.2702C10.3855 17.4192 10.5309 17.5292 10.7003 17.5802H10.9003C11.0577 18.0848 11.1813 18.5993 11.2703 19.1202C11.5203 20.0218 11.7008 20.9411 11.8103 21.8702C11.9219 22.6189 11.9887 23.3736 12.0103 24.1302C12.0369 24.9915 12.0035 25.8536 11.9103 26.7102C11.889 27.2539 11.7491 27.7864 11.5003 28.2702C11.3902 28.5251 11.2184 28.7485 11.0003 28.9202C10.8587 29.0185 10.7038 29.096 10.5403 29.1502C10.7978 28.8867 10.9867 28.5639 11.0903 28.2102C11.3892 27.3346 11.5413 26.4155 11.5403 25.4902C11.5802 24.8542 11.5802 24.2163 11.5403 23.5802C11.5503 23.5274 11.5503 23.4731 11.5403 23.4202V22.7302C11.498 21.8156 11.3469 20.9092 11.0903 20.0302L10.9803 19.7102C10.8103 19.0602 10.7103 18.7102 10.5903 18.3102C10.3177 17.4843 9.91973 16.7052 9.41026 16.0002C8.97731 15.2804 8.3726 14.6791 7.65026 14.2502C7.42663 14.0748 7.1723 13.9426 6.90026 13.8602L7.46026 13.7102ZM7.24026 14.5702C7.92329 14.9546 8.49518 15.5093 8.90026 16.1802C9.3793 16.8699 9.75024 17.6286 10.0003 18.4302C10.1203 18.7802 10.2203 19.1402 10.3903 19.8102L10.4803 20.1702C10.5964 20.5463 10.6833 20.9308 10.7403 21.3202C10.8699 21.7868 10.9701 22.2611 11.0403 22.7402C11.0403 22.9902 11.0403 23.2302 11.0903 23.4802V23.6102C11.1303 24.2296 11.1303 24.8509 11.0903 25.4702C11.0979 26.3487 10.9524 27.2218 10.6603 28.0502C10.5397 28.4579 10.2818 28.8112 9.93026 29.0502C9.75987 29.1595 9.57464 29.2437 9.38026 29.3002C9.17803 29.3302 8.97249 29.3302 8.77026 29.3002C8.26614 29.1775 7.81427 28.8973 7.48026 28.5002L7.36026 28.3502L8.90026 28.0602V27.9202C9.21265 26.9456 9.4172 25.9395 9.51026 24.9202C9.59027 24.0487 9.59027 23.1717 9.51026 22.3002C9.40942 20.9995 9.07046 19.7284 8.51026 18.5502C7.98609 17.4655 7.26755 16.486 6.39026 15.6602L6.30026 15.5802L4.98026 15.7902C5.15026 14.9402 5.42026 14.3802 5.77026 14.2202C6.02622 14.1761 6.28847 14.1844 6.54114 14.2445C6.79381 14.3047 7.03165 14.4155 7.24026 14.5702ZM6.33026 11.2202C6.43152 11.1346 6.54224 11.0608 6.66026 11.0002L6.82026 11.1302V10.7002V13.3202H6.74026C6.77029 13.1381 6.77029 12.9523 6.74026 12.7702C6.70998 12.5316 6.60088 12.3099 6.43026 12.1402C6.20801 11.982 5.94304 11.8949 5.67026 11.8902C5.85584 11.6354 6.07827 11.4096 6.33026 11.2202ZM6.15026 12.3802C6.27463 12.5155 6.35182 12.6874 6.37026 12.8702C6.43948 13.0415 6.4702 13.2258 6.46026 13.4102L5.90026 13.5302C5.91967 13.4177 5.91967 13.3027 5.90026 13.1902C5.89806 12.8202 5.75916 12.4641 5.51026 12.1902C5.73849 12.183 5.96296 12.2496 6.15026 12.3802ZM5.15026 12.2202C5.37026 12.2202 5.63026 12.6202 5.66026 13.2202C5.6822 13.4295 5.65831 13.6411 5.59026 13.8402C5.42453 13.939 5.27869 14.0679 5.16026 14.2202L5.04026 14.1402C5.07894 14.1395 5.11696 14.1301 5.15156 14.1128C5.18616 14.0955 5.21646 14.0707 5.24026 14.0402C5.40691 13.7903 5.47463 13.4873 5.43026 13.1902C5.43026 12.7502 5.24026 12.3302 4.98026 12.3002C5.0406 12.253 5.1138 12.2251 5.19026 12.2202H5.15026ZM4.99026 12.5302C4.99026 12.5302 5.20026 12.7602 5.22026 13.2002C5.25444 13.4287 5.20851 13.6619 5.09026 13.8602C4.96038 13.6721 4.89064 13.4489 4.89026 13.2202C4.90026 12.7402 4.98026 12.5402 5.03026 12.5302H4.99026ZM4.77026 14.1902C4.8386 14.2818 4.92337 14.3598 5.02026 14.4202C4.86961 14.7036 4.74896 15.0019 4.66026 15.3102C4.68985 14.9345 4.73992 14.5606 4.81026 14.1902H4.77026ZM6.17026 27.4102C5.83026 28.7402 5.25026 29.6002 4.52026 29.7402C3.79026 29.8802 2.98026 29.2202 2.25026 28.0002C1.36837 26.4579 0.79123 24.7605 0.550262 23.0002C0.239 21.2621 0.259358 19.4808 0.610262 17.7502C0.940262 16.3902 1.54026 15.5402 2.25026 15.4302H2.42026C3.09026 15.4302 3.85026 16.0302 4.53026 17.1302C5.41631 18.6707 5.99373 20.369 6.23026 22.1302C6.55437 23.8774 6.53399 25.671 6.17026 27.4102ZM6.52026 27.9702C6.54768 27.8161 6.59125 27.6653 6.65026 27.5202C7.02329 25.7249 7.04706 23.8746 6.72026 22.0702C6.45508 20.2514 5.83681 18.5019 4.90026 16.9202C4.79639 16.7363 4.67589 16.5622 4.54026 16.4002L6.21026 16.1302C6.99957 16.8967 7.64631 17.7974 8.12026 18.7902C8.64553 19.9129 8.9575 21.1235 9.04026 22.3602C9.12023 23.2017 9.12023 24.0488 9.04026 24.8902C8.95112 25.8192 8.77024 26.737 8.50026 27.6302L6.52026 27.9702ZM11.9003 32.4702L11.7703 32.6302C11.3141 32.7454 10.8364 32.7454 10.3803 32.6302C10.0421 32.5396 9.72807 32.3757 9.46026 32.1502C8.96021 31.7703 8.51882 31.3188 8.15026 30.8102C7.75637 30.2993 7.42095 29.7459 7.15026 29.1602C7.12726 29.0462 7.09031 28.9353 7.04026 28.8302C7.44623 29.2996 7.98777 29.6315 8.59026 29.7802C8.72007 29.7902 8.85045 29.7902 8.98026 29.7802C9.11341 29.7902 9.24712 29.7902 9.38026 29.7802H9.79026C10.0582 29.781 10.3246 29.7406 10.5803 29.6602C10.7471 29.6206 10.906 29.5529 11.0503 29.4602L10.9603 29.5802C10.8589 29.8588 10.8114 30.154 10.8203 30.4502C10.8338 30.7483 10.916 31.0391 11.0603 31.3002C11.1078 31.4014 11.1806 31.4886 11.2717 31.5535C11.3628 31.6183 11.4691 31.6585 11.5803 31.6702H11.6403C11.7486 31.7132 11.8637 31.7369 11.9803 31.7402C12.0767 31.7503 12.1739 31.7503 12.2703 31.7402L12.4603 31.6602C12.2803 31.9402 12.1003 32.2102 11.9003 32.4702ZM12.2003 31.4702C12.1139 31.4802 12.0266 31.4802 11.9403 31.4702C12.061 31.3178 12.1505 31.1431 12.2037 30.9561C12.2569 30.7691 12.2727 30.5734 12.2503 30.3802C12.2508 30.0133 12.1195 29.6584 11.8803 29.3802C12.105 29.3758 12.3254 29.4423 12.5103 29.5702C12.6377 29.7046 12.7183 29.8764 12.7403 30.0602C12.7994 30.2697 12.8084 30.4902 12.7667 30.7038C12.7251 30.9175 12.6338 31.1183 12.5003 31.2902C12.4211 31.3839 12.3171 31.4532 12.2003 31.4902V31.4702ZM14.8303 32.2002V32.0602L14.0603 32.2102C13.5797 32.282 13.0957 32.3288 12.6103 32.3502C12.7439 32.1798 12.8643 31.9992 12.9703 31.8102C13.1303 31.5402 13.2803 31.2502 13.4203 30.9502C13.8821 29.6385 14.1286 28.2607 14.1503 26.8702C14.2203 25.3878 14.1601 23.9021 13.9703 22.4302C13.5988 19.5648 12.8315 16.7648 11.6903 14.1102L13.6903 13.8202C14.4529 15.482 15.0427 17.2178 15.4503 19.0002C16.0786 21.3997 16.3017 23.8873 16.1103 26.3602C15.966 28.3029 15.5589 30.217 14.9003 32.0502V32.1902L15.3703 32.3602L14.8303 32.2002ZM18.6003 28.8002C18.6697 28.9578 18.7055 29.1281 18.7055 29.3002C18.7055 29.4724 18.6697 29.6427 18.6003 29.8002C18.5797 29.8564 18.5528 29.9101 18.5203 29.9602L17.9903 30.0202C18.1603 29.5202 18.3003 29.0202 18.4203 28.5102C18.51 28.5932 18.5727 28.7012 18.6003 28.8202V28.8002ZM16.9003 13.5102C17.1375 13.303 17.4126 13.1434 17.7103 13.0402C18.1236 12.9105 18.5669 12.9105 18.9803 13.0402C19.4912 13.2208 19.9229 13.5746 20.2003 14.0402C20.8633 15.0087 21.3539 16.0846 21.6503 17.2202C22.0613 18.6102 22.3096 20.0431 22.3903 21.4902C22.4337 22.5815 22.3363 23.6739 22.1003 24.7402C21.9863 25.2475 21.7722 25.7269 21.4703 26.1502C21.305 26.4136 21.0786 26.6332 20.8103 26.7902C20.5341 26.9481 20.2176 27.0211 19.9003 27.0002C19.6365 26.979 19.3806 26.9005 19.1503 26.7702C18.9989 26.6899 18.8549 26.5962 18.7203 26.4902V26.3302L20.2303 25.8402V25.7102C20.9039 23.3994 21.0068 20.9596 20.5303 18.6002C20.3006 17.401 19.8089 16.2674 19.0903 15.2802C18.6307 14.6774 18.0888 14.1422 17.4803 13.6902L17.4003 13.6302L16.7003 13.7302L16.9003 13.5102ZM17.3803 14.1002C17.9172 14.5088 18.3979 14.9862 18.8103 15.5202C19.4831 16.4452 19.944 17.507 20.1603 18.6302C20.61 20.869 20.5209 23.1827 19.9003 25.3802L18.7803 25.7402C18.8671 23.8502 18.7532 21.9562 18.4403 20.0902C18.2515 18.9803 17.9876 17.8844 17.6503 16.8102C17.7812 16.7805 17.9041 16.7225 18.0103 16.6402C18.174 16.5033 18.2896 16.3176 18.3403 16.1102C18.4227 15.8178 18.4078 15.5065 18.2978 15.2232C18.1877 14.94 17.9885 14.7003 17.7303 14.5402C17.4466 14.4053 17.1248 14.3735 16.8203 14.4502L16.7203 14.2102L17.3803 14.1002ZM17.5503 16.5702L16.9003 14.6602C17.1488 14.601 17.4102 14.6292 17.6403 14.7402C17.8515 14.8702 18.0146 15.0654 18.1048 15.2964C18.195 15.5274 18.2075 15.7815 18.1403 16.0202C18.1028 16.1801 18.0152 16.3237 17.8903 16.4302C17.7863 16.5107 17.6613 16.5594 17.5303 16.5702H17.5503ZM16.4103 14.7802C17.1089 16.5321 17.6087 18.3569 17.9003 20.2202C17.9603 20.5302 17.9903 20.8402 18.0303 21.1502V21.2302C18.1303 22.0302 18.2003 22.8402 18.2303 23.6402V26.4802C18.1186 27.7793 17.8327 29.0574 17.3803 30.2802C17.2597 30.6249 17.0697 30.9412 16.822 31.2095C16.5743 31.4778 16.2742 31.6925 15.9403 31.8402C15.7695 31.8908 15.5959 31.9309 15.4203 31.9602C15.4203 32.0902 15.3403 32.2302 15.2903 32.3602C15.3033 32.2097 15.3369 32.0616 15.3903 31.9202C16.0216 30.1427 16.4183 28.2904 16.5703 26.4102C16.7627 23.8838 16.5363 21.3429 15.9003 18.8902C15.4977 17.1309 14.9216 15.4158 14.1803 13.7702L15.7803 13.5302C16.0103 13.9302 16.2003 14.3502 16.3903 14.7802H16.4103ZM14.9003 12.5502H14.8203L14.9003 12.4902V12.5502ZM14.9003 6.45025L14.7903 6.51025L14.1303 6.60025C14.0756 6.40286 14.0322 6.20254 14.0003 6.00025C13.9703 5.66759 13.9703 5.3329 14.0003 5.00025L28.0003 3.17025C28.1567 3.24041 28.2889 3.35521 28.3803 3.50025C28.4823 3.69814 28.5253 3.92123 28.504 4.14289C28.4828 4.36454 28.3981 4.57539 28.2603 4.75025L14.9003 6.45025Z" fill="currentColor"></path>
    <path d="M2.1101 17.0003C1.0301 17.1703 0.560102 19.8203 1.1101 22.9203C1.6601 26.0203 2.9001 28.3903 3.9701 28.2203C5.0401 28.0503 5.4701 25.3903 4.9701 22.2903C4.4701 19.1903 3.1901 16.8303 2.1101 17.0003Z" fill="currentColor"></path>
    <path d="M7.84039 7.41018C7.94532 7.41018 8.03039 7.07887 8.03039 6.67018C8.03039 6.26149 7.94532 5.93018 7.84039 5.93018C7.73546 5.93018 7.65039 6.26149 7.65039 6.67018C7.65039 7.07887 7.73546 7.41018 7.84039 7.41018Z" fill="currentColor"></path>
  </symbol>
  <symbol fill="none" xmlns="http://www.w3.org/2000/svg" viewBox="0 0 31 35" id="icon6">
    <g clip-path="url(#clip0_119_951)">
      <path d="M5.99904 9.90023C6.53368 10.1727 7.11976 10.3295 7.71904 10.3602H7.99904C8.35976 10.3621 8.71926 10.3184 9.06904 10.2302C9.52787 10.1336 9.95253 9.91612 10.299 9.60023C10.6284 9.31654 10.871 8.94566 10.999 8.53023C11.1179 8.01377 11.0506 7.47194 10.809 7.00023C10.5865 6.5304 10.241 6.12956 9.80904 5.84023C9.2753 5.42976 8.6571 5.14286 7.99904 5.00023C7.22408 4.78847 6.40062 4.84125 5.65904 5.15023C5.31173 5.30719 4.99902 5.53153 4.73904 5.81023C4.45918 6.11623 4.26891 6.49332 4.18904 6.90023C4.10992 7.53513 4.27823 8.17611 4.65904 8.69023C4.99148 9.20443 5.45371 9.62181 5.99904 9.90023ZM4.65904 7.00023C4.71686 6.682 4.87035 6.38896 5.09904 6.16023C5.30529 5.93052 5.55737 5.74657 5.83904 5.62023C6.47769 5.37309 7.17892 5.33803 7.83904 5.52023C8.42081 5.643 8.96969 5.88846 9.44904 6.24023C9.82348 6.48394 10.1188 6.83142 10.299 7.24023C10.4562 7.56928 10.5059 7.93938 10.4413 8.29825C10.3768 8.65712 10.201 8.98663 9.93904 9.24023C9.65759 9.497 9.31215 9.67318 8.93904 9.75023C8.54961 9.84293 8.14848 9.87663 7.74904 9.85023C7.22255 9.8287 6.70715 9.69217 6.23904 9.45023C5.7635 9.2282 5.35607 8.88291 5.05904 8.45023C4.89719 8.24849 4.77822 8.01583 4.70944 7.7665C4.64066 7.51717 4.62351 7.25643 4.65904 7.00023Z" fill="currentColor"></path>
      <path d="M15.659 7.94V6.09H15.159L15.269 5.78L15.409 5.43L15.489 5.21L15.249 5L14.999 4.59L14.489 3.67L14.139 3L13.659 3.56L13.509 3.74L13.419 3.65L13.479 3.41L13.659 2.89V2.54L13.369 2.34L12.659 1.84L11.899 1.33L11.369 1L11.129 1.56L10.999 1.88L10.599 1.7V0.77L10.279 0.64L9.21905 0.35L8.46905 0.14L8.04905 0L7.86905 0.4L7.65905 0.93V1H7.21905V0.06H6.65905L5.99905 0.12L5.19905 0.19H4.88905L4.77905 0.5L4.52905 1.09L4.40905 1.37H4.31905L4.24905 1L4.07905 0.36L3.46905 0.77L2.88905 1.16L2.30905 1.55L2.12905 1.67V1.88V2.11L1.99905 2.55L1.89905 2.48H1.64905H0.99905L0.89905 2.82L0.74905 3.3L0.53905 4V4.7L0.44905 4.94L0.34905 5.24C0.227776 5.55852 0.189912 5.90274 0.23905 6.24L0.11905 6.4L-0.000950456 6.52V6.68C-0.0309332 7.01266 -0.0309332 7.34734 -0.000950456 7.68C0.100509 8.53308 0.358135 9.36019 0.75905 10.12C1.04223 10.6831 1.377 11.2187 1.75905 11.72L1.89905 12C2.35145 12.971 3.08244 13.7856 3.99905 14.34C4.79549 14.8457 5.71577 15.1225 6.65905 15.14C7.46208 15.1359 8.2567 14.9763 8.99905 14.67L9.39905 14.5H9.35905C9.80505 14.4423 10.2419 14.328 10.659 14.16C11.2407 13.9204 11.786 13.6006 12.279 13.21C13.0706 12.7074 13.7292 12.0214 14.199 11.21C14.4014 10.8623 14.5561 10.4889 14.659 10.1C14.7919 10.0162 14.9074 9.90756 14.999 9.78C15.0878 9.64318 15.149 9.49031 15.179 9.33C15.2084 9.19371 15.2485 9.05996 15.299 8.93C15.3809 8.67971 15.4881 8.43846 15.619 8.21L15.679 8.09L15.659 7.94ZM4.15905 14.13C3.56477 13.7887 3.05271 13.321 2.65905 12.76L2.79905 12.88C3.65597 13.5727 4.65713 14.0648 5.72905 14.32C6.38002 14.5032 7.0528 14.5974 7.72905 14.6H8.18905C7.52041 14.798 6.81857 14.8585 6.12592 14.7777C5.43326 14.6969 4.76417 14.4766 4.15905 14.13ZM11.899 13C10.944 13.659 9.84271 14.0752 8.69056 14.2128C7.5384 14.3504 6.37008 14.205 5.28673 13.7894C4.20337 13.3738 3.23764 12.7004 2.47311 11.8276C1.70859 10.9547 1.16831 9.90866 0.89905 8.78C1.20969 9.34976 1.57831 9.88594 1.99905 10.38C2.77752 11.308 3.74597 12.0582 4.83905 12.58C6.09471 13.1431 7.46406 13.4067 8.83905 13.35C10.0791 13.3329 11.2968 13.0174 12.389 12.43L12.869 12.13C12.5715 12.4476 12.247 12.7387 11.899 13ZM13.779 11L13.689 11.16C13.5783 11.2183 13.4743 11.2887 13.379 11.37C13.0233 11.656 12.6454 11.9135 12.249 12.14C11.2033 12.6916 10.0413 12.9864 8.85905 13C7.53227 13.0579 6.21035 12.8045 4.99905 12.26C3.94594 11.7597 3.01179 11.0403 2.25905 10.15C1.58443 9.38982 1.04344 8.52086 0.65905 7.58L0.49905 7.2V6.81L1.27905 5.81L1.99905 7.19L1.70905 8.08L2.21905 9.08L2.77905 8.52L4.27905 9.82L3.99905 10.69L5.10905 11.45L5.70905 10.45L7.99905 11.17L7.83905 12.09L8.99905 12.15L9.56905 11.15L11.569 10.85V11.45L12.259 11.09L12.739 10.09L14.109 9.39C14.1144 9.94398 14.0019 10.4928 13.779 11ZM3.06905 5.92C3.32953 5.09776 3.89977 4.40917 4.65905 4C5.26671 3.65174 5.95899 3.47867 6.65905 3.5C7.03704 3.51011 7.41423 3.54015 7.78905 3.59C9.07558 3.68948 10.2862 4.23814 11.209 5.14C11.599 5.54 12.779 6.76 12.549 8.04C12.249 9.7 9.73905 10.77 7.70905 10.6L6.82905 10.33L5.82905 10.02H5.71905C4.89037 9.57369 4.18322 8.93176 3.65905 8.15C3.41494 7.83756 3.23678 7.47882 3.13536 7.0955C3.03395 6.71219 3.01139 6.31229 3.06905 5.92ZM14.749 8.76V8.53L13.959 8.93L13.279 9.27L12.709 9.56C12.849 9.3 13.589 8.98 13.829 8.14C13.9459 7.53966 13.8616 6.91754 13.589 6.37C13.2903 5.61285 12.8295 4.93022 12.239 4.37C12.079 4.22 11.929 4.09 11.779 3.97L11.469 3.75L10.999 3.48L10.709 3.33L10.439 3.2L10.209 3H9.99905C9.15922 2.66971 8.27058 2.48049 7.36905 2.44H5.81905L5.49905 2.49H5.43905L5.15905 2.55H5.05905L4.70905 2.66C3.95458 2.84311 3.26357 3.22662 2.70905 3.77C2.24329 4.23583 1.89979 4.80948 1.70905 5.44L1.64905 5.54L1.29905 4.88L0.81905 5.49L0.66905 5.68C0.66905 5.58 0.66905 5.48 0.74905 5.38L0.99905 4.77V4.19L1.39905 3H1.73905L2.07905 3.26L2.43905 2.85L2.59905 2L3.74905 1.22L3.99905 2.16L4.83905 1.78L5.24905 0.69L6.65905 0.55L6.73905 1.43H7.92905L8.30905 0.59L10.129 1.09L10.069 2L11.259 2.54L11.599 1.74L13.109 2.74L12.869 3.74L13.569 4.44L14.069 3.8L14.809 5.14L14.449 6.07L14.629 6.45H14.999L15.099 8C14.9682 8.24656 14.8513 8.50029 14.749 8.76Z" fill="currentColor"></path>
      <path d="M19.7399 19.8198L19.6599 19.7598C19.179 19.3541 18.6438 19.0175 18.0699 18.7598C17.5503 18.5418 17.0064 18.3874 16.4499 18.2998H16.3199L16.2199 18.3898C15.973 18.6048 15.7926 18.8858 15.6999 19.1998C15.5896 19.5445 15.5896 19.9151 15.6999 20.2598L15.7599 20.4498H15.9999C16.453 20.4793 16.8985 20.5806 17.3199 20.7498C17.8811 20.9807 18.3909 21.3206 18.8199 21.7498L18.9999 21.9398L19.1999 21.7698C19.4028 21.6043 19.5667 21.396 19.6799 21.1598C19.8634 20.7625 19.9058 20.3144 19.7999 19.8898L19.7399 19.8198ZM19.1199 20.9398C19.0815 21.0265 19.031 21.1073 18.9699 21.1798C18.5363 20.7861 18.0348 20.4744 17.4899 20.2598C17.0803 20.0936 16.6494 19.9859 16.2099 19.9398C16.1699 19.762 16.1699 19.5776 16.2099 19.3998C16.2679 19.2298 16.3597 19.0733 16.4799 18.9398C16.9401 19.0227 17.3895 19.1568 17.8199 19.3398C18.31 19.5488 18.7705 19.8211 19.1899 20.1498C19.2522 20.4138 19.2276 20.6909 19.1199 20.9398Z" fill="currentColor"></path>
      <path d="M21.8491 15.5601L28.2391 7.83008L25.9191 6.83008L19.1191 14.1801L21.8491 15.5601ZM27.3191 8.00008L21.6591 14.8301L20.0491 14.0001L26.0491 7.50008L27.3191 8.00008Z" fill="currentColor"></path>
      <path d="M20.1398 17.6499C19.0828 16.9185 17.9046 16.3801 16.6598 16.0599C15.3521 15.7389 13.998 15.6509 12.6598 15.7999C11.512 15.871 10.3804 16.1067 9.29976 16.4999C7.77546 16.9429 6.39547 17.7813 5.29976 18.9299C4.43397 19.822 3.81684 20.9252 3.50976 22.1299C3.13414 23.8342 3.40876 25.6175 4.27976 27.1299C4.9276 28.2371 5.82043 29.1812 6.88976 29.8899C8.00568 30.716 9.26791 31.3233 10.6098 31.6799C11.5213 31.9104 12.4597 32.018 13.3998 31.9999C14.2751 32 15.1475 31.8994 15.9998 31.6999C17.2323 31.4197 18.3978 30.8998 19.4298 30.1699C20.5338 29.4394 21.442 28.4494 22.0748 27.2866C22.7077 26.1238 23.0458 24.8236 23.0598 23.4999C23.1414 22.413 22.9489 21.323 22.4998 20.3299C22.2784 19.8521 21.9961 19.405 21.6598 18.9999C21.2117 18.488 20.701 18.0344 20.1398 17.6499ZM6.13976 26.0999C6.13976 23.3099 9.32976 21.0499 13.2498 21.0499C17.1698 21.0499 20.3498 23.3099 20.3498 26.0999C20.3498 28.8899 17.1598 31.0999 13.2498 31.0999C9.33976 31.0999 6.12976 28.8799 6.12976 26.0999H6.13976ZM21.9998 20.5999C22.4117 21.508 22.5872 22.5057 22.5098 23.4999C22.5 24.7355 22.1856 25.9497 21.5942 27.0347C21.0029 28.1197 20.1529 29.042 19.1198 29.7199L18.8598 29.8999C19.4603 29.4604 19.9526 28.8897 20.2992 28.2312C20.6458 27.5726 20.8375 26.8437 20.8598 26.0999C20.8598 22.9999 17.4198 20.4699 13.1898 20.4699C8.95976 20.4699 5.55976 22.9999 5.55976 26.0999C5.57031 27.1665 5.96026 28.1946 6.65976 28.9999C5.88863 28.4277 5.24782 27.6983 4.77976 26.8599C4.0711 25.6753 3.77868 24.2879 3.949 22.9181C4.11932 21.5483 4.74259 20.2748 5.71976 19.2999C6.75288 18.2207 8.04847 17.4282 9.47976 16.9999C10.5103 16.6312 11.5875 16.409 12.6798 16.3399C13.0598 16.3399 13.5098 16.2699 14.0398 16.2699C14.8795 16.2675 15.7162 16.3717 16.5298 16.5799C17.702 16.8904 18.8116 17.4013 19.8098 18.0899C20.3222 18.4523 20.7919 18.8716 21.2098 19.3399C21.5231 19.7264 21.7884 20.1495 21.9998 20.5999Z" fill="currentColor"></path>
      <path d="M24.2386 20.6099C24.1453 20.3699 24.0453 20.1299 23.9386 19.8899C23.6199 19.2118 23.2167 18.5768 22.7386 17.9999C22.6675 17.9021 22.5907 17.8086 22.5086 17.7199L30.3286 7.83985V7.69985C30.2068 7.22782 29.937 6.80725 29.5586 6.49985C29.3922 6.37913 29.2008 6.29713 28.9986 6.25985C28.7693 6.18937 28.5454 6.10248 28.3286 5.99985L27.8686 5.78985C27.5663 5.63195 27.252 5.4982 26.9286 5.38985C26.6589 5.26687 26.3547 5.2421 26.0686 5.31985C25.8383 5.4123 25.6278 5.54808 25.4486 5.71985L25.3286 5.85985C25.1686 5.99985 22.4386 8.99985 17.1886 14.6699C16.0269 14.4369 14.8431 14.333 13.6586 14.3599C9.28862 14.3599 4.72862 16.7899 3.05862 19.9299C2.52291 20.9839 2.16477 22.1192 1.99862 23.2899C1.8584 24.3278 1.8888 25.3817 2.08862 26.4099L2.51862 27.8399C3.0563 29.1837 3.90645 30.38 4.99862 31.3299C5.31478 31.602 5.64886 31.8525 5.99862 32.0799C6.21735 32.3908 6.3986 32.7264 6.53862 33.0799C6.61709 33.2986 6.68057 33.5225 6.72862 33.7499V33.8599L7.72862 34.5499L8.40862 34.1099L8.86862 34.0499C9.25234 34.2183 9.64648 34.3619 10.0486 34.4799C10.6067 34.6325 11.1748 34.7461 11.7486 34.8199C12.2558 34.8896 12.7667 34.9297 13.2786 34.9398C13.5883 34.9599 13.8989 34.9599 14.2086 34.9398C14.8892 34.8601 15.5595 34.7093 16.2086 34.4899C16.9288 34.3004 17.6213 34.0181 18.2686 33.6499C18.7468 33.3517 19.2014 33.0173 19.6286 32.6499L20.0386 32.2598C20.3986 31.9098 20.5886 31.7299 20.8186 31.7199C21.0483 31.7201 21.2769 31.6899 21.4986 31.6299C21.6508 31.5987 21.7963 31.5412 21.9286 31.4599C22.0889 31.3403 22.2163 31.1821 22.2986 30.9999C22.3786 30.8299 22.4686 30.6699 22.5586 30.4999C22.7084 30.2502 22.8388 29.9895 22.9486 29.7199C23.0902 29.3213 23.2676 28.9364 23.4786 28.5699C23.7271 28.1215 23.9379 27.6532 24.1086 27.1699C24.3677 26.4117 24.5585 25.632 24.6786 24.8399C24.7996 23.6812 24.6978 22.5102 24.3786 21.3899C24.3844 21.1231 24.3368 20.8579 24.2386 20.6099ZM22.1486 30.2499C22.0486 30.4199 21.9486 30.5999 21.8586 30.7899C21.8081 30.8736 21.7398 30.9453 21.6586 30.9999C21.5837 31.0399 21.5026 31.067 21.4186 31.0799C21.2399 31.132 21.0548 31.1589 20.8686 31.1599C20.4095 31.2374 19.9959 31.4835 19.7086 31.8499L19.3186 32.2299C18.9176 32.5677 18.4895 32.8721 18.0386 33.1399C17.4346 33.4881 16.785 33.7506 16.1086 33.9198C15.493 34.1326 14.8558 34.2768 14.2086 34.3498C13.4324 34.4316 12.6486 34.4081 11.8786 34.2799C11.3154 34.2312 10.7569 34.1376 10.2086 33.9999C9.79505 33.8913 9.39051 33.7509 8.99862 33.5799L8.24862 33.6599L7.77862 33.9599L7.31862 33.6299C7.26368 33.4125 7.18661 33.2014 7.08862 32.9999C6.93179 32.566 6.71647 32.1555 6.44862 31.7799V31.7299C6.09597 31.5142 5.76152 31.27 5.44862 30.9999L5.61862 31.0999C6.58881 31.6783 7.59035 32.2024 8.61862 32.6698C9.63547 33.01 10.6968 33.1987 11.7686 33.2299C12.2186 33.2299 12.7686 33.2999 13.2686 33.2999C14.1454 33.3038 15.019 33.1963 15.8686 32.9799C16.9654 32.7026 18.0187 32.2752 18.9986 31.7099C19.8894 31.2693 20.7168 30.711 21.4586 30.0499C22.1515 29.3943 22.7474 28.6434 23.2286 27.8199L23.5786 27.1799C23.4183 27.5758 23.2243 27.9572 22.9986 28.3199C22.7817 28.7188 22.5945 29.1333 22.4386 29.5599C22.3581 29.7963 22.2612 30.0269 22.1486 30.2499ZM25.8586 6.14985C25.9692 6.03459 26.1018 5.94277 26.2486 5.87985C26.4185 5.84787 26.5941 5.87246 26.7486 5.94985C27.047 6.05248 27.3377 6.17613 27.6186 6.31985L28.1086 6.54985C28.3381 6.6524 28.5755 6.73601 28.8186 6.79985C28.9482 6.83406 29.0658 6.90325 29.1586 6.99985C29.4055 7.19618 29.5897 7.46032 29.6886 7.75985L22.1186 17.3299C20.9339 16.1458 19.4519 15.3029 17.8286 14.8899C22.9986 9.29985 25.6086 6.48985 25.7686 6.29985L25.8586 6.14985ZM22.2886 18.3399C23.0269 19.2911 23.5706 20.3785 23.8886 21.5399C23.9952 22.1032 24.0321 22.6775 23.9986 23.2499C23.9809 23.7992 23.9071 24.3454 23.7786 24.8799C23.5864 25.8102 23.249 26.7045 22.7786 27.5299C22.3188 28.3017 21.7571 29.008 21.1086 29.6299C20.4025 30.2557 19.6154 30.7837 18.7686 31.1999C17.8477 31.7387 16.8589 32.1524 15.8286 32.4299C14.5435 32.7225 13.2184 32.7969 11.9086 32.6499C10.8883 32.6273 9.87705 32.452 8.90862 32.1299C7.88286 31.672 6.88152 31.1613 5.90862 30.5999C5.58533 30.4319 5.28036 30.2308 4.99862 29.9999C4.61581 29.6588 4.27959 29.2687 3.99862 28.8399C3.42506 28.0708 2.96065 27.2262 2.61862 26.3299V26.2699C2.43873 25.3069 2.40837 24.322 2.52862 23.3499C2.70044 22.2521 3.0376 21.1866 3.52862 20.1899C4.91862 17.6799 8.91862 14.9999 13.6586 14.9299C17.5786 14.8999 20.4786 15.9999 22.2886 18.3399Z" fill="currentColor"></path>
    </g>
    <defs>
      <clipPath id="clip0_119_951">
        <rect width="30.33" height="34.95" fill="white"></rect>
      </clipPath>
    </defs>
  </symbol>
  <symbol fill="none" xmlns="http://www.w3.org/2000/svg" viewBox="0 0 16 12" id="email">
    <path d="M1.77778 1.71429L8.17778 6L14.2222 1.71429M15 3.28568V8.71425C15 9.51433 15.0002 9.91443 14.8306 10.22C14.6815 10.4888 14.4432 10.7073 14.1505 10.8443C13.8177 11 13.3825 11 12.5113 11H3.48904C2.61785 11 2.18193 11 1.84918 10.8443C1.55648 10.7073 1.31868 10.4888 1.16955 10.22C1 9.91443 1 9.51433 1 8.71425V3.28568C1 2.4856 1 2.08562 1.16955 1.78003C1.31868 1.51123 1.55648 1.29267 1.84918 1.1557C2.18193 1 2.61785 1 3.48904 1H12.5113C13.3825 1 13.8177 1 14.1505 1.1557C14.4432 1.29267 14.6815 1.51123 14.8306 1.78003C15.0002 2.08562 15 2.4856 15 3.28568Z" stroke="currentColor" stroke-width="1.5" stroke-linecap="round" stroke-linejoin="round"></path>
  </symbol>
</svg>