<svg width="27" height="32" viewBox="0 0 27 32" fill="none" xmlns="http://www.w3.org/2000/svg">
<path d="M3.05895 5.06152C2.77612 5.06152 2.49963 5.14539 2.26446 5.30253C2.02929 5.45967 1.846 5.68301 1.73776 5.94431C1.62953 6.20562 1.60121 6.49316 1.65638 6.77056C1.71156 7.04796 1.84776 7.30277 2.04776 7.50276C2.24775 7.70276 2.50256 7.83896 2.77996 7.89414C3.05737 7.94932 3.3449 7.921 3.60621 7.81276C3.86751 7.70452 4.09086 7.52123 4.24799 7.28606C4.40513 7.05089 4.489 6.77441 4.489 6.49157C4.489 6.1123 4.33833 5.74856 4.07015 5.48037C3.80196 5.21219 3.43822 5.06152 3.05895 5.06152ZM3.05895 7.04964C2.91094 7.04964 2.769 6.99084 2.66434 6.88618C2.55968 6.78152 2.50089 6.63958 2.50089 6.49157C2.50089 6.34356 2.55968 6.20161 2.66434 6.09696C2.769 5.9923 2.91094 5.9335 3.05895 5.9335C3.20696 5.9335 3.34891 5.9923 3.45357 6.09696C3.55822 6.20161 3.61702 6.34356 3.61702 6.49157C3.61702 6.63958 3.55822 6.78152 3.45357 6.88618C3.34891 6.99084 3.20696 7.04964 3.05895 7.04964Z" fill="#63727A"/>
<path d="M26.9774 9.02015C27.0006 7.08583 26.4614 5.18643 25.4253 3.55284C24.9409 2.77268 24.2015 2.18421 23.3325 1.88736H23.2279C23.1194 1.48867 22.8833 1.13647 22.5558 0.884548C22.2283 0.632622 21.8273 0.49482 21.4142 0.49219H5.51799C5.08832 0.491447 4.6712 0.636957 4.33523 0.904786C3.99925 1.17261 3.76443 1.54681 3.66939 1.96583C2.81292 2.27245 2.0828 2.85532 1.59408 3.6226C0.556009 5.24972 0.0109031 7.14245 0.0245199 9.07246C-0.0502871 10.642 0.0462003 12.2151 0.312273 13.7637C0.486669 14.9583 0.687224 15.8739 0.879059 16.6848C1.20169 18.0015 1.6028 19.3008 2.04751 20.5913C2.0432 20.6523 2.0432 20.7135 2.04751 20.7744C2.05129 21.1088 2.14657 21.4358 2.32303 21.7199C2.49949 22.004 2.75038 22.2344 3.04848 22.386C3.34658 22.5376 3.6805 22.6046 4.01402 22.5799C4.34754 22.5551 4.66791 22.4395 4.94038 22.2456C5.21284 22.0517 5.427 21.7868 5.55961 21.4798C5.69221 21.1728 5.73821 20.8353 5.6926 20.504C5.64699 20.1727 5.51152 19.8602 5.30089 19.6005C5.09025 19.3407 4.8125 19.1436 4.49777 19.0305C4.26924 18.2251 4.08871 17.4069 3.95715 16.5802C3.65932 14.6145 3.61828 12.6183 3.83507 10.642C3.99223 10.9543 4.23248 11.2173 4.52939 11.4019C4.8263 11.5865 5.16837 11.6856 5.51799 11.6884H7.87233V11.8279H7.3317V14.9496H7.87233V15.5077H5.77086V17.5655H7.97697V18.7078H8.50016V31.0899H18.4407V18.7078H18.9552V17.5655H21.1526V15.5077H19.0685V14.9496H19.6092V11.8279H19.0685V11.6884H21.4142C21.7899 11.682 22.1555 11.5654 22.4655 11.353C22.7756 11.1406 23.0164 10.8418 23.1581 10.4938C23.3836 12.5017 23.3426 14.5307 23.036 16.5279C22.9074 17.3544 22.7298 18.1726 22.5041 18.9781C22.1894 19.0912 21.9117 19.2884 21.701 19.5481C21.4904 19.8079 21.3549 20.1204 21.3093 20.4517C21.2637 20.783 21.3097 21.1205 21.4423 21.4275C21.5749 21.7345 21.7891 21.9994 22.0615 22.1933C22.334 22.3872 22.6544 22.5028 22.9879 22.5276C23.3214 22.5523 23.6553 22.4852 23.9534 22.3336C24.2515 22.182 24.5024 21.9517 24.6789 21.6676C24.8553 21.3835 24.9506 21.0565 24.9544 20.7221C24.9544 20.6611 24.9544 20.6 24.9544 20.539C25.3991 19.2572 25.8264 17.9231 26.1229 16.6325C26.2537 16.0396 26.4891 15.0368 26.6809 13.7288C26.9498 12.1746 27.0492 10.5958 26.9774 9.02015ZM3.88739 19.8152C4.07709 19.8152 4.26254 19.8715 4.42028 19.9769C4.57801 20.0823 4.70095 20.2321 4.77355 20.4074C4.84615 20.5826 4.86514 20.7755 4.82813 20.9615C4.79112 21.1476 4.69977 21.3185 4.56563 21.4527C4.43148 21.5868 4.26058 21.6782 4.07451 21.7152C3.88845 21.7522 3.69559 21.7332 3.52033 21.6606C3.34506 21.588 3.19526 21.465 3.08986 21.3073C2.98446 21.1496 2.92821 20.9641 2.92821 20.7744C2.92821 20.52 3.02927 20.2761 3.20915 20.0962C3.38903 19.9163 3.633 19.8152 3.88739 19.8152ZM3.66067 9.59565L3.12877 9.36022L3.05029 9.93572C2.74506 12.1968 2.76268 14.4898 3.10261 16.7459C3.22468 17.4958 3.39036 18.237 3.57347 18.9781C3.21026 19.0357 2.87454 19.2066 2.6143 19.4665C2.29167 18.4811 1.99519 17.4871 1.74232 16.4756C1.5592 15.6908 1.36737 14.8014 1.19297 13.6242C0.923447 12.1258 0.823993 10.6019 0.896499 9.08118C0.880334 7.314 1.38037 5.58053 2.33526 4.09346C2.71061 3.49739 3.2712 3.04095 3.93099 2.79422C4.16722 2.73183 4.4104 2.6996 4.65473 2.6983C4.76792 2.68965 4.88161 2.68965 4.9948 2.6983V9.40382C4.82473 9.5326 4.62815 9.62196 4.41929 9.66541C4.16504 9.7169 3.90127 9.69264 3.66067 9.59565ZM18.0047 27.5933H17.5687V30.2092H9.37214V27.5933H9.0059V26.9393H9.37214V26.233H8.96231V25.579H9.37214V24.9076H8.98846V24.2536H9.37214V23.556H8.93615V22.9021H9.37214V22.2568H8.93615V21.6028H9.37214V18.8648H17.5687V21.5766H17.935V22.2306H17.5687V22.8759H17.935V23.5299H17.5687V24.2275H17.9786V24.9076H17.5687V25.6052H17.9524V26.2592H17.5687V26.9655H18.0047V27.5933ZM18.3012 18.0015H8.63095V17.5743H18.3361L18.3012 18.0015ZM20.4986 16.1878V16.9377H6.42485V16.1878H20.4986ZM18.9552 12.5081V14.3218H7.98569V12.4819L18.9552 12.5081ZM8.74431 11.8279V11.6797H18.1966V11.8279H8.74431ZM18.1966 14.9496V15.3943H8.74431V14.9496H18.1966ZM21.4142 10.8164H5.51799C5.37687 10.8161 5.23737 10.7864 5.10829 10.7294C4.97921 10.6724 4.86337 10.5892 4.76809 10.4851C5.13178 10.3863 5.46468 10.1973 5.73598 9.93572L5.86678 9.81365V2.01815L5.53543 1.93096C5.24913 1.86734 4.95673 1.83517 4.66345 1.83504C4.75522 1.69142 4.88151 1.57308 5.03078 1.49083C5.18005 1.40858 5.34756 1.36503 5.51799 1.36417H21.4142C21.5662 1.36582 21.7158 1.402 21.8518 1.46998C21.9877 1.53795 22.1064 1.63595 22.1989 1.75656C21.9579 1.76276 21.7181 1.79491 21.4839 1.85248L21.1613 1.93096V9.71773L21.2834 9.83981C21.5436 10.0999 21.8641 10.2916 22.2164 10.3979C22.1248 10.5256 22.0045 10.6301 21.8652 10.7028C21.7258 10.7755 21.5713 10.8144 21.4142 10.8164ZM23.1581 21.6551C22.9684 21.6551 22.783 21.5989 22.6252 21.4935C22.4675 21.3881 22.3446 21.2383 22.272 21.063C22.1994 20.8877 22.1804 20.6949 22.2174 20.5088C22.2544 20.3228 22.3457 20.1518 22.4799 20.0177C22.614 19.8836 22.7849 19.7922 22.971 19.7552C23.1571 19.7182 23.3499 19.7372 23.5252 19.8098C23.7005 19.8824 23.8503 20.0053 23.9557 20.1631C24.061 20.3208 24.1173 20.5062 24.1173 20.6959C24.1173 20.8234 24.0919 20.9496 24.0427 21.0671C23.9934 21.1846 23.9212 21.2911 23.8302 21.3804C23.7393 21.4697 23.6315 21.54 23.5131 21.5872C23.3947 21.6343 23.2681 21.6574 23.1407 21.6551H23.1581ZM25.8177 13.5719C25.6345 14.8624 25.4078 15.839 25.2683 16.4145C25.0242 17.4173 24.7364 18.4114 24.3963 19.3967C24.1314 19.1386 23.7935 18.9681 23.4284 18.9084C23.6237 18.1729 23.7809 17.4278 23.8993 16.6761C24.2481 14.4207 24.2657 12.1265 23.9516 9.86596L23.8731 9.29046L23.3412 9.52589C23.1156 9.63149 22.8629 9.66498 22.6175 9.62181C22.3982 9.58109 22.1919 9.4884 22.0158 9.3515V2.62854C22.3612 2.58702 22.7113 2.6167 23.0448 2.71574C23.7198 2.93719 24.2984 3.38348 24.6841 3.98011C25.6359 5.47739 26.1299 7.21996 26.1054 8.99399C26.178 10.5259 26.0815 12.0611 25.8177 13.5719Z" fill="#63727A"/>
<path d="M23.5687 4.65186C23.2859 4.65186 23.0094 4.73573 22.7742 4.89286C22.5391 5.05 22.3558 5.27334 22.2475 5.53465C22.1393 5.79595 22.111 6.08349 22.1662 6.36089C22.2213 6.63829 22.3575 6.8931 22.5575 7.0931C22.7575 7.29309 23.0123 7.42929 23.2897 7.48447C23.5671 7.53965 23.8547 7.51133 24.116 7.40309C24.3773 7.29485 24.6006 7.11156 24.7578 6.87639C24.9149 6.64122 24.9988 6.36474 24.9988 6.0819C24.9988 5.70263 24.8481 5.33889 24.5799 5.07071C24.3117 4.80252 23.948 4.65186 23.5687 4.65186ZM23.5687 6.63997C23.4207 6.63997 23.2788 6.58117 23.1741 6.47651C23.0694 6.37186 23.0107 6.22991 23.0107 6.0819C23.0107 5.93389 23.0694 5.79195 23.1741 5.68729C23.2788 5.58263 23.4207 5.52383 23.5687 5.52383C23.7167 5.52383 23.8587 5.58263 23.9633 5.68729C24.068 5.79195 24.1268 5.93389 24.1268 6.0819C24.1268 6.22991 24.068 6.37186 23.9633 6.47651C23.8587 6.58117 23.7167 6.63997 23.5687 6.63997Z" fill="#63727A"/>
<path d="M17.9344 22.2306V21.5767H17.5681H9.37154H8.93555V22.2306H9.37154H17.5681H17.9344Z" fill="#63727A"/>
<path d="M17.9344 23.5212V22.8672H17.5681H9.37154H8.93555V23.5212H9.37154H17.5681H17.9344Z" fill="#63727A"/>
<path d="M17.9784 24.8727V24.2188H17.5686H9.37195H8.98828V24.8727H9.37195H17.5686H17.9784Z" fill="#63727A"/>
<path d="M17.953 26.2331V25.5791H17.5693H9.37272H8.96289V26.2331H9.37272H17.5693H17.953Z" fill="#63727A"/>
<path d="M9.37209 26.9307H9.00586V27.5846H9.37209H17.5687H18.0047V26.9307H17.5687H9.37209Z" fill="#63727A"/>
</svg>
