<svg width="32" height="35" viewBox="0 0 32 35" fill="none" xmlns="http://www.w3.org/2000/svg">
<g clip-path="url(#clip0_119_897)">
<path d="M31.9497 17.0846C31.4232 10.0786 26.2769 5.86494 24.6675 4.68393C21.979 2.73818 18.8013 1.59364 15.4977 1.3811C15.3779 1.09456 15.2209 0.825312 15.0308 0.580409L14.9016 0.470315H10.7489C10.5165 0.281668 10.232 0.169826 9.9342 0.15004C7.74854 -0.0701487 7.43063 -0.0701487 7.11271 0.260134C6.87443 0.543372 6.72566 0.891921 6.68552 1.26099C6.45505 2.01851 6.38067 2.81548 6.46695 3.603C6.57623 3.92327 6.68552 4.35364 6.78486 4.68393C6.78486 4.79402 6.89415 4.79402 6.89415 4.89411L7.11271 5.1143L7.53991 5.54466H8.53339C9.14465 5.5251 9.75301 5.45142 10.3515 5.32448C10.5009 5.33991 10.6513 5.30469 10.7787 5.22439L10.9277 5.0042L14.8122 5.08427L14.9016 5.0042C15.0009 4.87409 15.0904 4.74398 15.1798 4.60386C17.9381 4.81253 20.5887 5.77063 22.8494 7.37623C24.5078 8.48643 25.9021 9.95216 26.9326 11.6686C27.9631 13.3849 28.6043 15.3096 28.8103 17.3047C28.9367 20.2314 28.1395 23.1232 26.5331 25.5651C24.9268 28.0069 22.5938 29.8733 19.869 30.8964C14.4943 33.0282 6.57623 31.7571 3.89384 26.5827C3.1689 25.0194 2.85746 23.2938 2.98976 21.5735C3.12205 19.8531 3.69359 18.1965 4.64888 16.7643C7.85782 12.0202 13.9677 12.4506 14.1764 12.4506C14.8221 12.4506 20.0677 12.991 21.8858 16.8744C22.313 17.625 23.4952 20.5375 21.995 22.269C21.4538 22.8437 20.7674 23.2592 20.0096 23.4708C19.2517 23.6823 18.451 23.6821 17.6933 23.47C17.6072 23.1556 17.4696 22.8579 17.286 22.5893L17.1767 22.4792L13.0041 22.0188C12.7883 21.8474 12.5311 21.7368 12.2589 21.6985C10.113 21.3782 9.90439 21.2681 9.4772 21.5884C9.18525 21.8649 8.96374 22.2082 8.83143 22.5893C8.62363 23.3286 8.51668 24.0929 8.51352 24.8612C8.53495 25.226 8.60512 25.5862 8.72215 25.9321C8.7818 25.9913 8.82025 26.0688 8.83143 26.1523C8.83143 26.2624 8.83143 26.2624 8.94072 26.3625C9.10366 26.4969 9.28418 26.608 9.4772 26.6928C10.1126 26.8177 10.7573 26.888 11.4045 26.903H12.1497C12.2992 26.9192 12.4498 26.8839 12.5769 26.8029L12.7756 26.6027L16.6501 27.0131C16.8011 26.8891 16.9408 26.7518 17.0674 26.6027C18.3908 26.9273 19.7766 26.8867 21.079 26.4852C22.3814 26.0836 23.5524 25.3359 24.4688 24.3208C27.2506 20.9679 25.5418 16.6542 24.896 15.313C22.4222 10.0085 15.8951 9.2078 14.6036 9.10772C13.9081 9.00763 6.35767 8.56726 2.18505 14.8226C0.917433 16.7591 0.172054 18.9946 0.0222459 21.3093C-0.127562 23.624 0.323363 25.9381 1.33066 28.0239C3.78455 32.768 9.2785 35.0299 14.7128 35.0299C16.8298 35.0427 18.9322 34.6767 20.9221 33.949C27.8168 31.2167 32.4862 24.2107 31.9497 17.0846ZM14.4943 4.46374H11.3251C11.5341 4.00452 11.649 3.50751 11.6629 3.00249H12.557C12.6095 3.09734 12.6891 3.17407 12.7855 3.22267C12.9832 3.33875 13.2035 3.41044 13.4312 3.43285C13.5552 3.43616 13.678 3.40867 13.7889 3.35282C13.8998 3.29696 13.9953 3.21445 14.0671 3.11258C14.204 2.96601 14.2819 2.77336 14.2856 2.57212C14.2856 2.35193 14.2856 2.14175 14.0671 2.03165C13.8355 1.9096 13.5823 1.83478 13.322 1.81146C13.1776 1.82113 13.0378 1.86633 12.9148 1.94311C12.7918 2.01989 12.6894 2.1259 12.6166 2.25184H11.6231C11.581 1.83789 11.4667 1.43469 11.2853 1.06082C11.2669 1.03941 11.247 1.01934 11.2257 1.00077H14.7128C14.7917 1.10813 14.8615 1.22196 14.9215 1.34106L14.842 4.00334C14.7475 4.17208 14.6305 4.32699 14.4943 4.46374ZM10.3217 4.79402C10.3217 4.89411 10.2124 4.89411 10.1031 4.89411C9.29336 5.03822 8.46843 5.07523 7.64919 5.0042C8.11613 5.0042 8.49365 4.00334 8.48372 2.73225C8.55334 1.9641 8.33738 1.19727 7.87769 0.580409H7.94724C8.53081 0.572641 9.11261 0.646748 9.67589 0.800598C9.8705 0.81962 10.0561 0.892347 10.2124 1.01078C10.3452 1.13441 10.456 1.27995 10.5402 1.44115C10.6574 1.72029 10.7408 2.01265 10.7886 2.31189H10.0037C9.78518 2.31189 9.67589 2.41198 9.67589 2.63217V2.74226C9.67589 2.85236 9.89446 2.95244 10.0037 2.95244H10.8581C10.8511 3.45937 10.743 3.9597 10.5402 4.4237C10.5323 4.50827 10.4934 4.58681 10.4309 4.64389C10.4377 4.66119 10.44 4.67992 10.4376 4.69835C10.4352 4.71679 10.4283 4.73431 10.4174 4.7493C10.4065 4.76428 10.392 4.77625 10.3752 4.78407C10.3585 4.79189 10.3401 4.79531 10.3217 4.79402ZM10.1031 2.63217H12.4874C12.4874 2.63217 12.4874 2.70223 12.4874 2.74226H10.0037L10.1031 2.63217ZM12.9146 3.17263C12.8028 3.05821 12.7298 2.91106 12.706 2.75227C12.706 2.75227 12.706 2.68221 12.706 2.64218C12.7656 2.35193 13.0339 2.0917 13.2226 2.0917C13.4224 2.09546 13.6136 2.17395 13.7591 2.31189C13.8684 2.31189 13.9777 2.52207 13.9777 2.63217C13.9777 2.74226 13.9777 2.95244 13.8684 3.06254C13.7591 3.17263 13.5405 3.28273 13.3319 3.28273C13.1233 3.28273 12.9941 3.28273 12.9146 3.17263ZM11.9212 26.3625C11.099 26.4367 10.2708 26.4031 9.45733 26.2624L9.2487 26.0222C9.28544 26.0846 9.33429 26.139 9.39232 26.1819C9.45035 26.2249 9.51639 26.2557 9.58648 26.2724C10.0534 26.2724 10.5303 25.3416 10.6495 24.1006C10.7735 23.3773 10.6619 22.633 10.3316 21.9788C10.9451 22.01 11.5524 22.1176 12.1397 22.299C12.3373 22.3045 12.5269 22.3787 12.6762 22.5092C12.7417 22.5604 12.7952 22.6256 12.833 22.6999C12.8707 22.7743 12.8918 22.8561 12.8948 22.9396C12.987 23.2417 13.0404 23.5545 13.0537 23.8704L12.249 23.8103C12.1397 23.7002 12.1397 23.8103 12.0304 23.8103C11.9212 23.8103 11.9311 23.9104 11.9311 24.0205V24.2407C11.9311 24.4509 12.0304 24.561 12.1397 24.561L13.0239 24.641C12.9655 25.1089 12.8098 25.5591 12.5669 25.9622C12.4676 25.9622 12.4676 26.0723 12.3583 26.1824C12.249 26.2924 12.249 26.2924 12.1397 26.2924C12.0304 26.2924 12.0304 26.3625 11.9212 26.3625ZM15.4579 24.0205C15.5439 24.0162 15.6298 24.0301 15.71 24.0613C15.7903 24.0924 15.8632 24.1402 15.9241 24.2015C15.9849 24.2628 16.0323 24.3362 16.0633 24.4171C16.0942 24.498 16.108 24.5845 16.1037 24.6711C16.0862 24.8277 16.0091 24.9715 15.8888 25.0722C15.7684 25.1729 15.614 25.2229 15.4579 25.2115C15.3728 25.2144 15.2881 25.1995 15.209 25.1676C15.1299 25.1358 15.0582 25.0878 14.9984 25.0267C14.9387 24.9656 14.8922 24.8926 14.8618 24.8125C14.8315 24.7323 14.818 24.6467 14.8221 24.561C14.8373 24.4052 14.9122 24.2615 15.031 24.1605C15.1497 24.0596 15.3029 24.0093 15.4579 24.0205ZM14.5241 24.4409L12.1397 24.2407V24.1306L14.5539 24.3308L14.5241 24.4409ZM13.5803 24.6811L14.5738 24.7611C14.642 24.9514 14.7658 25.1164 14.929 25.2343C15.0922 25.3522 15.287 25.4176 15.4878 25.4217C16.0242 25.4217 16.4812 25.1014 16.3521 24.6711C16.3521 24.5572 16.3297 24.4444 16.2861 24.3393C16.2425 24.2343 16.1787 24.1389 16.0983 24.0589C16.0179 23.9788 15.9226 23.9156 15.8178 23.8729C15.713 23.8303 15.6008 23.809 15.4878 23.8103C15.3621 23.7837 15.2319 23.789 15.1087 23.8257C14.9856 23.8624 14.8735 23.9293 14.7824 24.0205L13.6597 23.9204C13.6641 23.5147 13.5968 23.1114 13.4611 22.7294L17.1071 23.0697C17.3082 23.4934 17.4262 23.9521 17.4548 24.4208L17.2065 25.6119C17.0488 25.9504 16.8336 26.2586 16.5706 26.5226L13.1531 26.1824C13.3724 25.6969 13.5164 25.1805 13.5803 24.651V24.6811Z" fill="#63727A"/>
</g>
<defs>
<clipPath id="clip0_119_897">
<rect width="32" height="35" fill="white"/>
</clipPath>
</defs>
</svg>
