<svg width="41" height="28" viewBox="0 0 41 28" fill="none" xmlns="http://www.w3.org/2000/svg">
<g clip-path="url(#clip0_119_908)">
<path d="M20.8945 11.0746C20.5175 10.6975 20.0823 10.3833 19.6057 10.1442C19.2842 9.99606 18.95 9.87728 18.6071 9.78927C18.0636 9.65774 17.4942 9.68134 16.9634 9.85738C16.6513 9.93657 16.3543 10.0666 16.0843 10.2422C16.0147 10.3749 15.9135 10.4065 15.7427 10.5707C15.2682 10.6277 14.8269 10.8434 14.4904 11.1828C14.4208 11.3155 14.2184 11.3785 14.1488 11.5112C13.3612 11.6772 12.6346 12.0572 12.049 12.6094L11.6443 12.7355C11.3392 12.9099 11.0724 13.1441 10.8598 13.4239C10.6275 13.8303 10.5031 14.2894 10.4983 14.7574L6.33019 17.0549C6.30336 17.0633 6.28094 17.082 6.26788 17.1068C6.25482 17.1317 6.25218 17.1608 6.26054 17.1876L4.05957 18.3173L3.95839 18.3488L3.00812 20.6428L3.03964 20.744C3.12234 21.3054 3.25731 21.8579 3.44279 22.3943C3.69634 23.3433 4.1601 24.223 4.79972 24.9685C5.27929 25.4978 5.86476 25.9205 6.51817 26.209C7.02025 26.4123 7.54751 26.5467 8.08562 26.6087L8.11714 26.7099C8.1255 26.7367 8.14418 26.7591 8.16906 26.7722C8.19395 26.7852 8.223 26.7879 8.24984 26.7795L10.7543 25.5553L10.8555 25.5237L15.1944 23.062C15.3918 23.1751 15.6047 23.2583 15.8264 23.3091L16.8315 23.329L17.135 23.2344C17.3374 23.1714 17.6094 22.9756 17.8118 22.9126L18.3176 22.755C18.9792 22.4582 19.562 22.0105 20.0193 21.4479L20.5252 21.2903C20.8317 21.1742 21.1178 21.0101 21.3728 20.8042L21.6763 20.7097C22.0219 20.6202 22.3522 20.4799 22.6565 20.2933C23.1207 19.923 23.5059 19.4633 23.7893 18.9414C24.0733 18.0784 24.0563 17.1446 23.7411 16.2926C23.5155 15.2481 23.1282 14.2452 22.5931 13.3203C22.123 12.5037 21.5523 11.7493 20.8945 11.0746ZM6.7598 17.3651L7.29059 17.6437C7.45322 17.8036 7.64381 17.9323 7.8529 18.0235C8.16263 18.2423 8.51277 18.3973 8.88295 18.4796L7.32056 19.5213L4.76118 18.4317L6.7598 17.3651ZM11.1489 22.5464L9.35265 23.55L7.77507 20.2677L9.57134 19.2641C9.78461 19.8681 10.0419 20.4557 10.3411 21.0222C10.6314 21.5977 10.8901 22.0721 11.1489 22.5464ZM10.2282 19.9474C10.6197 20.4227 10.8749 20.9954 10.9664 21.6043C10.8718 21.3008 10.7076 21.13 10.6131 20.8264C10.5185 20.5229 10.3228 20.2509 10.2282 19.9474ZM11.275 22.9511L11.3065 23.0523L9.51025 24.0559L9.47873 23.9547L11.275 22.9511ZM7.68051 19.9641L7.64899 19.8629L9.17986 18.72C9.23056 18.7481 9.27441 18.787 9.30825 18.8341C9.3421 18.8811 9.3651 18.9351 9.3756 18.992L7.68051 19.9641ZM3.37469 20.7506L4.28682 18.6905L7.34546 19.9575L7.4085 20.1599L9.08064 23.7458L8.83354 24.3777L8.58644 25.0097C8.812 23.7794 8.57442 22.5092 7.91945 21.4436C7.14311 20.0205 5.29197 18.7103 4.34325 19.2279C4.19666 19.3141 4.07297 19.4343 3.98262 19.5783C3.89227 19.7224 3.83791 19.8861 3.82414 20.0556C3.68811 20.7414 3.70389 21.4488 3.87037 22.1279C3.58852 21.7195 3.4177 21.2449 3.37469 20.7506ZM4.56079 23.489C4.02602 22.4539 3.81555 21.2817 3.95684 20.1252C4.03372 19.8538 4.19029 19.6117 4.40629 19.4302L4.50747 19.3987C5.41805 19.115 6.90262 20.3175 7.64744 21.6394C8.23567 22.6926 8.45909 23.9108 8.28291 25.1043C8.2763 25.4393 8.13698 25.7047 7.93463 25.7677C7.82203 25.8461 7.68888 25.8896 7.55174 25.8929C7.41461 25.8961 7.27954 25.859 7.16336 25.786C6.06251 25.3343 5.14577 24.5252 4.56079 23.489ZM6.72713 25.8109L6.4984 25.6824C6.68874 25.7802 6.88811 25.8593 7.0937 25.9187C7.34396 26.0098 7.61931 26.0032 7.86498 25.9004L8.06733 25.8374C8.21158 25.7647 8.33062 25.6502 8.40899 25.509L8.16189 26.1409C7.67 26.1021 7.18654 25.991 6.72713 25.8109ZM10.5271 25.1821L8.49694 26.1475L9.13045 24.6182L10.9267 23.6146C10.7235 24.1167 10.589 24.644 10.5271 25.1821ZM11.2734 24.7276C11.5185 24.0657 11.6015 23.3548 11.5155 22.6542C11.3906 21.2293 10.7777 19.8912 9.7803 18.866C9.05743 18.0762 8.14685 17.4818 7.13299 17.1378L12.9265 14.0009C13.2635 14.0139 13.5935 14.1005 13.8935 14.2547C14.4294 14.4235 14.9097 14.7341 15.2835 15.1536C15.8529 15.6899 16.2877 16.3531 16.5525 17.0891C16.8033 17.5982 17.006 18.1296 17.158 18.6764C17.3067 19.1654 17.3535 19.6797 17.2958 20.1875C17.2931 20.5547 17.2175 20.9178 17.0736 21.2557C17.012 21.4797 16.8786 21.6772 16.6938 21.818L11.2734 24.7276ZM17.9013 21.7748C17.7619 22.0402 17.6542 22.4067 17.4833 22.5709C17.235 22.7127 16.9588 22.7988 16.6739 22.8231C16.3883 22.891 16.0929 22.9079 15.8015 22.8729C15.6688 22.8033 15.5676 22.8348 15.4349 22.7651L16.858 21.9888C17.3118 21.4585 17.5731 20.7904 17.5993 20.0929C17.6571 19.5851 17.6102 19.0709 17.4615 18.5819C17.2991 18.0015 17.0859 17.4365 16.8245 16.8934C16.4995 16.1361 16.0224 15.4536 15.4228 14.8882C15.0033 14.4442 14.4801 14.1114 13.9001 13.9196C13.5249 13.7864 13.1288 13.7218 12.7307 13.7289L12.6296 13.7605L10.7321 14.7956C10.7554 14.4881 10.8533 14.1909 11.0174 13.9297C11.1746 13.6588 11.4309 13.4596 11.7322 13.374C12.0511 13.201 12.4142 13.1265 12.7755 13.16C13.2674 13.1988 13.7508 13.31 14.2103 13.49C14.841 13.7186 15.3919 14.1253 15.796 14.6609C16.4311 15.333 16.9381 16.1155 17.2922 16.9697C17.6929 17.9597 17.9434 19.004 18.0355 20.068C18.0894 20.6404 18.044 21.2178 17.9013 21.7748ZM19.4886 21.1693C19.1764 21.6185 18.7537 21.9796 18.2612 22.2176C18.4106 22.0397 18.4974 21.8177 18.5083 21.5856C18.6598 20.9954 18.6947 20.3813 18.611 19.7777C18.5083 18.6794 18.2474 17.6018 17.8363 16.5782C17.4802 15.6724 16.9232 14.8591 16.2073 14.1998C15.7067 13.6945 15.126 13.2754 14.4889 12.9592C14.0018 12.7133 13.4668 12.5769 12.9214 12.5596C12.8202 12.5911 12.8202 12.5911 12.6876 12.5214C13.0185 12.2375 13.4136 12.0383 13.8386 11.9408C14.0412 11.8602 14.2604 11.83 14.4772 11.8529C14.7892 11.9495 15.09 12.0791 15.3746 12.2393C15.9202 12.4979 16.4317 12.8233 16.8973 13.2079C17.8656 14.009 18.6369 15.0219 19.1516 16.1684C19.57 17.1591 19.7882 18.2228 19.7936 19.2983C19.8098 19.9355 19.7063 20.5702 19.4886 21.1693ZM21.1455 20.4311C20.8451 20.6962 20.4848 20.8846 20.0956 20.9801C20.2216 20.4081 20.3003 19.8267 20.331 19.2419C20.315 18.1317 20.0863 17.0349 19.6574 16.0108C19.0707 14.8146 18.2481 13.7494 17.2389 12.8794C16.7649 12.4628 16.2432 12.1037 15.6847 11.8097C15.4065 11.6854 15.1164 11.5899 14.8189 11.5245L14.92 11.4929C15.2443 11.2645 15.5973 11.0798 15.9699 10.9439C16.8538 11.0664 17.7033 11.3684 18.4663 11.8311C19.1848 12.2818 19.7916 12.8898 20.2411 13.6091C20.9272 14.6167 21.4273 15.739 21.7175 16.923C22.0162 17.7781 22.0331 18.7064 21.7658 19.5718C21.6589 19.9186 21.441 20.2205 21.1455 20.4311ZM23.4924 18.7009C23.3054 19.1886 22.9686 19.6044 22.5305 19.8886C22.3342 20.049 22.102 20.1594 21.8537 20.2104C21.9234 20.0777 22.0942 19.9135 22.1324 19.6796C22.3955 18.7362 22.392 17.7384 22.1222 16.7969C21.8717 15.5631 21.3573 14.3982 20.6143 13.3818C20.1373 12.6462 19.5242 12.0084 18.8079 11.5027C18.0838 11.0299 17.2673 10.7167 16.4128 10.5839L16.4824 10.4512C16.7151 10.2818 16.9797 10.1616 17.2603 10.0979C17.7254 9.92784 18.2354 9.92605 18.7017 10.0928C19.0092 10.1161 19.3064 10.214 19.5675 10.378C19.9948 10.6039 20.3848 10.8942 20.7237 11.2388C21.3899 11.8486 21.923 12.5895 22.2896 13.4149C22.7486 14.297 23.1123 15.2255 23.3745 16.1848C23.6733 16.9911 23.7145 17.8702 23.4924 18.7009Z" fill="#63727A"/>
<path d="M7.73909 25.4955L7.84027 25.4639C8.58664 25.0094 8.25314 23.2264 7.70406 22.1765C7.19783 21.1382 6.35056 20.305 5.30385 19.8164C5.20029 19.764 5.0863 19.7357 4.9703 19.7334C4.85431 19.7311 4.73929 19.7549 4.63375 19.8031C4.52793 19.8569 4.43754 19.9368 4.37109 20.0351C4.30465 20.1335 4.26433 20.2472 4.25395 20.3654C4.0705 21.4201 4.26159 22.5058 4.79415 23.4345C5.32671 24.3631 6.16721 25.0764 7.17017 25.4507C7.3562 25.4959 7.54828 25.511 7.73909 25.4955ZM4.833 23.2929C4.39591 22.4082 4.24015 21.4109 4.38665 20.4351C4.35747 21.374 4.60746 22.3004 5.105 23.0972C5.84982 24.4191 7.20169 25.5519 7.77723 25.2616C7.60508 25.3226 7.4209 25.342 7.23983 25.318C6.23374 24.931 5.38635 24.218 4.833 23.2929Z" fill="#63727A"/>
<path d="M37.22 8.39694L37.0885 8.43792L37.0538 8.32662L34.7655 9.63892L34.6775 9.00035L36.9457 7.69435L36.8763 7.47176L37.1293 7.39296L37.1734 7.53461C37.2934 6.73935 37.1568 5.92654 36.7835 5.21417C36.5575 4.74982 36.2732 4.31619 35.9375 3.92379C35.7854 3.60337 35.547 3.3317 35.2491 3.13928L35.2239 3.05834C34.4871 2.42934 33.5901 2.01712 32.633 1.86758L32.5723 1.88649L29.4541 3.6349L29.3529 3.66643L28.935 4.4626L28.0874 4.94864L27.5434 5.34012C27.4864 5.35062 27.4325 5.37362 27.3855 5.40746C27.3384 5.44131 27.2995 5.48516 27.2714 5.53585L27.2049 5.67867L27.3061 5.64715C27.3194 5.64301 27.3334 5.64153 27.3472 5.64279C27.3611 5.64405 27.3745 5.64803 27.3869 5.65449C27.3992 5.66096 27.4101 5.66979 27.419 5.68049C27.4279 5.69118 27.4346 5.70352 27.4388 5.7168L27.54 5.68528C28.461 5.76113 29.3396 6.1047 30.0678 6.67369C30.7391 7.25962 31.214 8.03777 31.4282 8.90268C31.5466 9.3 31.6183 9.70972 31.6421 10.1236C31.5353 9.09399 31.1346 8.11684 30.4877 7.30877C29.7335 6.50747 28.7485 5.96086 27.6695 5.74482C27.6427 5.75318 27.6136 5.75054 27.5887 5.73748C27.5639 5.72441 27.5452 5.702 27.5368 5.67517C27.4356 5.70669 27.3345 5.73821 27.366 5.83938C27.3975 5.94056 27.429 6.04174 27.5302 6.01022C27.557 6.00186 27.5861 6.0045 27.611 6.01756C27.6359 6.03062 27.6545 6.05304 27.6629 6.07987C28.6981 6.26874 29.6421 6.794 30.3483 7.57416C30.8032 8.18228 31.1298 8.87647 31.3082 9.61461C31.4866 10.3528 31.5133 11.1195 31.3864 11.8682L31.1841 11.9312C31.1924 11.9581 31.1898 11.9871 31.1767 12.012C31.1637 12.0369 31.1413 12.0556 31.1144 12.0639C31.34 12.1823 31.3886 12.2671 31.2445 12.2676L31.1597 12.3162C31.0585 12.3477 30.9955 12.1454 30.9955 12.1454L30.8943 12.1769C30.9706 11.7092 30.9772 11.3741 31.0535 10.9064C31.1297 10.4386 30.9655 10.2678 30.9406 9.83156L30.7515 9.2245C30.5193 8.61156 30.1912 8.0394 29.7794 7.52941C29.1531 6.82036 28.3379 6.30435 27.429 6.04174C27.4157 6.04587 27.4018 6.04736 27.3879 6.0461C27.374 6.04484 27.3606 6.04086 27.3482 6.03439C27.3359 6.02792 27.325 6.01909 27.3161 6.0084C27.3072 5.99771 27.3005 5.98537 27.2963 5.97208C27.1952 6.0036 27.1794 5.95301 27.1573 5.88219C27.1353 5.81137 27.1573 5.88219 27.1573 5.88219C27.1573 5.88219 26.955 5.94523 26.9865 6.04641C27.018 6.14758 26.8157 6.21062 26.746 6.34332L23.666 7.85786L23.4636 7.9209C22.4137 8.46998 22.3807 10.1452 23.1504 11.9034L23.2225 11.8143C23.2079 11.9159 23.2161 12.0195 23.2466 12.1176C23.2772 12.2156 23.3292 12.3055 23.399 12.3809C23.5317 12.4505 23.5632 12.5517 23.6644 12.5202C23.7272 12.5878 23.8054 12.6393 23.8923 12.6702C23.9792 12.7011 24.0723 12.7105 24.1637 12.6976L24.366 12.6346C24.5303 12.8054 24.726 13.0774 24.8902 13.2483C25.1574 13.4804 25.4449 13.6881 25.7494 13.8685C25.8971 13.9765 26.0702 14.0443 26.2518 14.0655C26.4335 14.0867 26.6176 14.0606 26.7861 13.9896C26.9885 13.9265 27.0581 13.7938 27.2289 13.6296C27.3508 13.4636 27.4317 13.2711 27.4648 13.0678C27.498 12.8646 27.4825 12.6564 27.4196 12.4602C27.3225 11.7919 27.1204 11.1431 26.8207 10.5379C26.5499 9.97111 26.1309 9.48803 25.6082 9.13972C25.289 8.80627 24.8696 8.58616 24.4139 8.51282C24.1971 8.48997 23.9779 8.52015 23.7753 8.60076C23.1998 8.89106 23.1103 10.0289 23.6212 11.3127C23.5201 11.3442 23.5201 11.3442 23.4504 11.4769C23.4146 11.4791 23.3799 11.4899 23.3492 11.5084C22.7948 10.0495 22.7992 8.63847 23.567 8.28828C23.8267 8.17739 24.1103 8.13442 24.3912 8.16342C24.6721 8.19242 24.941 8.29244 25.1726 8.45405C25.9045 8.92355 26.4942 9.58427 26.8778 10.3647C27.8183 11.9586 27.8168 13.7351 26.9692 14.2211C26.7181 14.3352 26.4425 14.385 26.1673 14.3661C25.8921 14.3472 25.6259 14.2602 25.3927 14.1129C24.8572 13.7623 24.4081 13.2951 24.0789 12.7462C23.941 12.8058 23.7865 12.8146 23.6427 12.7711C24.0369 13.433 24.5906 13.9856 25.2534 14.3783C25.4864 14.5602 25.7572 14.6877 26.046 14.7514C26.3347 14.8151 26.634 14.8134 26.922 14.7464L27.2255 14.6518C27.4279 14.5888 27.4975 14.4561 27.6684 14.2919L30.211 12.8338L30.6472 12.8089L31.1531 12.6513C31.2611 12.6897 31.3787 12.692 31.4881 12.6579C31.5976 12.6238 31.6931 12.5551 31.7602 12.4621L32.1649 12.3361L33.3027 12.4256L33.4039 12.394L36.4524 10.7783C36.4792 10.77 36.5016 10.7513 36.5147 10.7264C36.5278 10.7015 36.5304 10.6725 36.5221 10.6456L37.4342 8.58552L37.3081 8.18081L37.3585 8.34269L37.22 8.39694ZM30.0417 11.2216C30.0497 11.5711 30.009 11.92 29.9207 12.2582L27.9851 13.5272C28.115 12.9364 28.1257 12.3257 28.0166 11.7307C27.9075 11.1358 27.6808 10.5685 27.3496 10.0623C26.9012 9.2669 26.2715 8.58843 25.5117 8.082C25.2496 7.88032 24.9411 7.74748 24.6144 7.69558L26.8154 6.56591C27.2614 6.73177 27.6944 6.93079 28.1108 7.16129C28.6734 7.61864 29.1211 8.20145 29.4179 8.86299C29.6966 9.40022 29.878 9.98253 29.9538 10.583C30.0168 10.7853 29.9787 11.0192 30.0417 11.2216ZM30.7235 12.3411L30.4896 12.303C30.5181 11.7541 30.4953 11.2039 30.4215 10.6593C30.3348 10.0249 30.1431 9.40942 29.8541 8.83808C29.5086 8.15004 29.0173 7.54556 28.4143 7.06673C28.0712 6.81375 27.7053 6.59332 27.3212 6.40831C28.1975 6.67048 28.9945 7.14702 29.6401 7.7948C30.0077 8.29228 30.3229 8.82642 30.5807 9.38872L30.7698 9.99577C30.8483 10.314 30.8757 10.6426 30.8511 10.9694C30.8574 11.4299 30.8146 11.8897 30.7235 12.3411ZM31.6633 10.4056C31.6633 10.4056 31.6564 10.4188 31.6633 10.4056V10.4056ZM36.5582 5.41754C36.8367 5.95485 37.0181 6.53712 37.0941 7.13753L34.4503 8.62716L33.2326 5.78761L35.8765 4.29798C36.1885 4.61241 36.4221 4.99596 36.5582 5.41754ZM35.6807 4.02598L33.0369 5.51561L32.4431 5.03463L35.0554 3.44383C35.3098 3.5817 35.525 3.78203 35.6807 4.02598ZM32.6984 2.2912C33.4883 2.3716 34.2385 2.67726 34.8596 3.17182L32.1462 4.79414L29.9534 3.81235L32.6984 2.2912ZM30.4378 6.43632C29.7687 5.88727 28.9665 5.52457 28.1124 5.38487L28.3147 5.32183C28.8539 5.35594 29.3727 5.54035 29.8125 5.85417C30.5018 6.28844 31.0951 6.85905 31.5558 7.53096C31.9538 8.23744 32.1976 9.02017 32.2714 9.82766C32.2263 9.47456 32.1196 9.13211 31.9562 8.8159C31.6826 7.89631 31.1565 7.0719 30.4378 6.43632ZM32.2458 10.102C32.2868 10.2335 32.2671 10.384 32.2676 10.5281C32.2681 10.6722 32.261 10.8632 32.1913 10.9959C32.2347 10.7 32.2529 10.401 32.2458 10.102ZM32.6026 10.5347C32.6978 9.41509 32.4637 8.29205 31.929 7.3037C31.4692 6.52882 30.8106 5.89093 30.0215 5.45608C29.6301 5.22317 29.2031 5.05621 28.7575 4.96187L29.2319 4.70309C30.1948 4.94144 31.0763 5.43337 31.7847 6.12773C32.4404 6.7278 32.8834 7.52467 33.047 8.39835C33.266 9.05766 33.3324 9.75807 33.2412 10.4468C33.2124 10.7018 33.1394 10.9499 33.0256 11.1799L32.4501 11.4702C32.5244 11.1627 32.5754 10.8499 32.6026 10.5347ZM32.8482 11.6792L33.1899 11.3508C33.3176 11.0413 33.4029 10.716 33.4436 10.3837C33.5695 9.65675 33.5269 8.91055 33.319 8.20261C33.0484 7.32192 32.57 6.51925 31.924 5.86233C31.2168 5.16629 30.3349 4.67409 29.3712 4.4377L29.5802 4.03961L32.0384 5.16071L32.7964 5.81252L34.0771 8.85442L34.2911 9.8977L34.0821 10.2958L33.4171 11.7239L32.8482 11.6792ZM36.4656 10.1082L33.9926 11.4336L34.7589 9.97397L37.1307 8.68008L36.4656 10.1082Z" fill="#63727A"/>
<path d="M27.1336 5.80133C27.137 5.82962 27.1456 5.85706 27.1589 5.88227C27.1482 5.81316 27.1614 5.74248 27.1963 5.6819C27.1084 5.72039 27.1147 5.74062 27.1336 5.80133Z" fill="#63727A"/>
<path d="M37.1976 7.57202L37.1945 7.5619L37.1706 7.41395L36.9082 7.4624L36.9472 7.69444L37.0655 8.32356L37.0837 8.41777L37.2215 8.39703L37.3461 8.36932L37.3159 8.20114L37.1976 7.57202Z" fill="#63727A"/>
</g>
<defs>
<clipPath id="clip0_119_908">
<rect width="37.048" height="16.5317" fill="white" transform="translate(0.197266 11.9731) rotate(-17.3039)"/>
</clipPath>
</defs>
</svg>
