<svg width="34" height="36" viewBox="0 0 34 36" fill="none" xmlns="http://www.w3.org/2000/svg">
<path d="M32.5479 24.0208C31.975 23.5021 31.2399 23.1982 30.4679 23.1608C30.4573 23.1122 30.4405 23.0652 30.4179 23.0208C30.2974 22.769 30.1108 22.5547 29.8779 22.4008C29.9379 21.9708 29.9879 21.5508 30.0279 21.1208C30.1887 19.1935 30.0674 17.2531 29.6679 15.3608C29.1178 12.8817 28.0811 10.5364 26.6179 8.46082C25.2365 6.32476 23.4535 4.47724 21.3679 3.02082C19.7168 1.83051 17.8635 0.949587 15.8979 0.420824C14.6995 0.079442 13.4517 -0.0558164 12.2079 0.020824C11.1721 0.0958689 10.1572 0.349614 9.20791 0.770824C8.85791 0.930824 8.38791 1.17082 7.79791 1.48082L6.36791 2.23082C5.36791 2.81082 4.20791 3.48082 3.02791 4.19082V4.25082C2.72258 4.4821 2.43815 4.73976 2.17791 5.02082C1.43906 5.86435 0.890015 6.85673 0.567914 7.93082C0.256759 8.87528 0.0751041 9.85756 0.0279139 10.8508C-0.0415703 12.097 0.0187543 13.3471 0.207914 14.5808C0.419796 16.1435 0.798628 17.6789 1.33791 19.1608C2.04834 20.8912 2.97577 22.5243 4.09791 24.0208C4.95537 25.2627 5.91182 26.4331 6.95791 27.5208C7.98946 28.5841 9.13275 29.5329 10.3679 30.3508C11.6794 31.2085 13.1028 31.8815 14.5979 32.3508C15.5832 32.7175 16.6182 32.9333 17.6679 32.9908H18.4479C18.7879 32.9908 19.1179 32.8908 19.4479 32.8208C19.3865 33.0161 19.3865 33.2255 19.4479 33.4208C19.559 33.6647 19.748 33.8647 19.9851 33.9896C20.2221 34.1145 20.494 34.1571 20.7579 34.1108H21.1979C21.4346 34.1139 21.6699 34.1475 21.8979 34.2108C22.0413 34.2449 22.1793 34.2987 22.3079 34.3708C22.4179 34.3708 22.5679 34.4908 22.8079 34.5808C23.1851 34.7294 23.5729 34.8498 23.9679 34.9408C24.2981 35.0021 24.6323 35.0389 24.9679 35.0508H25.1079C28.9279 31.8308 31.7179 29.4708 31.8679 29.3308C31.9295 29.2675 31.9832 29.197 32.0279 29.1208L32.1779 28.9108C32.2683 28.7855 32.3517 28.6553 32.4279 28.5208C32.5142 28.379 32.5846 28.2281 32.6379 28.0708C32.938 27.9894 33.2043 27.8142 33.3979 27.5708C34.1079 26.5808 33.4879 24.8408 32.5479 24.0208ZM29.7879 23.0208C29.8469 23.0934 29.9004 23.1703 29.9479 23.2508L29.7379 23.3108C29.7307 23.2115 29.7478 23.112 29.7879 23.0208ZM8.11791 2.18082C8.70791 1.88082 9.11791 1.64082 9.49791 1.49082C10.3774 1.09935 11.3179 0.862546 12.2779 0.790824C13.4368 0.710104 14.6009 0.831926 15.7179 1.15082C17.5781 1.64378 19.3332 2.47053 20.8979 3.59082C22.9373 5.01404 24.6798 6.82106 26.0279 8.91082C27.4383 10.9074 28.4377 13.1645 28.9679 15.5508C29.3459 17.3717 29.4604 19.2374 29.3079 21.0908C29.239 21.9827 29.1053 22.8684 28.9079 23.7408L26.9079 25.3708C26.8149 25.2178 26.6899 25.0867 26.5415 24.9866C26.393 24.8865 26.2246 24.8197 26.0479 24.7908C25.877 24.786 25.7072 24.8184 25.55 24.8858C25.3929 24.9531 25.2523 25.0538 25.1379 25.1808C25.1779 24.9008 25.2079 24.6208 25.2279 24.3408C25.4446 21.7974 25.1627 19.2362 24.3979 16.8008C23.4477 13.8908 21.855 11.2319 19.7379 9.02082C18.2098 7.32457 16.4123 5.89201 14.4179 4.78082C12.9582 3.82874 11.3111 3.20126 9.58791 2.94082C9.13035 2.88099 8.66938 2.85092 8.20791 2.85082C7.76981 2.84257 7.33175 2.86933 6.89791 2.93082H6.73791L8.11791 2.18082ZM7.11791 3.66082C7.89532 3.57079 8.68051 3.57079 9.45791 3.66082C11.0848 3.9081 12.6417 4.49406 14.0279 5.38082C15.9489 6.4603 17.6815 7.84505 19.1579 9.48082C21.2 11.623 22.7285 14.2013 23.6279 17.0208C24.3608 19.3665 24.6358 21.8313 24.4379 24.2808C24.3671 25.0261 24.257 25.7672 24.1079 26.5008C23.6179 27.1908 23.1079 27.8408 22.4879 28.5008L22.2079 28.8308C21.6216 28.7938 21.0375 28.7271 20.4579 28.6308C19.3957 28.4411 18.3566 28.1394 17.3579 27.7308C15.9466 27.1074 14.6276 26.2932 13.4379 25.3108C12.0623 24.2618 10.8257 23.042 9.75791 21.6808C8.76645 20.3706 7.94022 18.9432 7.29791 17.4308C6.78491 16.2884 6.36033 15.1082 6.02791 13.9008C5.63272 12.6435 5.41068 11.3381 5.36791 10.0208C5.37826 8.89504 5.53627 7.77549 5.83791 6.69082C6.14284 5.63203 6.57605 4.61449 7.12791 3.66082H7.11791ZM19.8979 31.8508C19.4169 32.0081 18.9209 32.1153 18.4179 32.1708C17.1821 32.2626 15.9409 32.0887 14.7779 31.6608C13.3481 31.1961 11.9862 30.5437 10.7279 29.7208C9.57121 28.9333 8.49886 28.0285 7.52791 27.0208C6.51741 25.9623 5.58811 24.8291 4.74791 23.6308C3.67786 22.1752 2.79118 20.5933 2.10791 18.9208C1.5887 17.4841 1.22659 15.9955 1.02791 14.4808C0.84666 13.2967 0.789684 12.0968 0.857914 10.9008C0.888196 9.97353 1.04636 9.05486 1.32791 8.17082C1.6023 7.20158 2.0795 6.30171 2.72791 5.53082C3.66372 4.56243 4.89499 3.93272 6.22791 3.74082C5.19907 5.67524 4.65354 7.82988 4.63791 10.0208C4.69069 11.4179 4.93635 12.801 5.36791 14.1308C5.70078 15.3712 6.1356 16.582 6.66791 17.7508C8.03594 20.973 10.2297 23.7774 13.0279 25.8808C14.2677 26.9117 15.6483 27.7602 17.1279 28.4008C18.1749 28.8306 19.2643 29.1491 20.3779 29.3508C20.7979 29.4208 21.2279 29.4808 21.6579 29.5208C21.0264 30.2625 20.4387 31.0405 19.8979 31.8508ZM24.8479 34.2108C24.5879 34.2108 24.3479 34.2108 24.1079 34.1208C23.7686 34.0338 23.4347 33.927 23.1079 33.8008L22.6579 33.6008C22.4866 33.5049 22.3008 33.4374 22.1079 33.4008C21.8298 33.313 21.5396 33.2691 21.2479 33.2708H20.7079C20.6136 33.3007 20.5123 33.3007 20.4179 33.2708C20.3143 33.2284 20.2291 33.1504 20.1779 33.0508C20.1793 32.8424 20.2457 32.6396 20.3679 32.4708C21.1708 31.2586 22.0598 30.1056 23.0279 29.0208C23.7823 28.1942 24.4773 27.3153 25.1079 26.3908C25.4479 25.8608 25.7079 25.6008 25.8879 25.6208C26.0679 25.6408 26.1979 25.8408 26.2879 26.0308C26.3779 26.2211 26.3991 26.4367 26.3479 26.6408C26.2937 27.0551 26.3339 27.4763 26.4655 27.8729C26.5971 28.2695 26.8167 28.6312 27.1079 28.9308C27.7252 29.5001 28.512 29.8514 29.3479 29.9308L29.8279 30.0108L24.8479 34.2108ZM31.3479 28.7908C31.0646 29.0885 30.7246 29.3265 30.3479 29.4908L29.9179 29.4008C29.6379 29.3308 29.3679 29.2608 29.0979 29.1708C28.5846 29.0045 28.123 28.7082 27.7579 28.3108C27.493 28.0261 27.2979 27.6838 27.1879 27.3108C27.1367 27.1013 27.1098 26.8865 27.1079 26.6708C27.1135 26.485 27.1403 26.3005 27.1879 26.1208L28.6779 24.9208C28.8321 25.8063 29.271 26.6174 29.9279 27.2308C30.3283 27.5908 30.8079 27.8512 31.3279 27.9908C31.5095 28.0305 31.6931 28.0606 31.8779 28.0808C31.7336 28.34 31.5553 28.5787 31.3479 28.7908ZM32.8379 27.0208C32.3779 27.5708 31.2479 27.4008 30.3679 26.6608C29.4879 25.9208 29.1279 24.8208 29.5979 24.2808C30.0679 23.7408 31.1879 23.9008 32.0679 24.6408C32.9479 25.3808 33.2979 26.4508 32.8379 27.0208Z" fill="#63727A"/>
<path d="M20.1482 7.02087C19.8182 7.31087 19.8082 7.52087 19.8582 7.63087C19.9082 7.74087 20.0282 7.85087 20.3482 7.85087H20.4982C20.8432 7.80017 21.1796 7.7026 21.4982 7.56087C22.1882 7.27087 22.8682 6.78087 22.7082 6.40087C22.6582 6.29087 22.4982 6.15087 22.0582 6.20087C21.712 6.24 21.3744 6.33454 21.0582 6.48087C20.7314 6.6179 20.4251 6.79963 20.1482 7.02087ZM22.1482 6.43087H22.2982C22.4582 6.43087 22.5482 6.43087 22.5582 6.49087C22.5682 6.55087 22.2782 6.98087 21.4782 7.33087C21.1583 7.4629 20.8219 7.55038 20.4782 7.59087H20.0282C20.0282 7.59087 20.0282 7.43087 20.2582 7.26087C20.5113 7.04491 20.7986 6.87256 21.1082 6.75087C21.4304 6.59815 21.7746 6.49692 22.1282 6.45087L22.1482 6.43087Z" fill="#63727A"/>
<path d="M18.8376 6.63082C18.8683 6.69111 18.9173 6.74013 18.9776 6.77082C19.0933 6.7914 19.2118 6.7914 19.3276 6.77082C19.7372 6.76065 20.1411 6.67241 20.5176 6.51082C21.0167 6.31421 21.4405 5.96401 21.7276 5.51082C21.7426 5.47963 21.7505 5.44545 21.7505 5.41082C21.7505 5.37619 21.7426 5.34201 21.7276 5.31082C21.5376 4.95082 20.2576 5.49082 20.1076 5.55082C19.9576 5.61082 18.7076 6.25082 18.8376 6.63082ZM21.4976 5.52082C21.2187 5.88475 20.8451 6.16497 20.4176 6.33082C20.0025 6.52357 19.5427 6.59963 19.0876 6.55082C19.4129 6.25071 19.7932 6.0164 20.2076 5.86082C20.6112 5.66415 21.0495 5.54863 21.4976 5.52082Z" fill="#63727A"/>
<path d="M17.6675 5.71094C17.6982 5.76884 17.7475 5.81466 17.8075 5.84094C17.9197 5.88166 18.0382 5.90198 18.1575 5.90094C18.5742 5.88748 18.9847 5.79589 19.3675 5.63094C19.8667 5.43433 20.2904 5.08413 20.5775 4.63094C20.5925 4.6015 20.6002 4.56895 20.6002 4.53594C20.6002 4.50293 20.5925 4.47038 20.5775 4.44094C20.3875 4.07094 19.1075 4.61094 18.9575 4.68094C18.8075 4.75094 17.5375 5.33094 17.6675 5.71094ZM20.3675 4.59094C20.093 4.95746 19.7228 5.24119 19.2975 5.41094C18.8816 5.60076 18.4217 5.67338 17.9675 5.62094C18.2808 5.35728 18.6402 5.15386 19.0275 5.02094C19.4382 4.78321 19.8952 4.63656 20.3675 4.59094Z" fill="#63727A"/>
<path d="M16.5571 4.89106C16.5878 4.95135 16.6368 5.00037 16.6971 5.03106C16.8233 5.07049 16.9548 5.09071 17.0871 5.09106C17.4883 5.08228 17.8833 4.99035 18.2471 4.82106C18.7348 4.5975 19.1304 4.2125 19.3671 3.73106C19.3821 3.69987 19.39 3.66569 19.39 3.63106C19.39 3.59643 19.3821 3.56225 19.3671 3.53106C19.2171 3.33106 18.8371 3.53106 17.7571 4.04106C16.6771 4.55106 16.4971 4.67106 16.5571 4.89106ZM19.1471 3.70106C18.9109 4.09402 18.5627 4.40743 18.1471 4.60106C17.7459 4.79298 17.2992 4.86917 16.8571 4.82106C17.177 4.61133 17.5111 4.4242 17.8571 4.26106C18.2721 4.04158 18.7034 3.85436 19.1471 3.70106Z" fill="#63727A"/>
<path d="M15.3673 4.20104C15.3793 4.23018 15.397 4.25667 15.4193 4.27898C15.4416 4.30128 15.4681 4.31897 15.4973 4.33104C15.6251 4.37922 15.7607 4.40296 15.8973 4.40104C16.2877 4.38353 16.6712 4.29191 17.0273 4.13104C17.5346 3.90848 17.9484 3.51592 18.1973 3.02104C18.2122 2.99159 18.22 2.95905 18.22 2.92604C18.22 2.89302 18.2122 2.86048 18.1973 2.83104C18.0573 2.63104 17.6773 2.83104 16.5973 3.33104C15.5173 3.83104 15.2973 4.02104 15.3673 4.20104ZM17.9373 3.02104C17.7035 3.41353 17.3543 3.72433 16.9373 3.91104C16.5343 4.10855 16.0828 4.18497 15.6373 4.13104C15.9572 3.9213 16.2913 3.73418 16.6373 3.57104C17.0559 3.35468 17.4905 3.17081 17.9373 3.02104Z" fill="#63727A"/>
<path d="M14.2284 3.59084C14.2362 3.61524 14.2492 3.63768 14.2665 3.65665C14.2837 3.67562 14.3048 3.69069 14.3284 3.70084H14.5984C15.0602 3.67912 15.5128 3.56343 15.9284 3.36084C16.4038 3.15529 16.8026 2.80547 17.0684 2.36084C17.0826 2.33842 17.0902 2.3124 17.0902 2.28584C17.0902 2.25928 17.0826 2.23327 17.0684 2.21084C16.9784 2.09084 16.9684 2.10084 16.0684 2.52084L15.0284 3.02084C14.2084 3.44084 14.1884 3.45084 14.2284 3.59084ZM16.2284 2.76084L16.7284 2.52084C16.4793 2.79012 16.1848 3.01352 15.8584 3.18084C15.499 3.34896 15.1134 3.45383 14.7184 3.49084L15.1684 3.27084L16.2284 2.76084Z" fill="#63727A"/>
<path d="M13.0779 3.02101C13.0879 3.04576 13.1028 3.06825 13.1217 3.08714C13.1406 3.10603 13.1631 3.12095 13.1879 3.13101C13.2575 3.14099 13.3282 3.14099 13.3979 3.13101C13.8776 3.10293 14.3453 2.96979 14.7679 2.74101C15.2381 2.51394 15.6235 2.14254 15.8679 1.68101C15.8825 1.66061 15.8904 1.63612 15.8904 1.61101C15.8904 1.58589 15.8825 1.56141 15.8679 1.54101C15.7779 1.41101 15.7579 1.42101 14.9179 1.87101L13.9179 2.42101C13.0279 2.91101 13.0279 2.92101 13.0779 3.02101ZM15.0279 2.16101L15.5279 1.90101C15.2914 2.18342 15.0029 2.41768 14.6779 2.59101C14.3245 2.80438 13.9345 2.95019 13.5279 3.02101L13.9579 2.78101L15.0279 2.16101Z" fill="#63727A"/>
<path d="M12.5676 2.27068C12.2676 2.43068 12.1676 2.48068 12.2076 2.62068C12.2307 2.66039 12.2657 2.69186 12.3076 2.71068C12.3638 2.7208 12.4214 2.7208 12.4776 2.71068C12.9068 2.6797 13.3236 2.55329 13.6976 2.34068C14.1277 2.12064 14.4776 1.77077 14.6976 1.34068C14.7076 1.31868 14.7127 1.29482 14.7127 1.27068C14.7127 1.24654 14.7076 1.22268 14.6976 1.20068C14.5976 1.10068 14.4976 1.20068 14.1876 1.36068C13.8776 1.52068 13.6876 1.69068 13.2376 1.94068L12.5676 2.27068ZM14.2576 1.58068C14.0656 1.81244 13.8315 2.00583 13.5676 2.15068C13.3147 2.29183 13.0415 2.39303 12.7576 2.45068C12.9076 2.38068 13.0876 2.28068 13.3176 2.15068C13.7476 1.91068 14.0276 1.71068 14.2576 1.58068Z" fill="#63727A"/>
<path d="M11.0778 2.41059V2.48059H11.1378C11.1806 2.49043 11.2251 2.49043 11.2678 2.48059C11.6644 2.44197 12.0489 2.32287 12.3978 2.13059C12.8174 1.9479 13.1677 1.63612 13.3978 1.24059V1.16059C13.3078 1.06059 13.2078 1.16059 12.9278 1.30059C12.6478 1.44059 12.4678 1.59059 12.0578 1.82059L11.4878 2.13059C11.1378 2.23059 11.0278 2.28059 11.0778 2.41059ZM12.0778 2.00059L12.7778 1.58059C12.6566 1.73184 12.5191 1.86933 12.3678 1.99059C12.194 2.09078 12.0095 2.17128 11.8178 2.23059L12.0778 2.00059Z" fill="#63727A"/>
<path d="M10.0879 2.2506C10.4388 2.2227 10.7797 2.12043 11.0879 1.9506C11.4183 1.77308 11.692 1.50626 11.8779 1.1806C11.7879 1.0906 11.7079 1.1806 11.4679 1.3006C11.2279 1.4206 11.0779 1.5406 10.7379 1.7306L10.2579 1.9906C10.0279 2.1106 9.93794 2.1606 9.97794 2.2806H10.0879V2.2506Z" fill="#63727A"/>
<path d="M21.7282 10.021C21.7982 10.181 21.9782 10.241 22.2182 10.241C22.617 10.2006 23.0059 10.0924 23.3682 9.92103C23.7261 9.78644 24.0629 9.60122 24.3682 9.37103C24.6982 9.08103 24.7082 8.87103 24.6582 8.75103C24.6082 8.63103 24.4582 8.50103 24.0182 8.55103C23.672 8.59016 23.3344 8.6847 23.0182 8.83103C22.2482 9.10103 21.5782 9.59103 21.7282 10.021ZM24.0282 8.76103C24.2882 8.76103 24.4082 8.76103 24.4182 8.82103C24.4282 8.88103 24.4182 8.98103 24.1982 9.15103C23.937 9.36075 23.6475 9.53245 23.3382 9.66103C22.5382 10.001 22.0282 9.96103 21.9882 9.87103C21.9482 9.78103 22.2382 9.41103 23.0282 9.02103C23.3452 8.8806 23.6829 8.79278 24.0282 8.76103Z" fill="#63727A"/>
<path d="M22.6171 11.1708C22.6871 11.3308 22.8671 11.3908 23.1071 11.3908C23.5184 11.3621 23.9213 11.2605 24.2971 11.0908C24.6243 10.9545 24.9307 10.7727 25.2071 10.5508C25.5471 10.2508 25.5571 10.0508 25.5071 9.93084C25.3471 9.56084 24.5071 9.71084 23.8271 10.0108C23.1471 10.3108 22.4571 10.8008 22.6171 11.1708ZM25.2771 10.0208C25.2771 10.0208 25.2771 10.1808 25.0471 10.3508C24.7881 10.5558 24.5021 10.7241 24.1971 10.8508C23.3971 11.2008 22.8871 11.1608 22.8471 11.0708C22.8071 10.9808 23.1271 10.5808 23.9271 10.2308C24.3445 10.0226 24.8162 9.94922 25.2771 10.0208Z" fill="#63727A"/>
<path d="M23.3679 12.4106C23.4379 12.5606 23.6179 12.6306 23.8579 12.6306C24.2692 12.6019 24.6722 12.5003 25.0479 12.3306C25.3774 12.1885 25.6868 12.0036 25.9679 11.7806C26.2979 11.4906 26.3079 11.2906 26.2579 11.1706C26.0979 10.8006 25.2579 10.9506 24.5779 11.2506C23.8979 11.5506 23.2479 12.0206 23.3679 12.4106ZM26.0279 11.2706C26.0279 11.2706 26.0279 11.4206 25.7979 11.5906C25.5418 11.8023 25.2552 11.9742 24.9479 12.1006C24.1479 12.4406 23.6379 12.4006 23.5979 12.3106C23.5579 12.2206 23.8779 11.8206 24.6779 11.4806C25.4779 11.1406 26.0279 11.1706 26.0279 11.2706Z" fill="#63727A"/>
<path d="M25.2479 12.5611C24.9145 12.6955 24.6041 12.881 24.3279 13.1111C23.9979 13.4011 23.9879 13.6011 24.0379 13.7211C24.0879 13.8411 24.2079 13.9311 24.5279 13.9311H24.6879C25.0329 13.8804 25.3693 13.7828 25.6879 13.6411C26.0174 13.499 26.3268 13.314 26.6079 13.0911C26.9379 12.8011 26.9479 12.6011 26.8979 12.4811C26.8479 12.3611 26.6879 12.2311 26.2479 12.2711C25.9012 12.3137 25.5636 12.4116 25.2479 12.5611ZM26.4379 12.5611C26.6079 12.5611 26.6879 12.5611 26.6979 12.6311C26.7079 12.7011 26.6979 12.7811 26.4679 12.9511C26.2078 13.1571 25.9221 13.3285 25.6179 13.4611C25.3 13.6009 24.9629 13.6919 24.6179 13.7311C24.3679 13.7311 24.2479 13.7311 24.2279 13.6711C24.2079 13.6111 24.2279 13.5111 24.4579 13.3411C24.9832 12.93 25.6074 12.6644 26.2679 12.5711L26.4379 12.5611Z" fill="#63727A"/>
<path d="M24.6779 15.0209C24.6779 15.1209 24.8479 15.2409 25.1679 15.2409H25.3679C26.0682 15.1429 26.7285 14.856 27.2779 14.4109C27.6179 14.1209 27.6279 13.9209 27.5779 13.8009C27.5279 13.6809 27.3679 13.5509 26.9279 13.5909C26.5819 13.6247 26.2439 13.716 25.9279 13.8609C25.1979 14.1909 24.5179 14.6809 24.6779 15.0209ZM27.0279 13.8309C27.2379 13.8309 27.4079 13.8309 27.4079 13.9109C27.4079 13.9109 27.4079 14.0609 27.1779 14.2309C26.652 14.6427 26.0284 14.9114 25.3679 15.0109C25.1079 15.0109 24.9879 15.0109 24.9779 14.9509C24.9679 14.8909 25.2579 14.4609 26.0579 14.1209C26.3625 13.97 26.6905 13.8719 27.0279 13.8309Z" fill="#63727A"/>
<path d="M26.3686 15.281C26.0353 15.4154 25.7249 15.601 25.4486 15.831C25.1086 16.121 25.1086 16.321 25.1586 16.441C25.2086 16.561 25.3186 16.661 25.6386 16.661H25.7986C26.1436 16.6103 26.4801 16.5127 26.7986 16.371C27.1325 16.2375 27.443 16.0518 27.7186 15.821C28.0586 15.531 28.0586 15.331 28.0086 15.211C27.9586 15.091 27.8286 15.021 27.3686 15.021C27.0245 15.0589 26.6877 15.1464 26.3686 15.281ZM27.7986 15.281C27.7882 15.3487 27.7632 15.4133 27.7252 15.4703C27.6872 15.5273 27.6371 15.5753 27.5786 15.611C27.3196 15.8212 27.0295 15.9899 26.7186 16.111C26.4013 16.2521 26.0639 16.3432 25.7186 16.381C25.4586 16.381 25.3386 16.381 25.3286 16.321C25.3186 16.261 25.3286 16.171 25.5486 16.001C25.8048 15.7841 26.0955 15.6117 26.4086 15.491C26.709 15.3513 27.0297 15.2602 27.3586 15.221H27.4986C27.7086 15.241 27.7886 15.271 27.7986 15.301V15.281Z" fill="#63727A"/>
<path d="M25.8084 17.181C25.4784 17.471 25.4684 17.671 25.5184 17.791C25.5684 17.911 25.6784 18.011 25.9984 18.011H26.1584C26.5033 17.9603 26.8398 17.8627 27.1584 17.721C27.4922 17.5874 27.8027 17.4018 28.0784 17.171C28.4184 16.881 28.4284 16.681 28.3684 16.561C28.3084 16.441 28.1984 16.301 27.7584 16.341C27.0454 16.443 26.3723 16.7329 25.8084 17.181ZM27.9184 16.591C28.0784 16.591 28.1584 16.591 28.1784 16.651C28.1984 16.711 28.1784 16.801 27.9484 16.971C27.6872 17.1807 27.3977 17.3524 27.0884 17.481C26.7847 17.6116 26.4654 17.7023 26.1384 17.751C25.8784 17.751 25.7584 17.751 25.7484 17.691C25.7384 17.631 25.7484 17.531 25.9684 17.371C26.2245 17.154 26.5152 16.9817 26.8284 16.861C27.1253 16.7122 27.4476 16.6206 27.7784 16.591H27.9184Z" fill="#63727A"/>
<path d="M27.0272 18.1007C26.6938 18.2351 26.3834 18.4207 26.1072 18.6507C25.7772 18.9407 25.7672 19.1407 25.8172 19.2607C25.8672 19.3807 25.9872 19.4807 26.3072 19.4807H26.4072C26.7522 19.43 27.0886 19.3324 27.4072 19.1907C27.7391 19.0532 28.049 18.8679 28.3272 18.6407C28.6572 18.3507 28.6672 18.1507 28.6172 18.0307C28.5672 17.9107 28.4672 17.7707 28.0272 17.8107C27.6805 17.8533 27.3429 17.9512 27.0272 18.1007ZM28.1872 18.1007C28.4072 18.1007 28.4072 18.1007 28.4072 18.1007C28.4072 18.1007 28.4072 18.2607 28.1772 18.4307C27.9365 18.6512 27.6633 18.8333 27.3672 18.9707C27.0498 19.1118 26.7125 19.2029 26.3672 19.2407C26.1172 19.2407 25.9972 19.2407 25.9772 19.1807C25.9572 19.1207 25.9772 19.0307 26.2072 18.8607C26.7334 18.4465 27.3627 18.1837 28.0272 18.1007H28.1872Z" fill="#63727A"/>
<path d="M20.878 8.70104C20.948 8.86104 21.128 8.92104 21.368 8.92104C21.7761 8.89242 22.1757 8.79081 22.548 8.62104C23.248 8.32104 23.928 7.83104 23.768 7.46104C23.768 7.34104 23.558 7.21104 23.118 7.25104C22.7733 7.30304 22.437 7.40056 22.118 7.54104C21.368 7.84104 20.718 8.33104 20.878 8.70104ZM23.138 7.50104C23.398 7.50104 23.518 7.50104 23.538 7.56104C23.558 7.62104 23.258 8.05104 22.458 8.39104C21.658 8.73104 21.148 8.70104 21.108 8.60104C21.068 8.50104 21.388 8.12104 22.188 7.77104C22.4883 7.63133 22.809 7.54019 23.138 7.50104Z" fill="#63727A"/>
<path d="M6.19835 19.6609C6.40835 19.3809 6.45835 19.1609 6.35835 19.0209C6.25835 18.8809 6.02835 18.8709 5.69835 19.0209C5.3639 19.1442 5.05281 19.3234 4.77835 19.5509C4.48398 19.7551 4.22405 20.0049 4.00835 20.2909C3.78835 20.5709 3.73835 20.7809 3.83835 20.9309C3.91074 21.0011 4.00751 21.0405 4.10835 21.0409C4.24236 21.0322 4.37408 21.0018 4.49835 20.9509C4.82841 20.812 5.14064 20.6341 5.42835 20.4209C5.71627 20.2013 5.97502 19.9459 6.19835 19.6609ZM4.02835 20.7609C4.20798 20.3394 4.52053 19.9882 4.91835 19.7609C5.59835 19.2809 6.08835 19.1409 6.14835 19.2009C6.20835 19.2609 5.93835 19.7209 5.26835 20.2009C4.59835 20.6809 4.09835 20.8209 4.02835 20.7609Z" fill="#63727A"/>
<path d="M6.08846 21.4007L6.62846 21.0207C7.13846 20.6707 7.22846 20.6107 7.17846 20.4607C7.17074 20.4193 7.15305 20.3803 7.12692 20.3472C7.10079 20.3141 7.067 20.2879 7.02846 20.2707C6.76097 20.2173 6.4855 20.2177 6.21819 20.272C5.95088 20.3264 5.6971 20.4335 5.47172 20.5872C5.24634 20.7409 5.0539 20.938 4.90567 21.1669C4.75743 21.3959 4.65639 21.6522 4.60846 21.9207C4.61257 21.9439 4.61257 21.9676 4.60846 21.9907C4.60497 22.0325 4.61029 22.0746 4.62407 22.1142C4.63785 22.1538 4.65979 22.1901 4.68846 22.2207C4.72441 22.231 4.76251 22.231 4.79846 22.2207C4.90846 22.2207 5.05846 22.1207 5.42846 21.8507L6.08846 21.4007ZM4.84846 22.0207C4.9354 21.5688 5.19789 21.1696 5.57846 20.9107C5.90726 20.6812 6.29748 20.5557 6.69846 20.5507H6.89846L6.48846 20.8507L5.94846 21.2307L5.26846 21.7107L4.84846 22.0207Z" fill="#63727A"/>
<path d="M7.8272 21.281C7.80343 21.2426 7.7713 21.2101 7.73321 21.1858C7.69512 21.1616 7.65205 21.1463 7.6072 21.141C7.06098 21.0938 6.51836 21.2653 6.09842 21.6177C5.67847 21.9702 5.4155 22.4749 5.3672 23.021C5.36675 23.0657 5.37538 23.11 5.39257 23.1512C5.40976 23.1925 5.43515 23.2298 5.4672 23.261C5.50961 23.2878 5.55742 23.3048 5.6072 23.311C5.8372 23.311 6.1972 23.001 6.8572 22.451C7.5172 21.901 7.9472 21.521 7.8272 21.281ZM5.6272 23.021C5.64479 22.7861 5.71072 22.5574 5.82085 22.3491C5.93098 22.1409 6.08294 21.9577 6.2672 21.811C6.59117 21.533 7.00051 21.3742 7.4272 21.361H7.5972C7.33295 21.6734 7.03441 21.9552 6.7072 22.201C6.3805 22.5156 6.01803 22.7908 5.6272 23.021Z" fill="#63727A"/>
<path d="M8.36871 22.3207C8.34914 22.2906 8.32251 22.2658 8.29113 22.2483C8.25976 22.2309 8.2246 22.2214 8.18871 22.2207C7.69614 22.2528 7.22981 22.4542 6.86871 22.7907C6.49919 23.1113 6.24314 23.5428 6.13871 24.0207C6.13753 24.0906 6.16249 24.1583 6.20871 24.2107C6.25236 24.2505 6.30965 24.272 6.36871 24.2707C6.79871 24.2707 7.65871 23.5107 7.66871 23.5007C8.09871 23.0207 8.56871 22.5607 8.36871 22.3207ZM6.36871 24.0207C6.48746 23.6306 6.7167 23.2833 7.02871 23.0207C7.3364 22.7509 7.7144 22.574 8.11871 22.5107C7.9363 22.8033 7.70649 23.0635 7.43871 23.2807C7.133 23.5939 6.76969 23.8452 6.36871 24.0207Z" fill="#63727A"/>
<path d="M9.1179 23.371C9.09875 23.3428 9.07357 23.3191 9.04416 23.3018C9.01476 23.2846 8.98188 23.274 8.9479 23.271C8.4574 23.3115 7.99372 23.5117 7.6279 23.841C7.24177 24.1328 6.96947 24.5501 6.8579 25.021C6.85215 25.048 6.85205 25.076 6.85763 25.103C6.86321 25.1301 6.87434 25.1557 6.89031 25.1782C6.90628 25.2008 6.92676 25.2198 6.95044 25.234C6.97412 25.2483 7.00049 25.2575 7.0279 25.261C7.4579 25.261 8.3179 24.501 8.3279 24.491C8.8079 24.111 9.2779 23.611 9.1179 23.371ZM7.1079 25.021C7.22595 24.6255 7.46347 24.2762 7.7879 24.021C8.09558 23.7512 8.47359 23.5743 8.8779 23.511C8.69563 23.8066 8.46589 24.0701 8.1979 24.291C7.88589 24.6034 7.51554 24.8514 7.1079 25.021Z" fill="#63727A"/>
<path d="M9.90797 24.4608C9.88417 24.4303 9.85387 24.4055 9.81927 24.3882C9.78467 24.3709 9.74665 24.3616 9.70797 24.3608C9.28127 24.374 8.87194 24.5328 8.54797 24.8108C8.22836 25.061 8.00565 25.4145 7.91797 25.8108C7.91912 25.8519 7.92963 25.8922 7.94869 25.9286C7.96775 25.9649 7.99487 25.9965 8.02797 26.0208C8.0799 26.0598 8.14306 26.0808 8.20797 26.0808C8.60797 26.0808 9.33797 25.4608 9.33797 25.4508C9.59797 25.2008 10.078 24.7108 9.90797 24.4608ZM8.15797 25.8608C8.24509 25.5285 8.43818 25.2336 8.70797 25.0208C8.98179 24.7719 9.33794 24.633 9.70797 24.6308C9.5605 24.8871 9.3673 25.1142 9.13797 25.3008C8.85531 25.5557 8.52106 25.7467 8.15797 25.8608Z" fill="#63727A"/>
<path d="M10.7977 25.361C10.7746 25.3267 10.7433 25.2987 10.7066 25.2795C10.67 25.2603 10.6291 25.2505 10.5877 25.251C10.1997 25.2572 9.82507 25.3937 9.524 25.6386C9.22293 25.8834 9.01292 26.2224 8.92773 26.601C8.93624 26.6833 8.97135 26.7605 9.02773 26.821C9.07797 26.8642 9.1415 26.8889 9.20774 26.891C9.59774 26.891 10.2077 26.321 10.2677 26.311C10.5277 26.021 11.0277 25.601 10.7977 25.361ZM9.17773 26.641C9.2376 26.3233 9.41195 26.0387 9.66774 25.841C9.92045 25.6144 10.2483 25.4897 10.5877 25.491C10.4731 25.7404 10.2978 25.957 10.0777 26.121C9.82358 26.3637 9.51496 26.542 9.17773 26.641Z" fill="#63727A"/>
<path d="M11.6083 26.2709C11.5942 26.2464 11.5738 26.2261 11.5492 26.212C11.5246 26.1979 11.4967 26.1907 11.4683 26.1909C11.0944 26.2104 10.7397 26.3629 10.4683 26.6209C10.1814 26.8424 9.97428 27.1513 9.87834 27.5009C9.87256 27.5472 9.88497 27.5939 9.91295 27.6312C9.94093 27.6685 9.9823 27.6935 10.0283 27.7009C10.3483 27.7009 10.9383 27.1909 11.0283 27.1209C11.7683 26.5009 11.6483 26.3309 11.6083 26.2709ZM10.1383 27.4509C10.2487 27.2018 10.4166 26.9824 10.6283 26.8109C10.8352 26.626 11.0869 26.4984 11.3583 26.4409C11.2244 26.6425 11.0666 26.8272 10.8883 26.9909C10.66 27.177 10.4077 27.3318 10.1383 27.4509Z" fill="#63727A"/>
<path d="M12.7274 26.841C12.6905 26.7932 12.637 26.761 12.5774 26.751C12.2209 26.8024 11.8862 26.9537 11.6119 27.1872C11.3376 27.4208 11.135 27.7272 11.0274 28.071C11.0143 28.1235 11.0143 28.1785 11.0274 28.231C11.0698 28.2578 11.1176 28.2748 11.1674 28.281C11.4874 28.281 12.0774 27.771 12.1674 27.701C12.8774 27.071 12.7574 26.901 12.7274 26.841ZM11.2474 28.021C11.3645 27.7747 11.5346 27.5573 11.7455 27.3844C11.9564 27.2115 12.2029 27.0874 12.4674 27.021C12.3319 27.2034 12.174 27.368 11.9974 27.511C11.7721 27.7147 11.5197 27.8863 11.2474 28.021Z" fill="#63727A"/>
<path d="M13.638 27.4508C13.6277 27.4282 13.6106 27.4093 13.5891 27.3967C13.5676 27.3842 13.5427 27.3786 13.518 27.3808C13.1414 27.4416 12.7925 27.6161 12.518 27.8808C12.218 28.1308 11.878 28.5408 11.878 28.7308C11.8683 28.7494 11.8633 28.77 11.8633 28.7908C11.8633 28.8117 11.8683 28.8323 11.878 28.8508C11.9105 28.8609 11.9454 28.8609 11.978 28.8508C12.198 28.8508 12.608 28.5208 12.978 28.2308C13.748 27.6408 13.678 27.5208 13.638 27.4508ZM12.288 28.5308C12.4128 28.3612 12.5571 28.2068 12.718 28.0708C12.8784 27.9238 13.0605 27.8024 13.258 27.7108L12.878 28.0808C12.6919 28.2442 12.4947 28.3946 12.288 28.5308Z" fill="#63727A"/>
<path d="M14.5784 28.1908C14.5703 28.1679 14.5554 28.148 14.5358 28.1338C14.5161 28.1195 14.4926 28.1115 14.4684 28.1108C14.0317 28.179 13.6285 28.3859 13.3184 28.7008C13.0815 28.8962 12.9076 29.1571 12.8184 29.4508V29.5208C12.8509 29.5309 12.8858 29.5309 12.9184 29.5208C13.0184 29.5208 13.2084 29.3808 13.7284 28.9508C14.5984 28.3708 14.6684 28.3208 14.5784 28.1908ZM13.2784 29.1108C13.3439 29.0271 13.4176 28.9501 13.4984 28.8808C13.6615 28.7245 13.8469 28.5931 14.0484 28.4908L13.6284 28.8408L13.2784 29.1108Z" fill="#63727A"/>
<path d="M15.3685 28.6506C14.9353 28.7139 14.5348 28.9177 14.2285 29.2306C13.9947 29.4286 13.8214 29.6886 13.7285 29.9806V30.0206C13.7611 30.0306 13.7959 30.0306 13.8285 30.0206C13.9385 30.0206 14.1185 29.8706 14.6485 29.4406C15.4585 28.7906 15.5285 28.7306 15.4485 28.6006C15.4323 28.6025 15.4167 28.6079 15.4029 28.6166C15.389 28.6252 15.3773 28.6368 15.3685 28.6506ZM14.5285 29.3706L14.1885 29.6506L14.3985 29.4106C14.5575 29.2519 14.7438 29.1232 14.9485 29.0306L14.5285 29.3706Z" fill="#63727A"/>
<path d="M5.64758 18.0209C5.6311 17.9963 5.60879 17.9761 5.58262 17.9621C5.55645 17.9481 5.52724 17.9409 5.49758 17.9409C5.00054 18.025 4.54238 18.2628 4.18758 18.6209C3.85383 18.9071 3.61349 19.2868 3.49758 19.7109C3.49178 19.7546 3.50312 19.7987 3.52923 19.8342C3.55535 19.8696 3.59418 19.8935 3.63758 19.9009C3.77758 19.9009 4.04758 19.7809 4.63758 19.2409C5.22758 18.7009 5.80758 18.1709 5.64758 18.0209ZM3.75758 19.5509C3.90931 19.2121 4.13131 18.9094 4.40887 18.6629C4.68644 18.4163 5.01322 18.2316 5.36758 18.1209C5.12101 18.4505 4.83936 18.7522 4.52758 19.0209C4.29051 19.2245 4.03238 19.4022 3.75758 19.5509Z" fill="#63727A"/>
<path d="M5.12734 16.7109C5.10494 16.6728 5.06936 16.6444 5.02734 16.6309C4.52965 16.713 4.07092 16.9511 3.71734 17.3109C3.37711 17.5914 3.13537 17.9733 3.02734 18.4009C3.0276 18.4567 3.04904 18.5103 3.08734 18.5509H3.19734C3.33734 18.5509 3.61734 18.4409 4.25734 17.9009C4.89734 17.3609 5.29734 17.0209 5.12734 16.7109ZM3.24734 18.3209C3.38397 18.0061 3.58494 17.7233 3.83734 17.4909C4.12299 17.2204 4.46428 17.0156 4.83734 16.8909C4.59189 17.2031 4.31363 17.488 4.00734 17.7409C3.77152 17.9561 3.51721 18.1502 3.24734 18.3209Z" fill="#63727A"/>
<path d="M4.75742 15.581C4.74095 15.5563 4.71863 15.5361 4.69246 15.5222C4.66629 15.5082 4.63708 15.5009 4.60742 15.501C4.11263 15.5831 3.65708 15.8214 3.30742 16.181C2.96758 16.4637 2.72315 16.8443 2.60742 17.271C2.60768 17.3268 2.62912 17.3804 2.66742 17.421C2.6998 17.452 2.74259 17.4698 2.78742 17.471C2.91742 17.471 3.19742 17.351 3.78742 16.811C4.37742 16.271 4.92742 15.811 4.75742 15.581ZM2.87742 17.191C3.01426 16.8737 3.21908 16.5904 3.47742 16.361C3.76037 16.087 4.10252 15.8817 4.47742 15.761C4.23217 16.0764 3.95392 16.3647 3.64742 16.621C3.40789 16.8331 3.15024 17.0238 2.87742 17.191Z" fill="#63727A"/>
<path d="M4.36872 14.301C4.35409 14.2776 4.33327 14.2587 4.30857 14.2463C4.28387 14.234 4.25623 14.2287 4.22872 14.231C3.73815 14.3294 3.28862 14.5734 2.93872 14.931C2.60987 15.2214 2.37054 15.5995 2.24872 16.021C2.2348 16.0666 2.2348 16.1154 2.24872 16.161L2.31872 16.221C2.44872 16.221 2.71872 16.101 3.31872 15.541C3.91872 14.981 4.51872 14.471 4.36872 14.301ZM2.53872 15.891C2.6897 15.5997 2.8931 15.3386 3.13872 15.121C3.42342 14.8446 3.76456 14.6331 4.13872 14.501C3.88833 14.7964 3.61407 15.0706 3.31872 15.321C3.06888 15.5245 2.80852 15.7148 2.53872 15.891Z" fill="#63727A"/>
<path d="M4.15733 13.2409C4.14354 13.219 4.12432 13.2011 4.10154 13.1888C4.07876 13.1766 4.0532 13.1704 4.02733 13.1709C3.55133 13.2579 3.11044 13.4801 2.75733 13.8109C2.39733 14.1109 1.98733 14.5909 1.98733 14.8109C1.97769 14.8295 1.97266 14.85 1.97266 14.8709C1.97266 14.8918 1.97769 14.9124 1.98733 14.9309C2.01605 14.9613 2.05554 14.9793 2.09733 14.9809C2.21733 14.9809 2.47733 14.8709 3.09733 14.3609C4.30733 13.4809 4.19733 13.3109 4.15733 13.2409ZM2.36733 14.6309C2.52868 14.4057 2.71671 14.2009 2.92733 14.0209C3.1961 13.8037 3.4919 13.6222 3.80733 13.4809C3.56648 13.7317 3.30561 13.9625 3.02733 14.1709C2.81513 14.3352 2.59486 14.4887 2.36733 14.6309Z" fill="#63727A"/>
<path d="M3.94711 12.081C3.93531 12.0625 3.91905 12.0474 3.89982 12.0369C3.88058 12.0264 3.85901 12.0209 3.83711 12.021C3.36645 12.1322 2.93246 12.363 2.57711 12.691C2.25711 12.961 1.78711 13.451 1.78711 13.691V13.771H1.88711C1.99711 13.771 2.24711 13.651 2.88711 13.141C4.07711 12.301 4.02711 12.151 3.94711 12.081ZM2.19711 13.401C2.3618 13.2063 2.54242 13.0257 2.73711 12.861C2.97755 12.6579 3.24305 12.4865 3.52711 12.351C3.29517 12.5707 3.05148 12.7777 2.79711 12.971C2.60542 13.1256 2.40509 13.2691 2.19711 13.401Z" fill="#63727A"/>
<path d="M1.89774 12.4907C2.01774 12.4907 2.26774 12.3807 2.89774 11.9007C4.04774 11.0607 3.96774 10.9007 3.89774 10.8407C3.88965 10.8178 3.8748 10.7979 3.85516 10.7837C3.83552 10.7694 3.81201 10.7614 3.78774 10.7607C3.31308 10.8545 2.87155 11.0718 2.50774 11.3907C2.17774 11.6407 1.68774 12.1207 1.67774 12.3207V12.4007C1.67767 12.4148 1.68054 12.4286 1.68618 12.4415C1.69182 12.4543 1.70009 12.4658 1.71047 12.4752C1.72084 12.4847 1.73308 12.4918 1.74639 12.4962C1.7597 12.5006 1.77379 12.5021 1.78774 12.5007L1.89774 12.4907ZM2.73774 11.5807C2.98364 11.3832 3.25636 11.2216 3.54774 11.1007C3.35774 11.2607 3.07774 11.4907 2.79774 11.6907C2.51774 11.8907 2.39774 11.9707 2.17774 12.1007C2.34702 11.9096 2.53458 11.7354 2.73774 11.5807Z" fill="#63727A"/>
<path d="M3.82742 9.82072C3.81669 9.79966 3.80113 9.78144 3.78201 9.76754C3.76289 9.75364 3.74076 9.74445 3.71742 9.74072C3.24053 9.83081 2.79568 10.0446 2.42742 10.3607C2.10742 10.6207 1.61742 11.1007 1.60742 11.3007V11.3807C1.63499 11.407 1.66983 11.4245 1.70742 11.4307C1.82742 11.4307 2.07742 11.3107 2.70742 10.8307C3.94742 10.0207 3.86742 9.89072 3.82742 9.82072ZM2.02742 11.0807C2.19671 10.8896 2.38426 10.7154 2.58742 10.5607C2.82265 10.3636 3.08543 10.2019 3.36742 10.0807C3.17742 10.2407 2.89742 10.4707 2.61742 10.6707C2.429 10.8189 2.23199 10.9558 2.02742 11.0807Z" fill="#63727A"/>
<path d="M2.95766 9.75074C4.17766 9.02074 4.11766 8.91074 4.08766 8.82074V8.76074C3.61151 8.79455 3.1543 8.96081 2.76766 9.24074C2.40766 9.45074 1.88766 9.87074 1.84766 10.0707V10.1507C1.85834 10.1807 1.8754 10.208 1.89766 10.2307C2.27601 10.133 2.63463 9.97064 2.95766 9.75074ZM2.79766 9.43074C3.04996 9.2616 3.32197 9.12392 3.60766 9.02074C3.40766 9.16074 3.11766 9.34074 2.83766 9.50074C2.55766 9.66074 2.38766 9.75074 2.21766 9.83074C2.39639 9.67739 2.5908 9.54332 2.79766 9.43074Z" fill="#63727A"/>
<path d="M2.09734 9.20075C2.2176 9.16899 2.32775 9.10703 2.41734 9.02075C2.57734 8.92075 2.81734 8.77075 3.14734 8.59075C3.46896 8.42435 3.80336 8.2839 4.14734 8.17075C4.38734 8.09075 4.43734 8.05075 4.36734 7.95075V7.91075C3.88035 7.85339 3.38807 7.95888 2.96734 8.21075C2.58216 8.384 2.2556 8.6654 2.02734 9.02075V9.10075C2.02783 9.12247 2.03474 9.14356 2.0472 9.16135C2.05966 9.17915 2.07711 9.19286 2.09734 9.20075ZM3.02734 8.38075C3.1743 8.30297 3.32833 8.23935 3.48734 8.19075L3.02734 8.41075L2.72734 8.57075L3.02734 8.38075Z" fill="#63727A"/>
<path d="M2.65883 8.02069C2.88438 7.84483 3.12159 7.68447 3.36883 7.54069C3.69209 7.37783 4.02622 7.2375 4.36883 7.12069C4.58883 7.04069 4.69883 7.00069 4.66883 6.86069V6.76069H4.60883C4.12191 6.70484 3.63011 6.81022 3.20883 7.06069C2.8244 7.25185 2.50707 7.55523 2.29883 7.93069V8.02069C2.30289 8.04002 2.31131 8.05818 2.32343 8.07377C2.33556 8.08937 2.35109 8.10199 2.36883 8.11069C2.47062 8.10078 2.56931 8.07015 2.65883 8.02069ZM3.26883 7.29069C3.41365 7.20845 3.56818 7.14462 3.72883 7.10069L3.25883 7.32069L3.02883 7.45069C3.10332 7.38069 3.18361 7.31713 3.26883 7.26069V7.29069Z" fill="#63727A"/>
</svg>
