<svg width="35" height="34" viewBox="0 0 35 34" fill="none" xmlns="http://www.w3.org/2000/svg">
<path d="M33.9903 1.77025C33.6799 1.22642 33.2297 0.775515 32.6864 0.464288C32.1431 0.153061 31.5264 -0.00715779 30.9003 0.000245407C30.1308 0.00404715 29.3842 0.262021 28.7766 0.734039C28.1689 1.20606 27.7343 1.86566 27.5403 2.61025L27.9503 2.56025H28.0203C28.3014 2.66944 28.5374 2.87027 28.6903 3.13025C28.8574 3.43523 28.9239 3.78522 28.8803 4.13025C28.9186 3.7854 28.8524 3.43698 28.6903 3.13025C28.5374 2.87027 28.3014 2.66944 28.0203 2.56025H28.0003L27.5903 2.61025L14.3403 4.37025V4.12025C14.1503 3.24025 11.0603 3.21025 10.7003 3.21025C10.3403 3.21025 7.26026 3.21025 7.06026 4.12025H6.99026V4.48025C6.99026 5.55025 6.99026 6.62025 6.93026 7.68025C6.87026 8.74025 6.93026 9.51024 6.93026 10.4402C6.63404 10.5275 6.35135 10.6554 6.09026 10.8202C5.66925 11.1625 5.32799 11.5925 5.09026 12.0802C4.93177 12.2253 4.81077 12.4066 4.73763 12.6086C4.66448 12.8106 4.64137 13.0273 4.67026 13.2402C4.40766 14.0848 4.28273 14.966 4.30026 15.8502V16.0002C4.06833 15.6929 3.76501 15.4467 3.41653 15.2829C3.06805 15.1191 2.68491 15.0427 2.30026 15.0602C1.37026 15.2102 0.640262 16.1602 0.300262 17.7502C-0.0710993 19.5421 -0.0982484 21.3882 0.220262 23.1902C0.463505 24.9787 1.03294 26.7074 1.90026 28.2902C2.68026 29.5502 3.57026 30.2302 4.43026 30.2302H4.68026C5.40026 30.1202 5.99026 29.5202 6.40026 28.5302H6.51026C6.61026 28.8202 6.70026 29.1102 6.80026 29.3902C7.07008 30.0139 7.40528 30.6073 7.80026 31.1602C8.19342 31.7066 8.66519 32.1919 9.20026 32.6002C9.52765 32.858 9.9009 33.0514 10.3003 33.1702C10.5492 33.2297 10.8043 33.2599 11.0603 33.2602C11.3829 33.2617 11.7037 33.211 12.0103 33.1102C12.2254 33.0496 12.4332 32.9658 12.6303 32.8602C13.1658 32.8438 13.7 32.7971 14.2303 32.7202L15.1103 32.5502C15.4762 32.5132 15.8358 32.4292 16.1803 32.3002C16.4646 32.1837 16.728 32.0215 16.9603 31.8202C17.4083 31.4595 17.7532 30.9869 17.9603 30.4502V30.3402L18.7203 30.2502C18.7798 30.1694 18.8301 30.0822 18.8703 29.9902C18.9492 29.8053 18.9899 29.6063 18.9899 29.4052C18.9899 29.2042 18.9492 29.0052 18.8703 28.8202C18.8458 28.7213 18.8013 28.6286 18.7393 28.5477C18.6774 28.4668 18.5994 28.3996 18.5103 28.3502C18.6003 27.9302 18.6703 27.5002 18.7203 27.0702C18.7971 27.1359 18.881 27.1929 18.9703 27.2402C19.2643 27.3995 19.5874 27.4981 19.9203 27.5302H20.0703C20.418 27.5315 20.761 27.4492 21.0703 27.2902C21.4146 27.0969 21.7064 26.8223 21.9203 26.4902C22.2568 26.0168 22.4917 25.4789 22.6103 24.9102C22.8565 23.8116 22.9541 22.6849 22.9003 21.5602C22.817 20.0758 22.562 18.606 22.1403 17.1802C21.8407 15.9918 21.3292 14.8671 20.6303 13.8602C20.2895 13.2953 19.768 12.8619 19.1503 12.6302C18.7185 12.5082 18.2628 12.4974 17.8257 12.5988C17.3886 12.7002 16.9842 12.9106 16.6503 13.2102C16.5464 13.3109 16.4526 13.4214 16.3703 13.5402L16.1903 13.1702L16.0803 13.0002H15.8203L14.9003 12.4402V7.00025L27.9003 5.22025C28.3617 6.01211 29.117 6.58996 30.002 6.82829C30.887 7.06663 31.8303 6.94621 32.627 6.49318C33.4238 6.04016 34.0096 5.29111 34.2574 4.4087C34.5051 3.52629 34.3948 2.58177 33.9503 1.78025L33.9903 1.77025ZM14.5503 12.7702L14.8703 12.9602C14.2716 13.1366 13.6596 13.2637 13.0403 13.3402L13.5303 13.2402C13.8837 13.1306 14.2203 12.9724 14.5303 12.7702H14.5503ZM11.0103 13.7702V13.8602L11.0903 14.0502C11.2803 14.4702 11.4303 14.8902 11.6003 15.3102C11.2885 15.1612 10.9336 15.1293 10.6003 15.2202H10.4803C10.4024 15.2538 10.3312 15.3012 10.2703 15.3602C10.0614 15.0246 9.81666 14.7128 9.54026 14.4302C9.13791 14.0238 8.67175 13.686 8.16026 13.4302H8.50026L9.50026 13.4902L9.74026 13.1302H11.1203C11.7033 13.3367 12.3263 13.4052 12.9403 13.3302H12.5503C12.1582 13.3704 11.7644 13.3905 11.3703 13.3902C11.1903 13.3002 11.0203 13.1902 10.8403 13.0902H9.90026C10.2703 13.3602 10.6503 13.5602 11.0103 13.7602V13.7702ZM11.6203 31.4502C11.5784 31.4436 11.5383 31.4286 11.5022 31.4063C11.4662 31.384 11.4349 31.3547 11.4103 31.3202H11.4603C11.7503 31.3202 11.8803 30.8302 11.8503 30.3202C11.8589 30.0251 11.7593 29.737 11.5703 29.5102C11.5133 29.4574 11.438 29.4287 11.3603 29.4302C11.399 29.3936 11.4477 29.3692 11.5003 29.3602C11.7303 29.3602 11.9903 29.7502 12.0203 30.3602C12.0503 30.9702 11.8303 31.3602 11.6103 31.3602L11.6203 31.4502ZM11.2003 30.4502C11.1722 30.222 11.2178 29.9908 11.3303 29.7902H11.3903C11.5308 29.9769 11.6016 30.2069 11.5903 30.4402C11.5903 30.8802 11.4803 31.1202 11.4303 31.1202C11.3803 31.1202 11.2303 30.8502 11.2003 30.4102V30.4502ZM11.5603 29.2202H11.4803C11.697 29.0327 11.8709 28.8008 11.9903 28.5402C12.2598 27.9913 12.4098 27.3914 12.4303 26.7802C12.5235 25.9035 12.5569 25.0215 12.5303 24.1402C12.5137 23.3667 12.4469 22.5951 12.3303 21.8302C12.2141 20.8842 12.0269 19.9482 11.7703 19.0302C11.668 18.6066 11.5411 18.1892 11.3903 17.7802C11.557 17.7344 11.7066 17.6405 11.8203 17.5102C11.9804 17.3015 12.09 17.0585 12.1403 16.8002C12.7766 18.6553 13.232 20.5675 13.5003 22.5102C13.6802 23.9595 13.7404 25.4211 13.6803 26.8802C13.6614 28.1035 13.4592 29.317 13.0803 30.4802C13.0849 30.3378 13.0646 30.1957 13.0203 30.0602C12.99 29.8216 12.8809 29.5999 12.7103 29.4302C12.5482 29.3076 12.3614 29.2217 12.1628 29.1785C11.9642 29.1354 11.7586 29.136 11.5603 29.1802V29.2202ZM11.6603 17.3102C11.5704 17.4006 11.4609 17.469 11.3403 17.5102H11.1003C11.3232 17.1927 11.4369 16.8113 11.4243 16.4236C11.4116 16.0358 11.2734 15.6626 11.0303 15.3602C11.2591 15.3484 11.485 15.4155 11.6703 15.5502C11.7903 15.6738 11.8704 15.8306 11.9003 16.0002C11.9687 16.2152 11.9827 16.4439 11.9408 16.6656C11.8989 16.8873 11.8025 17.0951 11.6603 17.2702V17.3102ZM10.5503 17.3102C10.5889 17.3095 10.627 17.3001 10.6616 17.2828C10.6962 17.2655 10.7265 17.2407 10.7503 17.2102C10.9195 16.9613 10.9907 16.6586 10.9503 16.3602C10.9503 15.9202 10.7603 15.4802 10.4803 15.4702L10.6103 15.4002C10.8703 15.4002 11.1403 15.8502 11.1703 16.4002C11.1703 17.0002 10.9803 17.4002 10.7603 17.4002C10.5403 17.4002 10.6103 17.4002 10.5403 17.2702L10.5503 17.3102ZM10.3503 16.4502C10.3503 16.0102 10.4603 15.7702 10.5103 15.7602C10.6526 15.9553 10.7328 16.1889 10.7403 16.4302C10.7744 16.6587 10.7285 16.8919 10.6103 17.0902C10.4412 16.9043 10.3484 16.6615 10.3503 16.4102V16.4502ZM13.4003 12.7702C12.7471 12.9602 12.0534 12.9602 11.4003 12.7702L11.2503 8.35025C11.4653 8.34084 11.6807 8.36102 11.8903 8.41024C12.3046 8.47282 12.7281 8.42806 13.1203 8.28024H13.1803C13.5693 8.00047 13.8487 7.5938 13.9703 7.13025C14.0526 7.16741 14.1404 7.19104 14.2303 7.20025H14.3803V12.2902C14.0798 12.4895 13.7488 12.6381 13.4003 12.7302V12.7702ZM13.6003 6.37025V6.63025C13.5761 6.85642 13.5004 7.07405 13.379 7.26646C13.2577 7.45886 13.0939 7.62093 12.9003 7.74025C12.5798 7.85325 12.2368 7.88754 11.9003 7.84025C11.6718 7.82092 11.4447 7.78752 11.2203 7.74025V5.18025C11.9895 5.17101 12.7548 5.0703 13.5003 4.88025C13.4703 5.26633 13.4703 5.65416 13.5003 6.04025C13.5238 6.14002 13.5573 6.23717 13.6003 6.33025V6.37025ZM10.6603 3.74025C11.7308 3.65592 12.8063 3.82374 13.8003 4.23025C12.8079 4.64357 11.7324 4.81825 10.6603 4.74025C9.58987 4.81981 8.51552 4.65215 7.52026 4.25025C8.51302 3.83835 9.58818 3.66373 10.6603 3.74025ZM7.34026 12.3002C7.34026 10.7702 7.34026 9.22025 7.41026 7.71025L7.47026 4.86025C7.8836 5.01054 8.30829 5.12758 8.74026 5.21025C9.40076 5.32122 10.0716 5.35811 10.7403 5.32025V12.6802H9.48026L9.25026 12.9802H8.55026C8.14568 12.9824 7.74161 13.0091 7.34026 13.0602V12.3002ZM7.46026 13.7102C8.1196 13.9163 8.72908 14.2568 9.25026 14.7102C9.57821 15.0525 9.86055 15.4356 10.0903 15.8502C10.0656 16.0327 10.0656 16.2177 10.0903 16.4002C10.0905 16.7016 10.1589 16.999 10.2903 17.2702C10.3855 17.4192 10.5309 17.5292 10.7003 17.5802H10.9003C11.0577 18.0848 11.1813 18.5993 11.2703 19.1202C11.5203 20.0218 11.7008 20.9411 11.8103 21.8702C11.9219 22.6189 11.9887 23.3736 12.0103 24.1302C12.0369 24.9915 12.0035 25.8536 11.9103 26.7102C11.889 27.2539 11.7491 27.7864 11.5003 28.2702C11.3902 28.5251 11.2184 28.7485 11.0003 28.9202C10.8587 29.0185 10.7038 29.096 10.5403 29.1502C10.7978 28.8867 10.9867 28.5639 11.0903 28.2102C11.3892 27.3346 11.5413 26.4155 11.5403 25.4902C11.5802 24.8542 11.5802 24.2163 11.5403 23.5802C11.5503 23.5274 11.5503 23.4731 11.5403 23.4202V22.7302C11.498 21.8156 11.3469 20.9092 11.0903 20.0302L10.9803 19.7102C10.8103 19.0602 10.7103 18.7102 10.5903 18.3102C10.3177 17.4843 9.91973 16.7052 9.41026 16.0002C8.97731 15.2804 8.3726 14.6791 7.65026 14.2502C7.42663 14.0748 7.1723 13.9426 6.90026 13.8602L7.46026 13.7102ZM7.24026 14.5702C7.92329 14.9546 8.49518 15.5093 8.90026 16.1802C9.3793 16.8699 9.75024 17.6286 10.0003 18.4302C10.1203 18.7802 10.2203 19.1402 10.3903 19.8102L10.4803 20.1702C10.5964 20.5463 10.6833 20.9308 10.7403 21.3202C10.8699 21.7868 10.9701 22.2611 11.0403 22.7402C11.0403 22.9902 11.0403 23.2302 11.0903 23.4802V23.6102C11.1303 24.2296 11.1303 24.8509 11.0903 25.4702C11.0979 26.3487 10.9524 27.2218 10.6603 28.0502C10.5397 28.4579 10.2818 28.8112 9.93026 29.0502C9.75987 29.1595 9.57464 29.2437 9.38026 29.3002C9.17803 29.3302 8.97249 29.3302 8.77026 29.3002C8.26614 29.1775 7.81427 28.8973 7.48026 28.5002L7.36026 28.3502L8.90026 28.0602V27.9202C9.21265 26.9456 9.4172 25.9395 9.51026 24.9202C9.59027 24.0487 9.59027 23.1717 9.51026 22.3002C9.40942 20.9995 9.07046 19.7284 8.51026 18.5502C7.98609 17.4655 7.26755 16.486 6.39026 15.6602L6.30026 15.5802L4.98026 15.7902C5.15026 14.9402 5.42026 14.3802 5.77026 14.2202C6.02622 14.1761 6.28847 14.1844 6.54114 14.2445C6.79381 14.3047 7.03165 14.4155 7.24026 14.5702ZM6.33026 11.2202C6.43152 11.1346 6.54224 11.0608 6.66026 11.0002L6.82026 11.1302V10.7002V13.3202H6.74026C6.77029 13.1381 6.77029 12.9523 6.74026 12.7702C6.70998 12.5316 6.60088 12.3099 6.43026 12.1402C6.20801 11.982 5.94304 11.8949 5.67026 11.8902C5.85584 11.6354 6.07827 11.4096 6.33026 11.2202ZM6.15026 12.3802C6.27463 12.5155 6.35182 12.6874 6.37026 12.8702C6.43948 13.0415 6.4702 13.2258 6.46026 13.4102L5.90026 13.5302C5.91967 13.4177 5.91967 13.3027 5.90026 13.1902C5.89806 12.8202 5.75916 12.4641 5.51026 12.1902C5.73849 12.183 5.96296 12.2496 6.15026 12.3802ZM5.15026 12.2202C5.37026 12.2202 5.63026 12.6202 5.66026 13.2202C5.6822 13.4295 5.65831 13.6411 5.59026 13.8402C5.42453 13.939 5.27869 14.0679 5.16026 14.2202L5.04026 14.1402C5.07894 14.1395 5.11696 14.1301 5.15156 14.1128C5.18616 14.0955 5.21646 14.0707 5.24026 14.0402C5.40691 13.7903 5.47463 13.4873 5.43026 13.1902C5.43026 12.7502 5.24026 12.3302 4.98026 12.3002C5.0406 12.253 5.1138 12.2251 5.19026 12.2202H5.15026ZM4.99026 12.5302C4.99026 12.5302 5.20026 12.7602 5.22026 13.2002C5.25444 13.4287 5.20851 13.6619 5.09026 13.8602C4.96038 13.6721 4.89064 13.4489 4.89026 13.2202C4.90026 12.7402 4.98026 12.5402 5.03026 12.5302H4.99026ZM4.77026 14.1902C4.8386 14.2818 4.92337 14.3598 5.02026 14.4202C4.86961 14.7036 4.74896 15.0019 4.66026 15.3102C4.68985 14.9345 4.73992 14.5606 4.81026 14.1902H4.77026ZM6.17026 27.4102C5.83026 28.7402 5.25026 29.6002 4.52026 29.7402C3.79026 29.8802 2.98026 29.2202 2.25026 28.0002C1.36837 26.4579 0.79123 24.7605 0.550262 23.0002C0.239 21.2621 0.259358 19.4808 0.610262 17.7502C0.940262 16.3902 1.54026 15.5402 2.25026 15.4302H2.42026C3.09026 15.4302 3.85026 16.0302 4.53026 17.1302C5.41631 18.6707 5.99373 20.369 6.23026 22.1302C6.55437 23.8774 6.53399 25.671 6.17026 27.4102ZM6.52026 27.9702C6.54768 27.8161 6.59125 27.6653 6.65026 27.5202C7.02329 25.7249 7.04706 23.8746 6.72026 22.0702C6.45508 20.2514 5.83681 18.5019 4.90026 16.9202C4.79639 16.7363 4.67589 16.5622 4.54026 16.4002L6.21026 16.1302C6.99957 16.8967 7.64631 17.7974 8.12026 18.7902C8.64553 19.9129 8.9575 21.1235 9.04026 22.3602C9.12023 23.2017 9.12023 24.0488 9.04026 24.8902C8.95112 25.8192 8.77024 26.737 8.50026 27.6302L6.52026 27.9702ZM11.9003 32.4702L11.7703 32.6302C11.3141 32.7454 10.8364 32.7454 10.3803 32.6302C10.0421 32.5396 9.72807 32.3757 9.46026 32.1502C8.96021 31.7703 8.51882 31.3188 8.15026 30.8102C7.75637 30.2993 7.42095 29.7459 7.15026 29.1602C7.12726 29.0462 7.09031 28.9353 7.04026 28.8302C7.44623 29.2996 7.98777 29.6315 8.59026 29.7802C8.72007 29.7902 8.85045 29.7902 8.98026 29.7802C9.11341 29.7902 9.24712 29.7902 9.38026 29.7802H9.79026C10.0582 29.781 10.3246 29.7406 10.5803 29.6602C10.7471 29.6206 10.906 29.5529 11.0503 29.4602L10.9603 29.5802C10.8589 29.8588 10.8114 30.154 10.8203 30.4502C10.8338 30.7483 10.916 31.0391 11.0603 31.3002C11.1078 31.4014 11.1806 31.4886 11.2717 31.5535C11.3628 31.6183 11.4691 31.6585 11.5803 31.6702H11.6403C11.7486 31.7132 11.8637 31.7369 11.9803 31.7402C12.0767 31.7503 12.1739 31.7503 12.2703 31.7402L12.4603 31.6602C12.2803 31.9402 12.1003 32.2102 11.9003 32.4702ZM12.2003 31.4702C12.1139 31.4802 12.0266 31.4802 11.9403 31.4702C12.061 31.3178 12.1505 31.1431 12.2037 30.9561C12.2569 30.7691 12.2727 30.5734 12.2503 30.3802C12.2508 30.0133 12.1195 29.6584 11.8803 29.3802C12.105 29.3758 12.3254 29.4423 12.5103 29.5702C12.6377 29.7046 12.7183 29.8764 12.7403 30.0602C12.7994 30.2697 12.8084 30.4902 12.7667 30.7038C12.7251 30.9175 12.6338 31.1183 12.5003 31.2902C12.4211 31.3839 12.3171 31.4532 12.2003 31.4902V31.4702ZM14.8303 32.2002V32.0602L14.0603 32.2102C13.5797 32.282 13.0957 32.3288 12.6103 32.3502C12.7439 32.1798 12.8643 31.9992 12.9703 31.8102C13.1303 31.5402 13.2803 31.2502 13.4203 30.9502C13.8821 29.6385 14.1286 28.2607 14.1503 26.8702C14.2203 25.3878 14.1601 23.9021 13.9703 22.4302C13.5988 19.5648 12.8315 16.7648 11.6903 14.1102L13.6903 13.8202C14.4529 15.482 15.0427 17.2178 15.4503 19.0002C16.0786 21.3997 16.3017 23.8873 16.1103 26.3602C15.966 28.3029 15.5589 30.217 14.9003 32.0502V32.1902L15.3703 32.3602L14.8303 32.2002ZM18.6003 28.8002C18.6697 28.9578 18.7055 29.1281 18.7055 29.3002C18.7055 29.4724 18.6697 29.6427 18.6003 29.8002C18.5797 29.8564 18.5528 29.9101 18.5203 29.9602L17.9903 30.0202C18.1603 29.5202 18.3003 29.0202 18.4203 28.5102C18.51 28.5932 18.5727 28.7012 18.6003 28.8202V28.8002ZM16.9003 13.5102C17.1375 13.303 17.4126 13.1434 17.7103 13.0402C18.1236 12.9105 18.5669 12.9105 18.9803 13.0402C19.4912 13.2208 19.9229 13.5746 20.2003 14.0402C20.8633 15.0087 21.3539 16.0846 21.6503 17.2202C22.0613 18.6102 22.3096 20.0431 22.3903 21.4902C22.4337 22.5815 22.3363 23.6739 22.1003 24.7402C21.9863 25.2475 21.7722 25.7269 21.4703 26.1502C21.305 26.4136 21.0786 26.6332 20.8103 26.7902C20.5341 26.9481 20.2176 27.0211 19.9003 27.0002C19.6365 26.979 19.3806 26.9005 19.1503 26.7702C18.9989 26.6899 18.8549 26.5962 18.7203 26.4902V26.3302L20.2303 25.8402V25.7102C20.9039 23.3994 21.0068 20.9596 20.5303 18.6002C20.3006 17.401 19.8089 16.2674 19.0903 15.2802C18.6307 14.6774 18.0888 14.1422 17.4803 13.6902L17.4003 13.6302L16.7003 13.7302L16.9003 13.5102ZM17.3803 14.1002C17.9172 14.5088 18.3979 14.9862 18.8103 15.5202C19.4831 16.4452 19.944 17.507 20.1603 18.6302C20.61 20.869 20.5209 23.1827 19.9003 25.3802L18.7803 25.7402C18.8671 23.8502 18.7532 21.9562 18.4403 20.0902C18.2515 18.9803 17.9876 17.8844 17.6503 16.8102C17.7812 16.7805 17.9041 16.7225 18.0103 16.6402C18.174 16.5033 18.2896 16.3176 18.3403 16.1102C18.4227 15.8178 18.4078 15.5065 18.2978 15.2232C18.1877 14.94 17.9885 14.7003 17.7303 14.5402C17.4466 14.4053 17.1248 14.3735 16.8203 14.4502L16.7203 14.2102L17.3803 14.1002ZM17.5503 16.5702L16.9003 14.6602C17.1488 14.601 17.4102 14.6292 17.6403 14.7402C17.8515 14.8702 18.0146 15.0654 18.1048 15.2964C18.195 15.5274 18.2075 15.7815 18.1403 16.0202C18.1028 16.1801 18.0152 16.3237 17.8903 16.4302C17.7863 16.5107 17.6613 16.5594 17.5303 16.5702H17.5503ZM16.4103 14.7802C17.1089 16.5321 17.6087 18.3569 17.9003 20.2202C17.9603 20.5302 17.9903 20.8402 18.0303 21.1502V21.2302C18.1303 22.0302 18.2003 22.8402 18.2303 23.6402V26.4802C18.1186 27.7793 17.8327 29.0574 17.3803 30.2802C17.2597 30.6249 17.0697 30.9412 16.822 31.2095C16.5743 31.4778 16.2742 31.6925 15.9403 31.8402C15.7695 31.8908 15.5959 31.9309 15.4203 31.9602C15.4203 32.0902 15.3403 32.2302 15.2903 32.3602C15.3033 32.2097 15.3369 32.0616 15.3903 31.9202C16.0216 30.1427 16.4183 28.2904 16.5703 26.4102C16.7627 23.8838 16.5363 21.3429 15.9003 18.8902C15.4977 17.1309 14.9216 15.4158 14.1803 13.7702L15.7803 13.5302C16.0103 13.9302 16.2003 14.3502 16.3903 14.7802H16.4103ZM14.9003 12.5502H14.8203L14.9003 12.4902V12.5502ZM14.9003 6.45025L14.7903 6.51025L14.1303 6.60025C14.0756 6.40286 14.0322 6.20254 14.0003 6.00025C13.9703 5.66759 13.9703 5.3329 14.0003 5.00025L28.0003 3.17025C28.1567 3.24041 28.2889 3.35521 28.3803 3.50025C28.4823 3.69814 28.5253 3.92123 28.504 4.14289C28.4828 4.36454 28.3981 4.57539 28.2603 4.75025L14.9003 6.45025Z" fill="#63727A"/>
<path d="M2.1101 17.0003C1.0301 17.1703 0.560102 19.8203 1.1101 22.9203C1.6601 26.0203 2.9001 28.3903 3.9701 28.2203C5.0401 28.0503 5.4701 25.3903 4.9701 22.2903C4.4701 19.1903 3.1901 16.8303 2.1101 17.0003Z" fill="#63727A"/>
<path d="M7.84039 7.41018C7.94532 7.41018 8.03039 7.07887 8.03039 6.67018C8.03039 6.26149 7.94532 5.93018 7.84039 5.93018C7.73546 5.93018 7.65039 6.26149 7.65039 6.67018C7.65039 7.07887 7.73546 7.41018 7.84039 7.41018Z" fill="#63727A"/>
</svg>
