<svg width="31" height="35" viewBox="0 0 31 35" fill="none" xmlns="http://www.w3.org/2000/svg">
<g clip-path="url(#clip0_119_951)">
<path d="M5.99904 9.90023C6.53368 10.1727 7.11976 10.3295 7.71904 10.3602H7.99904C8.35976 10.3621 8.71926 10.3184 9.06904 10.2302C9.52787 10.1336 9.95253 9.91612 10.299 9.60023C10.6284 9.31654 10.871 8.94566 10.999 8.53023C11.1179 8.01377 11.0506 7.47194 10.809 7.00023C10.5865 6.5304 10.241 6.12956 9.80904 5.84023C9.2753 5.42976 8.6571 5.14286 7.99904 5.00023C7.22408 4.78847 6.40062 4.84125 5.65904 5.15023C5.31173 5.30719 4.99902 5.53153 4.73904 5.81023C4.45918 6.11623 4.26891 6.49332 4.18904 6.90023C4.10992 7.53513 4.27823 8.17611 4.65904 8.69023C4.99148 9.20443 5.45371 9.62181 5.99904 9.90023ZM4.65904 7.00023C4.71686 6.682 4.87035 6.38896 5.09904 6.16023C5.30529 5.93052 5.55737 5.74657 5.83904 5.62023C6.47769 5.37309 7.17892 5.33803 7.83904 5.52023C8.42081 5.643 8.96969 5.88846 9.44904 6.24023C9.82348 6.48394 10.1188 6.83142 10.299 7.24023C10.4562 7.56928 10.5059 7.93938 10.4413 8.29825C10.3768 8.65712 10.201 8.98663 9.93904 9.24023C9.65759 9.497 9.31215 9.67318 8.93904 9.75023C8.54961 9.84293 8.14848 9.87663 7.74904 9.85023C7.22255 9.8287 6.70715 9.69217 6.23904 9.45023C5.7635 9.2282 5.35607 8.88291 5.05904 8.45023C4.89719 8.24849 4.77822 8.01583 4.70944 7.7665C4.64066 7.51717 4.62351 7.25643 4.65904 7.00023Z" fill="#63727A"/>
<path d="M15.659 7.94V6.09H15.159L15.269 5.78L15.409 5.43L15.489 5.21L15.249 5L14.999 4.59L14.489 3.67L14.139 3L13.659 3.56L13.509 3.74L13.419 3.65L13.479 3.41L13.659 2.89V2.54L13.369 2.34L12.659 1.84L11.899 1.33L11.369 1L11.129 1.56L10.999 1.88L10.599 1.7V0.77L10.279 0.64L9.21905 0.35L8.46905 0.14L8.04905 0L7.86905 0.4L7.65905 0.93V1H7.21905V0.06H6.65905L5.99905 0.12L5.19905 0.19H4.88905L4.77905 0.5L4.52905 1.09L4.40905 1.37H4.31905L4.24905 1L4.07905 0.36L3.46905 0.77L2.88905 1.16L2.30905 1.55L2.12905 1.67V1.88V2.11L1.99905 2.55L1.89905 2.48H1.64905H0.99905L0.89905 2.82L0.74905 3.3L0.53905 4V4.7L0.44905 4.94L0.34905 5.24C0.227776 5.55852 0.189912 5.90274 0.23905 6.24L0.11905 6.4L-0.000950456 6.52V6.68C-0.0309332 7.01266 -0.0309332 7.34734 -0.000950456 7.68C0.100509 8.53308 0.358135 9.36019 0.75905 10.12C1.04223 10.6831 1.377 11.2187 1.75905 11.72L1.89905 12C2.35145 12.971 3.08244 13.7856 3.99905 14.34C4.79549 14.8457 5.71577 15.1225 6.65905 15.14C7.46208 15.1359 8.2567 14.9763 8.99905 14.67L9.39905 14.5H9.35905C9.80505 14.4423 10.2419 14.328 10.659 14.16C11.2407 13.9204 11.786 13.6006 12.279 13.21C13.0706 12.7074 13.7292 12.0214 14.199 11.21C14.4014 10.8623 14.5561 10.4889 14.659 10.1C14.7919 10.0162 14.9074 9.90756 14.999 9.78C15.0878 9.64318 15.149 9.49031 15.179 9.33C15.2084 9.19371 15.2485 9.05996 15.299 8.93C15.3809 8.67971 15.4881 8.43846 15.619 8.21L15.679 8.09L15.659 7.94ZM4.15905 14.13C3.56477 13.7887 3.05271 13.321 2.65905 12.76L2.79905 12.88C3.65597 13.5727 4.65713 14.0648 5.72905 14.32C6.38002 14.5032 7.0528 14.5974 7.72905 14.6H8.18905C7.52041 14.798 6.81857 14.8585 6.12592 14.7777C5.43326 14.6969 4.76417 14.4766 4.15905 14.13ZM11.899 13C10.944 13.659 9.84271 14.0752 8.69056 14.2128C7.5384 14.3504 6.37008 14.205 5.28673 13.7894C4.20337 13.3738 3.23764 12.7004 2.47311 11.8276C1.70859 10.9547 1.16831 9.90866 0.89905 8.78C1.20969 9.34976 1.57831 9.88594 1.99905 10.38C2.77752 11.308 3.74597 12.0582 4.83905 12.58C6.09471 13.1431 7.46406 13.4067 8.83905 13.35C10.0791 13.3329 11.2968 13.0174 12.389 12.43L12.869 12.13C12.5715 12.4476 12.247 12.7387 11.899 13ZM13.779 11L13.689 11.16C13.5783 11.2183 13.4743 11.2887 13.379 11.37C13.0233 11.656 12.6454 11.9135 12.249 12.14C11.2033 12.6916 10.0413 12.9864 8.85905 13C7.53227 13.0579 6.21035 12.8045 4.99905 12.26C3.94594 11.7597 3.01179 11.0403 2.25905 10.15C1.58443 9.38982 1.04344 8.52086 0.65905 7.58L0.49905 7.2V6.81L1.27905 5.81L1.99905 7.19L1.70905 8.08L2.21905 9.08L2.77905 8.52L4.27905 9.82L3.99905 10.69L5.10905 11.45L5.70905 10.45L7.99905 11.17L7.83905 12.09L8.99905 12.15L9.56905 11.15L11.569 10.85V11.45L12.259 11.09L12.739 10.09L14.109 9.39C14.1144 9.94398 14.0019 10.4928 13.779 11ZM3.06905 5.92C3.32953 5.09776 3.89977 4.40917 4.65905 4C5.26671 3.65174 5.95899 3.47867 6.65905 3.5C7.03704 3.51011 7.41423 3.54015 7.78905 3.59C9.07558 3.68948 10.2862 4.23814 11.209 5.14C11.599 5.54 12.779 6.76 12.549 8.04C12.249 9.7 9.73905 10.77 7.70905 10.6L6.82905 10.33L5.82905 10.02H5.71905C4.89037 9.57369 4.18322 8.93176 3.65905 8.15C3.41494 7.83756 3.23678 7.47882 3.13536 7.0955C3.03395 6.71219 3.01139 6.31229 3.06905 5.92ZM14.749 8.76V8.53L13.959 8.93L13.279 9.27L12.709 9.56C12.849 9.3 13.589 8.98 13.829 8.14C13.9459 7.53966 13.8616 6.91754 13.589 6.37C13.2903 5.61285 12.8295 4.93022 12.239 4.37C12.079 4.22 11.929 4.09 11.779 3.97L11.469 3.75L10.999 3.48L10.709 3.33L10.439 3.2L10.209 3H9.99905C9.15922 2.66971 8.27058 2.48049 7.36905 2.44H5.81905L5.49905 2.49H5.43905L5.15905 2.55H5.05905L4.70905 2.66C3.95458 2.84311 3.26357 3.22662 2.70905 3.77C2.24329 4.23583 1.89979 4.80948 1.70905 5.44L1.64905 5.54L1.29905 4.88L0.81905 5.49L0.66905 5.68C0.66905 5.58 0.66905 5.48 0.74905 5.38L0.99905 4.77V4.19L1.39905 3H1.73905L2.07905 3.26L2.43905 2.85L2.59905 2L3.74905 1.22L3.99905 2.16L4.83905 1.78L5.24905 0.69L6.65905 0.55L6.73905 1.43H7.92905L8.30905 0.59L10.129 1.09L10.069 2L11.259 2.54L11.599 1.74L13.109 2.74L12.869 3.74L13.569 4.44L14.069 3.8L14.809 5.14L14.449 6.07L14.629 6.45H14.999L15.099 8C14.9682 8.24656 14.8513 8.50029 14.749 8.76Z" fill="#63727A"/>
<path d="M19.7399 19.8198L19.6599 19.7598C19.179 19.3541 18.6438 19.0175 18.0699 18.7598C17.5503 18.5418 17.0064 18.3874 16.4499 18.2998H16.3199L16.2199 18.3898C15.973 18.6048 15.7926 18.8858 15.6999 19.1998C15.5896 19.5445 15.5896 19.9151 15.6999 20.2598L15.7599 20.4498H15.9999C16.453 20.4793 16.8985 20.5806 17.3199 20.7498C17.8811 20.9807 18.3909 21.3206 18.8199 21.7498L18.9999 21.9398L19.1999 21.7698C19.4028 21.6043 19.5667 21.396 19.6799 21.1598C19.8634 20.7625 19.9058 20.3144 19.7999 19.8898L19.7399 19.8198ZM19.1199 20.9398C19.0815 21.0265 19.031 21.1073 18.9699 21.1798C18.5363 20.7861 18.0348 20.4744 17.4899 20.2598C17.0803 20.0936 16.6494 19.9859 16.2099 19.9398C16.1699 19.762 16.1699 19.5776 16.2099 19.3998C16.2679 19.2298 16.3597 19.0733 16.4799 18.9398C16.9401 19.0227 17.3895 19.1568 17.8199 19.3398C18.31 19.5488 18.7705 19.8211 19.1899 20.1498C19.2522 20.4138 19.2276 20.6909 19.1199 20.9398Z" fill="#63727A"/>
<path d="M21.8491 15.5601L28.2391 7.83008L25.9191 6.83008L19.1191 14.1801L21.8491 15.5601ZM27.3191 8.00008L21.6591 14.8301L20.0491 14.0001L26.0491 7.50008L27.3191 8.00008Z" fill="#63727A"/>
<path d="M20.1398 17.6499C19.0828 16.9185 17.9046 16.3801 16.6598 16.0599C15.3521 15.7389 13.998 15.6509 12.6598 15.7999C11.512 15.871 10.3804 16.1067 9.29976 16.4999C7.77546 16.9429 6.39547 17.7813 5.29976 18.9299C4.43397 19.822 3.81684 20.9252 3.50976 22.1299C3.13414 23.8342 3.40876 25.6175 4.27976 27.1299C4.9276 28.2371 5.82043 29.1812 6.88976 29.8899C8.00568 30.716 9.26791 31.3233 10.6098 31.6799C11.5213 31.9104 12.4597 32.018 13.3998 31.9999C14.2751 32 15.1475 31.8994 15.9998 31.6999C17.2323 31.4197 18.3978 30.8998 19.4298 30.1699C20.5338 29.4394 21.442 28.4494 22.0748 27.2866C22.7077 26.1238 23.0458 24.8236 23.0598 23.4999C23.1414 22.413 22.9489 21.323 22.4998 20.3299C22.2784 19.8521 21.9961 19.405 21.6598 18.9999C21.2117 18.488 20.701 18.0344 20.1398 17.6499ZM6.13976 26.0999C6.13976 23.3099 9.32976 21.0499 13.2498 21.0499C17.1698 21.0499 20.3498 23.3099 20.3498 26.0999C20.3498 28.8899 17.1598 31.0999 13.2498 31.0999C9.33976 31.0999 6.12976 28.8799 6.12976 26.0999H6.13976ZM21.9998 20.5999C22.4117 21.508 22.5872 22.5057 22.5098 23.4999C22.5 24.7355 22.1856 25.9497 21.5942 27.0347C21.0029 28.1197 20.1529 29.042 19.1198 29.7199L18.8598 29.8999C19.4603 29.4604 19.9526 28.8897 20.2992 28.2312C20.6458 27.5726 20.8375 26.8437 20.8598 26.0999C20.8598 22.9999 17.4198 20.4699 13.1898 20.4699C8.95976 20.4699 5.55976 22.9999 5.55976 26.0999C5.57031 27.1665 5.96026 28.1946 6.65976 28.9999C5.88863 28.4277 5.24782 27.6983 4.77976 26.8599C4.0711 25.6753 3.77868 24.2879 3.949 22.9181C4.11932 21.5483 4.74259 20.2748 5.71976 19.2999C6.75288 18.2207 8.04847 17.4282 9.47976 16.9999C10.5103 16.6312 11.5875 16.409 12.6798 16.3399C13.0598 16.3399 13.5098 16.2699 14.0398 16.2699C14.8795 16.2675 15.7162 16.3717 16.5298 16.5799C17.702 16.8904 18.8116 17.4013 19.8098 18.0899C20.3222 18.4523 20.7919 18.8716 21.2098 19.3399C21.5231 19.7264 21.7884 20.1495 21.9998 20.5999Z" fill="#63727A"/>
<path d="M24.2386 20.6099C24.1453 20.3699 24.0453 20.1299 23.9386 19.8899C23.6199 19.2118 23.2167 18.5768 22.7386 17.9999C22.6675 17.9021 22.5907 17.8086 22.5086 17.7199L30.3286 7.83985V7.69985C30.2068 7.22782 29.937 6.80725 29.5586 6.49985C29.3922 6.37913 29.2008 6.29713 28.9986 6.25985C28.7693 6.18937 28.5454 6.10248 28.3286 5.99985L27.8686 5.78985C27.5663 5.63195 27.252 5.4982 26.9286 5.38985C26.6589 5.26687 26.3547 5.2421 26.0686 5.31985C25.8383 5.4123 25.6278 5.54808 25.4486 5.71985L25.3286 5.85985C25.1686 5.99985 22.4386 8.99985 17.1886 14.6699C16.0269 14.4369 14.8431 14.333 13.6586 14.3599C9.28862 14.3599 4.72862 16.7899 3.05862 19.9299C2.52291 20.9839 2.16477 22.1192 1.99862 23.2899C1.8584 24.3278 1.8888 25.3817 2.08862 26.4099L2.51862 27.8399C3.0563 29.1837 3.90645 30.38 4.99862 31.3299C5.31478 31.602 5.64886 31.8525 5.99862 32.0799C6.21735 32.3908 6.3986 32.7264 6.53862 33.0799C6.61709 33.2986 6.68057 33.5225 6.72862 33.7499V33.8599L7.72862 34.5499L8.40862 34.1099L8.86862 34.0499C9.25234 34.2183 9.64648 34.3619 10.0486 34.4799C10.6067 34.6325 11.1748 34.7461 11.7486 34.8199C12.2558 34.8896 12.7667 34.9297 13.2786 34.9398C13.5883 34.9599 13.8989 34.9599 14.2086 34.9398C14.8892 34.8601 15.5595 34.7093 16.2086 34.4899C16.9288 34.3004 17.6213 34.0181 18.2686 33.6499C18.7468 33.3517 19.2014 33.0173 19.6286 32.6499L20.0386 32.2598C20.3986 31.9098 20.5886 31.7299 20.8186 31.7199C21.0483 31.7201 21.2769 31.6899 21.4986 31.6299C21.6508 31.5987 21.7963 31.5412 21.9286 31.4599C22.0889 31.3403 22.2163 31.1821 22.2986 30.9999C22.3786 30.8299 22.4686 30.6699 22.5586 30.4999C22.7084 30.2502 22.8388 29.9895 22.9486 29.7199C23.0902 29.3213 23.2676 28.9364 23.4786 28.5699C23.7271 28.1215 23.9379 27.6532 24.1086 27.1699C24.3677 26.4117 24.5585 25.632 24.6786 24.8399C24.7996 23.6812 24.6978 22.5102 24.3786 21.3899C24.3844 21.1231 24.3368 20.8579 24.2386 20.6099ZM22.1486 30.2499C22.0486 30.4199 21.9486 30.5999 21.8586 30.7899C21.8081 30.8736 21.7398 30.9453 21.6586 30.9999C21.5837 31.0399 21.5026 31.067 21.4186 31.0799C21.2399 31.132 21.0548 31.1589 20.8686 31.1599C20.4095 31.2374 19.9959 31.4835 19.7086 31.8499L19.3186 32.2299C18.9176 32.5677 18.4895 32.8721 18.0386 33.1399C17.4346 33.4881 16.785 33.7506 16.1086 33.9198C15.493 34.1326 14.8558 34.2768 14.2086 34.3498C13.4324 34.4316 12.6486 34.4081 11.8786 34.2799C11.3154 34.2312 10.7569 34.1376 10.2086 33.9999C9.79505 33.8913 9.39051 33.7509 8.99862 33.5799L8.24862 33.6599L7.77862 33.9599L7.31862 33.6299C7.26368 33.4125 7.18661 33.2014 7.08862 32.9999C6.93179 32.566 6.71647 32.1555 6.44862 31.7799V31.7299C6.09597 31.5142 5.76152 31.27 5.44862 30.9999L5.61862 31.0999C6.58881 31.6783 7.59035 32.2024 8.61862 32.6698C9.63547 33.01 10.6968 33.1987 11.7686 33.2299C12.2186 33.2299 12.7686 33.2999 13.2686 33.2999C14.1454 33.3038 15.019 33.1963 15.8686 32.9799C16.9654 32.7026 18.0187 32.2752 18.9986 31.7099C19.8894 31.2693 20.7168 30.711 21.4586 30.0499C22.1515 29.3943 22.7474 28.6434 23.2286 27.8199L23.5786 27.1799C23.4183 27.5758 23.2243 27.9572 22.9986 28.3199C22.7817 28.7188 22.5945 29.1333 22.4386 29.5599C22.3581 29.7963 22.2612 30.0269 22.1486 30.2499ZM25.8586 6.14985C25.9692 6.03459 26.1018 5.94277 26.2486 5.87985C26.4185 5.84787 26.5941 5.87246 26.7486 5.94985C27.047 6.05248 27.3377 6.17613 27.6186 6.31985L28.1086 6.54985C28.3381 6.6524 28.5755 6.73601 28.8186 6.79985C28.9482 6.83406 29.0658 6.90325 29.1586 6.99985C29.4055 7.19618 29.5897 7.46032 29.6886 7.75985L22.1186 17.3299C20.9339 16.1458 19.4519 15.3029 17.8286 14.8899C22.9986 9.29985 25.6086 6.48985 25.7686 6.29985L25.8586 6.14985ZM22.2886 18.3399C23.0269 19.2911 23.5706 20.3785 23.8886 21.5399C23.9952 22.1032 24.0321 22.6775 23.9986 23.2499C23.9809 23.7992 23.9071 24.3454 23.7786 24.8799C23.5864 25.8102 23.249 26.7045 22.7786 27.5299C22.3188 28.3017 21.7571 29.008 21.1086 29.6299C20.4025 30.2557 19.6154 30.7837 18.7686 31.1999C17.8477 31.7387 16.8589 32.1524 15.8286 32.4299C14.5435 32.7225 13.2184 32.7969 11.9086 32.6499C10.8883 32.6273 9.87705 32.452 8.90862 32.1299C7.88286 31.672 6.88152 31.1613 5.90862 30.5999C5.58533 30.4319 5.28036 30.2308 4.99862 29.9999C4.61581 29.6588 4.27959 29.2687 3.99862 28.8399C3.42506 28.0708 2.96065 27.2262 2.61862 26.3299V26.2699C2.43873 25.3069 2.40837 24.322 2.52862 23.3499C2.70044 22.2521 3.0376 21.1866 3.52862 20.1899C4.91862 17.6799 8.91862 14.9999 13.6586 14.9299C17.5786 14.8999 20.4786 15.9999 22.2886 18.3399Z" fill="#63727A"/>
</g>
<defs>
<clipPath id="clip0_119_951">
<rect width="30.33" height="34.95" fill="white"/>
</clipPath>
</defs>
</svg>
