<svg width="13" height="16" fill="none" xmlns="http://www.w3.org/2000/svg"><path d="M6.5 0C2.925 0 0 2.88 0 6.4c0 4.32 5.688 9.2 5.931 9.44.163.08.407.16.569.16.162 0 .406-.08.569-.16C7.313 15.6 13 10.72 13 6.4 13 2.88 10.075 0 6.5 0Zm0 14.16c-1.706-1.6-4.875-5.04-4.875-7.76 0-2.64 2.194-4.8 4.875-4.8s4.875 2.16 4.875 4.8c0 2.64-3.169 6.16-4.875 7.76Zm0-10.96c-1.787 0-3.25 1.44-3.25 3.2 0 1.76 1.463 3.2 3.25 3.2s3.25-1.44 3.25-3.2c0-1.76-1.463-3.2-3.25-3.2Zm0 4.8c-.894 0-1.625-.72-1.625-1.6 0-.88.731-1.6 1.625-1.6s1.625.72 1.625 1.6c0 .88-.731 1.6-1.625 1.6Z" fill="#1F2972"/></svg>