<svg width="16" height="12" fill="none" xmlns="http://www.w3.org/2000/svg"><path d="M1.778 1.714 8.178 6l6.044-4.286M15 3.286v5.428c0 .8 0 1.2-.17 1.506a1.495 1.495 0 0 1-.68.624c-.332.156-.768.156-1.639.156H3.49c-.871 0-1.307 0-1.64-.156a1.498 1.498 0 0 1-.68-.624C1 9.914 1 9.514 1 8.714V3.286c0-.8 0-1.2.17-1.506a1.49 1.49 0 0 1 .68-.624C2.181 1 2.617 1 3.488 1h9.022c.872 0 1.307 0 1.64.156.292.137.53.355.68.624.17.306.169.706.169 1.506Z" stroke="#fff" stroke-width="1.5" stroke-linecap="round" stroke-linejoin="round"/></svg>