<svg width="19" height="19" fill="none" xmlns="http://www.w3.org/2000/svg"><path d="M1.01 5.234A9.496 9.496 0 0 1 9.5 0c2.56 0 4.711.94 6.355 2.475l-2.723 2.724c-.985-.941-2.237-1.42-3.632-1.42-2.475 0-4.57 1.671-5.315 3.916A5.707 5.707 0 0 0 3.886 9.5c0 .627.109 1.235.299 1.805.746 2.246 2.84 3.917 5.315 3.917 1.278 0 2.366-.337 3.217-.907a4.37 4.37 0 0 0 1.896-2.867H9.5V7.772h8.947c.112.621.173 1.27.173 1.943 0 2.893-1.036 5.33-2.833 6.982C14.216 18.15 12.065 19 9.5 19A9.497 9.497 0 0 1 1.01 5.235Z" fill="#CDD1E1"/></svg>