<svg width="20" height="20" fill="none" xmlns="http://www.w3.org/2000/svg"><path d="M15 19a5 5 0 0 0-10 0m5-8a3 3 0 1 1 0-6 3 3 0 0 1 0 6Zm9-6.8v11.6c0 1.12 0 1.68-.218 2.108a2 2 0 0 1-.874.874C17.48 19 16.92 19 15.8 19H4.2c-1.12 0-1.68 0-2.108-.218a2 2 0 0 1-.874-.874C1 17.48 1 16.92 1 15.8V4.2c0-1.12 0-1.68.218-2.108a2 2 0 0 1 .874-.874C2.52 1 3.08 1 4.2 1h11.6c1.12 0 1.68 0 2.108.218a2 2 0 0 1 .874.874C19 2.52 19 3.08 19 4.2Z" stroke="#000" stroke-width="2" stroke-linecap="round" stroke-linejoin="round"/></svg>