<svg width="24" height="24" fill="none" xmlns="http://www.w3.org/2000/svg"><path fill-rule="evenodd" clip-rule="evenodd" d="M12 0C5.383 0 0 5.383 0 12s5.383 12 12 12c2.433 0 4.778-.733 6.76-2.087l-1.574-1.829A9.57 9.57 0 0 1 12 21.607c-5.298 0-9.607-4.31-9.607-9.607 0-5.298 4.31-9.607 9.607-9.607 5.298 0 9.608 4.31 9.608 9.607 0 .698-.079 1.391-.227 2.066-.308 1.263-1.188 1.654-1.865 1.6-.667-.053-1.46-.529-1.465-1.703V12A6.058 6.058 0 0 0 12 5.949a6.058 6.058 0 0 0-6.051 6.05A6.058 6.058 0 0 0 12 18.052a6.032 6.032 0 0 0 4.32-1.82 3.862 3.862 0 0 0 3.004 1.82 4 4 0 0 0 2.741-.803c.724-.549 1.25-1.329 1.545-2.273.047-.15.134-.5.135-.505.196-.852.255-1.638.255-2.47 0-6.617-5.383-12-12-12ZM8.341 12A3.663 3.663 0 0 1 12 8.34 3.663 3.663 0 0 1 15.659 12 3.663 3.663 0 0 1 12 15.659a3.663 3.663 0 0 1-3.659-3.66Z" fill="#CDD1E1"/></svg>