<svg width="14" height="14" fill="none" xmlns="http://www.w3.org/2000/svg"><path d="M5.335 1.838A1.333 1.333 0 0 0 4.097 1H2.263C1.566 1 1 1.566 1 2.263 1 8.193 5.807 13 11.737 13c.698 0 1.263-.566 1.263-1.263V9.903c0-.546-.332-1.036-.838-1.238l-1.757-.703a1.333 1.333 0 0 0-1.349.214l-.454.378a1.333 1.333 0 0 1-1.796-.082L5.528 7.194a1.333 1.333 0 0 1-.082-1.796l.379-.454c.313-.376.395-.894.213-1.349l-.703-1.757Z" stroke="#fff" stroke-width="1.5" stroke-linecap="round" stroke-linejoin="round"/></svg>